/* XPM */
static char * 0_xpm[] = {
"40 40 607 2",
"  	c None",
". 	c #383419",
"+ 	c #393519",
"@ 	c #3C381D",
"# 	c #39351B",
"$ 	c #2B270D",
"% 	c #2F2B12",
"& 	c #37331A",
"* 	c #39351C",
"= 	c #302C16",
"- 	c #2F2B14",
"; 	c #322E17",
"> 	c #2E2B14",
", 	c #312D17",
"' 	c #363217",
") 	c #333013",
"! 	c #353213",
"~ 	c #141004",
"{ 	c #0B0B05",
"] 	c #0B0B06",
"^ 	c #0B0A06",
"/ 	c #080702",
"( 	c #090904",
"_ 	c #0A0A05",
": 	c #0A0A06",
"< 	c #090804",
"[ 	c #0A0905",
"} 	c #0B0A05",
"| 	c #2A260E",
"1 	c #2D2912",
"2 	c #3B3720",
"3 	c #312D14",
"4 	c #201E0B",
"5 	c #000000",
"6 	c #010100",
"7 	c #1A1706",
"8 	c #1E1B02",
"9 	c #312E17",
"0 	c #2A260B",
"a 	c #16140A",
"b 	c #040401",
"c 	c #030301",
"d 	c #000100",
"e 	c #383523",
"f 	c #24210C",
"g 	c #35321D",
"h 	c #302D14",
"i 	c #141203",
"j 	c #010200",
"k 	c #020200",
"l 	c #050502",
"m 	c #020201",
"n 	c #11110B",
"o 	c #2B2812",
"p 	c #2C2912",
"q 	c #3B3823",
"r 	c #2C2A11",
"s 	c #161409",
"t 	c #050401",
"u 	c #040501",
"v 	c #060602",
"w 	c #060601",
"x 	c #050501",
"y 	c #030300",
"z 	c #060604",
"A 	c #060502",
"B 	c #030401",
"C 	c #010000",
"D 	c #191813",
"E 	c #3E3C25",
"F 	c #2E2B12",
"G 	c #44412C",
"H 	c #37341B",
"I 	c #2A2610",
"J 	c #080803",
"K 	c #090903",
"L 	c #0A0904",
"M 	c #0A0B06",
"N 	c #090A05",
"O 	c #080904",
"P 	c #030402",
"Q 	c #3D3C35",
"R 	c #38351E",
"S 	c #3F3C26",
"T 	c #2A2816",
"U 	c #020100",
"V 	c #0C0B07",
"W 	c #0D0D08",
"X 	c #0F0F09",
"Y 	c #0E0D08",
"Z 	c #10100A",
"` 	c #0F0F08",
" .	c #12120A",
"..	c #15150E",
"+.	c #12120C",
"@.	c #13130C",
"#.	c #14140D",
"$.	c #16170F",
"%.	c #1C1D16",
"&.	c #1B1B14",
"*.	c #11130C",
"=.	c #0C0D07",
"-.	c #121311",
";.	c #413F2A",
">.	c #353217",
",.	c #1B170B",
"'.	c #0C0B05",
").	c #1B1B13",
"!.	c #25251C",
"~.	c #3E3E35",
"{.	c #515048",
"].	c #23231B",
"^.	c #181810",
"/.	c #191910",
"(.	c #1C1B12",
"_.	c #1E1D14",
":.	c #17160E",
"<.	c #1A1A11",
"[.	c #191911",
"}.	c #1A1B12",
"|.	c #1B1B12",
"1.	c #1A1A12",
"2.	c #1E1E16",
"3.	c #222219",
"4.	c #24241B",
"5.	c #272720",
"6.	c #6D6B5F",
"7.	c #242109",
"8.	c #7D7B6E",
"9.	c #3B371A",
"0.	c #020000",
"a.	c #070600",
"b.	c #1D1C15",
"c.	c #393831",
"d.	c #5C5B4E",
"e.	c #080701",
"f.	c #13120A",
"g.	c #100E06",
"h.	c #0E0D05",
"i.	c #0C0B04",
"j.	c #16160B",
"k.	c #18170C",
"l.	c #16160D",
"m.	c #19180F",
"n.	c #15150B",
"o.	c #14140B",
"p.	c #1E1E14",
"q.	c #1E1D13",
"r.	c #1B1B11",
"s.	c #1C1B11",
"t.	c #19190F",
"u.	c #65645B",
"v.	c #282409",
"w.	c #696554",
"x.	c #3F3B1D",
"y.	c #100F02",
"z.	c #0B0902",
"A.	c #17160D",
"B.	c #39382F",
"C.	c #6F7068",
"D.	c #80817A",
"E.	c #7E807A",
"F.	c #6E6E69",
"G.	c #54554E",
"H.	c #2B2C23",
"I.	c #0D0C03",
"J.	c #0E0F05",
"K.	c #101006",
"L.	c #141309",
"M.	c #121107",
"N.	c #121109",
"O.	c #5A5951",
"P.	c #433F26",
"Q.	c #504D36",
"R.	c #252002",
"S.	c #191809",
"T.	c #26261C",
"U.	c #5D5D53",
"V.	c #B2B2AC",
"W.	c #9F9E91",
"X.	c #5C5843",
"Y.	c #4F4B36",
"Z.	c #777565",
"`.	c #AEACA3",
" +	c #727269",
".+	c #12110A",
"++	c #060500",
"@+	c #030200",
"#+	c #070500",
"$+	c #0A0902",
"%+	c #3A3A32",
"&+	c #474532",
"*+	c #292610",
"=+	c #F7F7F6",
"-+	c #323018",
";+	c #0A0400",
">+	c #16150D",
",+	c #080804",
"'+	c #45453E",
")+	c #A3A49E",
"!+	c #787564",
"~+	c #4D4A35",
"{+	c #3A361D",
"]+	c #595642",
"^+	c #5B5846",
"/+	c #3E3C26",
"(+	c #2D2A10",
"_+	c #524F3C",
":+	c #13120B",
"<+	c #030100",
"[+	c #24231E",
"}+	c #6B6957",
"|+	c #2B270B",
"1+	c #B8B8B1",
"2+	c #3B371C",
"3+	c #1C1802",
"4+	c #12110C",
"5+	c #040402",
"6+	c #2F2F2A",
"7+	c #C2C1BB",
"8+	c #56533E",
"9+	c #39361E",
"0+	c #423F2A",
"a+	c #89877B",
"b+	c #FFFFFF",
"c+	c #CFCFCA",
"d+	c #353119",
"e+	c #44412A",
"f+	c #28261C",
"g+	c #040400",
"h+	c #070601",
"i+	c #040301",
"j+	c #13130E",
"k+	c #636153",
"l+	c #29260A",
"m+	c #918E82",
"n+	c #3D391D",
"o+	c #423E21",
"p+	c #15150F",
"q+	c #0A0906",
"r+	c #030201",
"s+	c #787874",
"t+	c #595541",
"u+	c #949287",
"v+	c #EEEDEB",
"w+	c #45422F",
"x+	c #36331B",
"y+	c #39372B",
"z+	c #040300",
"A+	c #100F08",
"B+	c #0D0C06",
"C+	c #17160F",
"D+	c #717062",
"E+	c #3C3818",
"F+	c #797666",
"G+	c #3C391D",
"H+	c #413C1E",
"I+	c #0D0D07",
"J+	c #7B7A75",
"K+	c #49462F",
"L+	c #827F73",
"M+	c #545242",
"N+	c #353219",
"O+	c #474436",
"P+	c #080802",
"Q+	c #101009",
"R+	c #11110A",
"S+	c #0A0A04",
"T+	c #17170F",
"U+	c #79786D",
"V+	c #424022",
"W+	c #868576",
"X+	c #3E3A20",
"Y+	c #4E4A32",
"Z+	c #030400",
"`+	c #878680",
" @	c #4A462F",
".@	c #99978D",
"+@	c #302D16",
"@@	c #545142",
"#@	c #070702",
"$@	c #0E0E07",
"%@	c #18160D",
"&@	c #0C0B06",
"*@	c #191810",
"=@	c #807E74",
"-@	c #3D3A1D",
";@	c #767363",
">@	c #3E3A1F",
",@	c #535038",
"'@	c #94948C",
")@	c #48452F",
"!@	c #A2A198",
"~@	c #343216",
"{@	c #5B5847",
"]@	c #0B0A03",
"^@	c #0D0B03",
"/@	c #0B0A04",
"(@	c #1D1C14",
"_@	c #716F61",
":@	c #2E2A0F",
"<@	c #4C4A33",
"[@	c #373318",
"}@	c #56543E",
"|@	c #A09F95",
"1@	c #403D27",
"2@	c #B3B2AA",
"3@	c #56543F",
"4@	c #050500",
"5@	c #131209",
"6@	c #1A1911",
"7@	c #1E1C0E",
"8@	c #4B4834",
"9@	c #38351A",
"0@	c #403B22",
"a@	c #595542",
"b@	c #020300",
"c@	c #99978E",
"d@	c #2F2C19",
"e@	c #CECDC7",
"f@	c #363216",
"g@	c #5C5943",
"h@	c #060600",
"i@	c #0C0B03",
"j@	c #0A0903",
"k@	c #0F0D03",
"l@	c #0B0B09",
"m@	c #7C7C71",
"n@	c #353216",
"o@	c #312D12",
"p@	c #5A5842",
"q@	c #0A0B04",
"r@	c #908E81",
"s@	c #B5B4AB",
"t@	c #343114",
"u@	c #56533D",
"v@	c #0A0A08",
"w@	c #808077",
"x@	c #353116",
"y@	c #A4A395",
"z@	c #312E14",
"A@	c #57543F",
"B@	c #0B0B04",
"C@	c #060503",
"D@	c #838074",
"E@	c #3A361B",
"F@	c #5C5941",
"G@	c #393616",
"H@	c #5D5942",
"I@	c #050400",
"J@	c #070704",
"K@	c #7E7E76",
"L@	c #343015",
"M@	c #A4A295",
"N@	c #2F2A11",
"O@	c #605C46",
"P@	c #0F0F07",
"Q@	c #050601",
"R@	c #2E2D29",
"S@	c #35331E",
"T@	c #34311E",
"U@	c #29250E",
"V@	c #4E4B38",
"W@	c #808079",
"X@	c #332F13",
"Y@	c #A5A396",
"Z@	c #2C290F",
"`@	c #534F39",
" #	c #13130B",
".#	c #070701",
"+#	c #141412",
"@#	c #45422D",
"##	c #29250D",
"$#	c #6F6B59",
"%#	c #2C290D",
"&#	c #53503B",
"*#	c #0C0C06",
"=#	c #81817A",
"-#	c #332F14",
";#	c #A3A194",
">#	c #333018",
",#	c #45412A",
"'#	c #090902",
")#	c #040302",
"!#	c #46443A",
"~#	c #1F1C06",
"{#	c #413F26",
"]#	c #504E38",
"^#	c #353016",
"/#	c #181608",
"(#	c #322F19",
"_#	c #090803",
":#	c #080703",
"<#	c #9E9C90",
"[#	c #37331B",
"}#	c #3A361F",
"|#	c #060603",
"1#	c #252109",
"2#	c #3B381B",
"3#	c #3A361C",
"4#	c #28240E",
"5#	c #2F2A0D",
"6#	c #2B270E",
"7#	c #1C1A0C",
"8#	c #0E0F07",
"9#	c #0E0E06",
"0#	c #100F09",
"a#	c #878780",
"b#	c #2F2C14",
"c#	c #A19F93",
"d#	c #27251A",
"e#	c #120E00",
"f#	c #161201",
"g#	c #0A0A03",
"h#	c #232419",
"i#	c #25251A",
"j#	c #232319",
"k#	c #1D1D13",
"l#	c #201E15",
"m#	c #1C1A12",
"n#	c #29281F",
"o#	c #908F87",
"p#	c #38341D",
"q#	c #A8A69B",
"r#	c #47442D",
"s#	c #2B2A1F",
"t#	c #070703",
"u#	c #15140F",
"v#	c #1D1C17",
"w#	c #1E1D16",
"x#	c #11100A",
"y#	c #24231C",
"z#	c #1F1E16",
"A#	c #1D1C13",
"B#	c #1C1C14",
"C#	c #36362D",
"D#	c #908E86",
"E#	c #A7A69A",
"F#	c #3D3820",
"G#	c #404034",
"H#	c #101109",
"I#	c #17180E",
"J#	c #1B1A13",
"K#	c #23231A",
"L#	c #25241C",
"M#	c #22211A",
"N#	c #201F17",
"O#	c #090802",
"P#	c #0C0A00",
"Q#	c #111006",
"R#	c #15150C",
"S#	c #15140B",
"T#	c #15140A",
"U#	c #1A180F",
"V#	c #191710",
"W#	c #4A4945",
"X#	c #7E7C70",
"Y#	c #332F18",
"Z#	c #B0AEA5",
"`#	c #363117",
" $	c #605F50",
".$	c #29291F",
"+$	c #323228",
"@$	c #4F4E42",
"#$	c #212017",
"$$	c #070603",
"%$	c #080805",
"&$	c #0C0C04",
"*$	c #0E0D03",
"=$	c #13130A",
"-$	c #131309",
";$	c #111007",
">$	c #100E05",
",$	c #202019",
"'$	c #646561",
")$	c #54523E",
"!$	c #43402A",
"~$	c #C9C8C1",
"{$	c #373316",
"]$	c #615E4A",
"^$	c #33322A",
"/$	c #1A190C",
"($	c #28271C",
"_$	c #060501",
":$	c #070802",
"<$	c #0B0C03",
"[$	c #14150B",
"}$	c #0B0B03",
"|$	c #101005",
"1$	c #15150A",
"2$	c #17180D",
"3$	c #0F0E04",
"4$	c #32332F",
"5$	c #908E87",
"6$	c #3F3B25",
"7$	c #524E39",
"8$	c #F8F8F7",
"9$	c #373418",
"0$	c #444028",
"a$	c #8E8C80",
"b$	c #43443B",
"c$	c #070801",
"d$	c #090801",
"e$	c #0F0D04",
"f$	c #24231D",
"g$	c #6B6B6A",
"h$	c #797768",
"i$	c #332F16",
"j$	c #908E82",
"k$	c #3F3A23",
"l$	c #423F27",
"m$	c #9A988B",
"n$	c #717268",
"o$	c #121309",
"p$	c #0D0C05",
"q$	c #111108",
"r$	c #0F0E06",
"s$	c #0D0D06",
"t$	c #110F07",
"u$	c #23221C",
"v$	c #575858",
"w$	c #9D9B93",
"x$	c #3B3822",
"y$	c #4A4733",
"z$	c #FEFEFE",
"A$	c #3F3C23",
"B$	c #706D5A",
"C$	c #8D8D83",
"D$	c #45463A",
"E$	c #141506",
"F$	c #505146",
"G$	c #1E1E17",
"H$	c #0F0E08",
"I$	c #101008",
"J$	c #0D0C04",
"K$	c #0E0D06",
"L$	c #111109",
"M$	c #22221B",
"N$	c #383832",
"O$	c #7C7C79",
"P$	c #9F9E95",
"Q$	c #4D4934",
"R$	c #A8A69D",
"S$	c #46432C",
"T$	c #55513C",
"U$	c #A19F92",
"V$	c #A2A297",
"W$	c #A7A59D",
"X$	c #2A2A22",
"Y$	c #47483D",
"Z$	c #616258",
"`$	c #45453B",
" %	c #323229",
".%	c #1D1D14",
"+%	c #383931",
"@%	c #4C4C45",
"#%	c #9F9F9A",
"$%	c #B3B1A7",
"%%	c #817F70",
"&%	c #39361F",
"*%	c #9F9E94",
"=%	c #3B381E",
"-%	c #49452A",
";%	c #474533",
">%	c #8A8981",
",%	c #8E8E88",
"'%	c #ADACA3",
")%	c #5E5A46",
"!%	c #828070",
"~%	c #A7A79F",
"{%	c #999A92",
"]%	c #989891",
"^%	c #A3A39D",
"/%	c #9F9F99",
"(%	c #94958E",
"_%	c #A9AAA6",
":%	c #8D8B80",
"<%	c #52503A",
"[%	c #3D3A23",
"}%	c #2D2A11",
"|%	c #A2A095",
"1%	c #858377",
"2%	c #65624E",
"3%	c #2E2A13",
"4%	c #302D12",
"5%	c #3F3B22",
"6%	c #363319",
"7%	c #2C280D",
"8%	c #2A270B",
"9%	c #2D290D",
"0%	c #312D10",
"a%	c #39361B",
"b%	c #4F4C33",
"c%	c #7A7866",
"d%	c #D4D2CE",
"e%	c #999889",
"f%	c #9D9B8D",
"g%	c #AEADA1",
"h%	c #A09E92",
"i%	c #959384",
"j%	c #919080",
"k%	c #949283",
"l%	c #959385",
"m%	c #989687",
"n%	c #9A9889",
"o%	c #9F9D8F",
"p%	c #D1D0CA",
"                                                                                ",
"                                                                                ",
"                                  . + @ # $ % & * = - ; >                       ",
"                        , ' ) ! ~ { { ] ^ / ( _ : < [ } | 1                     ",
"                      2 3 4 5 5 5 5 5 5 5 5 5 5 5 5 5 6 7 8 9                   ",
"                    0 a b 5 5 5 6 c 6 6 5 5 5 6 6 d 6 6 ] e f g                 ",
"                  h i 5 5 j k 6 6 c b l m 6 6 5 5 5 5 5 5 n o p q               ",
"                r s 5 5 5 b t u v w x y b z A B j d 5 6 5 C D E F G             ",
"              H I C 5 l J K J ( L ( L { _ _ : M N O l P k 6 5 Q R S             ",
"              T U 5 m V W X W V W Y Z `  ...+.@.#.$.%.&.$.*.=.-.;.p             ",
"            >.,.5 '.).!.~.{.].^./.(._.:.<.[.[.}.<.|.^.1.2.3.4.5.6.7.8.          ",
"            9.0.5 a.b.c.d.e.A f.f.g.h.i.j.k.l.m.n.o.p.q.r.s.t.m.u.v.w.          ",
"            x.y.5 5 c z.5 5 C t L A.B.C.D.E.F.G.H.I.J.I.K.L.M.N.O.P.Q.          ",
"            R.S.5 C U 5 5 5 5 J T.U.V.W.X.Y.Z.`. +.+++@+5 0.#+$+%+&+*+=+        ",
"          -+;+>+U @+6 k k k ,+'+)+!+~+{+]+^+/+(+_+:+y 6 6 6 <+6 [+}+|+1+        ",
"          2+3+4+5 k 5 k U 5+6+7+8+9+0+a+b+b+c+d+e+f+y @+g+w h+i+j+k+l+m+        ",
"          n+o+p+q+v r+k 6 k s+t+e+u+v+b+      w+x+y+g+z+x L A+B+C+D+E+F+        ",
"          G+H+I+w w w g+u y J+K+L+b+b+        M+N+O+x w P+Q+R+S+T+U+V+W+        ",
"          X+Y+( z+k 6 k k Z+`+ @.@b+            +@@@Z+#@$@:.%@&@*@=@-@;@        ",
"          >@,@J y @+6 6 6 j '@)@!@              ~@{@x b v ]@^@/@(@_@:@<@        ",
"          [@}@J c k 6 5 d d |@1@2@              @ 3@4@z+#@` 5@B+6@7@8@9@        ",
"          0@a@#@y k m 5 d b@c@d@e@              f@g@4@y y h@i@j@k@l@m@n@        ",
"          o@p@q@g+k 5 6 y v r@; s@              t@u@x v w x 4@@+U v@w@x@y@      ",
"          z@A@B@g+g+c b b C@D@E@F@              G@H@k U b J w I@@+J@K@L@M@      ",
"          N@O@P@g+Q@#@g+k U R@S@T@              U@V@k y 6 k t v x S+W@X@Y@      ",
"          Z@`@ #4@.#t k 6 C +#@###$#            %#&#y b b x w #@#@*#=#-#;#      ",
"          >#,#1.'#b 6 6 5 U )#!#~#{#]#        ^#/#(#g+w J #@#@_#:#I+=#+@<#      ",
"          [#}#q.P+x k 6 U k k |#/#1#2#3#4#5#6#7#0.z+J $@8#{ 9#0#0#^.a#b#c#      ",
"          -+2+d#e.z+U 6 k k y z+t e#f#m 6 6 6 5 5 g#h#i#j#p.k#l#m#n#o#p#q#      ",
"            r#s#I@z+t#J { _ ] u#v#w#a.5 5 5 z+L x#y#z#A#(.B#B#(.^.C#D#h E#      ",
"            F#G#H#I#/.J#K#L#M#N#O#5 5 5 5 5 5 5 5 P#Q#l.R#S#T#U#V#W#X#Y#Z#      ",
"            `# $.$+$@$#$] i+5 5 6 c $$( v w x c %$&$*$=$-$5@;$>$,$'$)$!$~$      ",
"            {$]$^$b /$($^ 5 k _$w P+K P+:$.#P+<$[$K.}$|$1$2$3$I.4$5$6$7$8$      ",
"            9$0$a$b$c$5 l b x J t#K './@L K `  #N.i@$+$+d$I.e$f$g$h$i$j$b+      ",
"              k$l$m$n$o$k g+K S+J { p$S+S+S+=$q$}$i.r$s$d$t$u$v$w$x$y$z$        ",
"                !$A$B$C$D$E$F$G$( H$I$$@Q+ .f.J$J$K$i.L$M$N$O$P$Q$}#R$b+        ",
"                  S$9@T$U$V$W$X$).Y$Z$`$ %).k#z#.%[.+%@%#%$%%%&%& *%b+b+        ",
"                      K+=%-%;%>%,%'%)%!%~%{%]%^%/%(%_%:%<%[%}%_+|%b+            ",
"                        1%2%3%4%>.3#5%6%7%8%9%9@-#0%2+a%b%c%d%b+b+              ",
"                                e%f%g%h%i%j%k%e%l%m%n%o%p%b+b+                  "};
