/* XPM */
static char * 1_xpm[] = {
"40 40 405 2",
"  	c None",
". 	c #3A3719",
"+ 	c #3F3B1E",
"@ 	c #3B3718",
"# 	c #3E3B20",
"$ 	c #3B3822",
"% 	c #312D14",
"& 	c #29250D",
"* 	c #343119",
"= 	c #3D3A1B",
"- 	c #433F22",
"; 	c #3E3A1C",
"> 	c #302B0B",
", 	c #242005",
"' 	c #120E05",
") 	c #0A0905",
"! 	c #0A0904",
"~ 	c #0B0A05",
"{ 	c #201B06",
"] 	c #171207",
"^ 	c #0A0A05",
"/ 	c #0B0A03",
"( 	c #2C2811",
"_ 	c #423E26",
": 	c #38361C",
"< 	c #1F1C06",
"[ 	c #000000",
"} 	c #010100",
"| 	c #171713",
"1 	c #403F28",
"2 	c #494733",
"3 	c #3B371C",
"4 	c #050300",
"5 	c #030000",
"6 	c #14130E",
"7 	c #0D0C04",
"8 	c #111007",
"9 	c #12120B",
"0 	c #121209",
"a 	c #0B0A01",
"b 	c #111008",
"c 	c #1B1A12",
"d 	c #21221B",
"e 	c #1D1D15",
"f 	c #46463F",
"g 	c #565443",
"h 	c #4F4B38",
"i 	c #2F2D11",
"j 	c #2C270C",
"k 	c #060400",
"l 	c #212119",
"m 	c #14130A",
"n 	c #101007",
"o 	c #15140A",
"p 	c #14140A",
"q 	c #0F0F05",
"r 	c #0D0C07",
"s 	c #2C2B24",
"t 	c #2D2C20",
"u 	c #393831",
"v 	c #413F30",
"w 	c #565240",
"x 	c #353012",
"y 	c #020100",
"z 	c #0F0E03",
"A 	c #060501",
"B 	c #23221D",
"C 	c #13120B",
"D 	c #111006",
"E 	c #121105",
"F 	c #040300",
"G 	c #020101",
"H 	c #070603",
"I 	c #1B1B17",
"J 	c #4E4939",
"K 	c #575041",
"L 	c #332E15",
"M 	c #2B2610",
"N 	c #1A1803",
"O 	c #050502",
"P 	c #0A0903",
"Q 	c #2A2922",
"R 	c #121109",
"S 	c #070702",
"T 	c #020200",
"U 	c #1D1D17",
"V 	c #443F2E",
"W 	c #4D4838",
"X 	c #2D290E",
"Y 	c #1C1A0A",
"Z 	c #1B1907",
"` 	c #0A0A03",
" .	c #2C2C22",
"..	c #080600",
"+.	c #030200",
"@.	c #040400",
"#.	c #222218",
"$.	c #403B2C",
"%.	c #494435",
"&.	c #373416",
"*.	c #171203",
"=.	c #0B0B03",
"-.	c #1F1D0F",
";.	c #030300",
">.	c #050501",
",.	c #040501",
"'.	c #050500",
").	c #24251A",
"!.	c #433F30",
"~.	c #454133",
"{.	c #2F2D15",
"].	c #090802",
"^.	c #0E0E07",
"/.	c #232114",
"(.	c #040500",
"_.	c #060601",
":.	c #070701",
"<.	c #070802",
"[.	c #080802",
"}.	c #313324",
"|.	c #3C3728",
"1.	c #413D2E",
"2.	c #332F15",
"3.	c #0A0A04",
"4.	c #131100",
"5.	c #000100",
"6.	c #030301",
"7.	c #1E1E19",
"8.	c #2A291C",
"9.	c #17180F",
"0.	c #0E1006",
"a.	c #0E0F03",
"b.	c #121107",
"c.	c #0F0F08",
"d.	c #101109",
"e.	c #0E0E08",
"f.	c #11110A",
"g.	c #12130A",
"h.	c #3B3C31",
"i.	c #413D29",
"j.	c #4A4736",
"k.	c #403C20",
"l.	c #544F34",
"m.	c #4E4F4C",
"n.	c #242522",
"o.	c #070704",
"p.	c #1F1F1A",
"q.	c #1D1C12",
"r.	c #201F16",
"s.	c #232319",
"t.	c #232519",
"u.	c #29281F",
"v.	c #201E18",
"w.	c #1F1F18",
"x.	c #1E1D16",
"y.	c #212018",
"z.	c #25241C",
"A.	c #56564F",
"B.	c #44402A",
"C.	c #504D39",
"D.	c #39351D",
"E.	c #39361B",
"F.	c #6F6C5A",
"G.	c #CDCCCA",
"H.	c #656662",
"I.	c #2D2E27",
"J.	c #16150B",
"K.	c #100E04",
"L.	c #141309",
"M.	c #18170C",
"N.	c #16130A",
"O.	c #14130B",
"P.	c #15150E",
"Q.	c #191810",
"R.	c #16150C",
"S.	c #15140B",
"T.	c #4D4D46",
"U.	c #484530",
"V.	c #585541",
"W.	c #343017",
"X.	c #37341D",
"Y.	c #403D24",
"Z.	c #6E6C5A",
"`.	c #44433A",
" +	c #1E1E14",
".+	c #080701",
"++	c #3F3F37",
"@+	c #46422C",
"#+	c #54513D",
"$+	c #3C381D",
"%+	c #4B472F",
"&+	c #575444",
"*+	c #1A190F",
"=+	c #100E03",
"-+	c #0C0B02",
";+	c #090701",
">+	c #2E2F24",
",+	c #42402A",
"'+	c #55513E",
")+	c #444128",
"!+	c #3D3922",
"~+	c #1A180F",
"{+	c #141208",
"]+	c #0F0E05",
"^+	c #010000",
"/+	c #2B2B1F",
"(+	c #43402A",
"_+	c #575440",
":+	c #3E3A21",
"<+	c #2D2910",
"[+	c #0B0903",
"}+	c #131108",
"|+	c #090801",
"1+	c #24251B",
"2+	c #43412A",
"3+	c #3E3A20",
"4+	c #393418",
"5+	c #0C0B07",
"6+	c #0B0A04",
"7+	c #26271D",
"8+	c #494630",
"9+	c #54503C",
"0+	c #3D3A20",
"a+	c #39361A",
"b+	c #12110D",
"c+	c #070601",
"d+	c #151309",
"e+	c #1E1E16",
"f+	c #151510",
"g+	c #080804",
"h+	c #26271E",
"i+	c #403B25",
"j+	c #4F4C36",
"k+	c #373418",
"l+	c #3D3B1F",
"m+	c #161610",
"n+	c #050400",
"o+	c #110F05",
"p+	c #222118",
"q+	c #16150F",
"r+	c #090804",
"s+	c #040401",
"t+	c #050401",
"u+	c #1E1E1C",
"v+	c #403C26",
"w+	c #585540",
"x+	c #3A3619",
"y+	c #373318",
"z+	c #1C1C14",
"A+	c #0C0A00",
"B+	c #1A1910",
"C+	c #0C0D07",
"D+	c #1D1F1C",
"E+	c #514D36",
"F+	c #565442",
"G+	c #423F23",
"H+	c #47432A",
"I+	c #37362C",
"J+	c #0A0800",
"K+	c #080803",
"L+	c #090904",
"M+	c #25271D",
"N+	c #4F4B36",
"O+	c #5B5743",
"P+	c #322E11",
"Q+	c #060602",
"R+	c #0B0902",
"S+	c #14140B",
"T+	c #11110B",
"U+	c #0D0D06",
"V+	c #090803",
"W+	c #35362C",
"X+	c #4B4832",
"Y+	c #5C5944",
"Z+	c #332F12",
"`+	c #413F2D",
" @	c #19180D",
".@	c #1B1B12",
"+@	c #14140D",
"@@	c #101009",
"#@	c #3C3E35",
"$@	c #44412C",
"%@	c #5A5642",
"&@	c #343013",
"*@	c #454331",
"=@	c #070602",
"-@	c #0E0D07",
";@	c #18180F",
">@	c #111109",
",@	c #3F4038",
"'@	c #4E4B36",
")@	c #5E5A46",
"!@	c #343014",
"~@	c #44412F",
"{@	c #18170F",
"]@	c #44443D",
"^@	c #48452D",
"/@	c #57543D",
"(@	c #373316",
"_@	c #454232",
":@	c #18160E",
"<@	c #515146",
"[@	c #909088",
"}@	c #534E33",
"|@	c #59563F",
"1@	c #332F13",
"2@	c #4B4938",
"3@	c #060701",
"4@	c #080702",
"5@	c #110F07",
"6@	c #19170A",
"7@	c #3C3819",
"8@	c #4C482C",
"9@	c #28240F",
"0@	c #3E3B2E",
"a@	c #0C0C06",
"b@	c #040301",
"c@	c #0D0C05",
"d@	c #100F05",
"e@	c #2D2C23",
"f@	c #64604C",
"g@	c #494528",
"h@	c #AAA79C",
"i@	c #312F15",
"j@	c #464432",
"k@	c #12110A",
"l@	c #100F08",
"m@	c #201F15",
"n@	c #69685A",
"o@	c #55523B",
"p@	c #4C4938",
"q@	c #201E13",
"r@	c #010200",
"s@	c #343327",
"t@	c #413C21",
"u@	c #403B22",
"v@	c #A6A69D",
"w@	c #070703",
"x@	c #0B0B04",
"y@	c #656251",
"z@	c #403C23",
"A@	c #A8A79D",
"B@	c #322F14",
"C@	c #4F4D3A",
"D@	c #060502",
"E@	c #26261E",
"F@	c #353632",
"G@	c #9E9C91",
"H@	c #3F3B23",
"I@	c #ACABA3",
"J@	c #312E13",
"K@	c #484631",
"L@	c #0C0B05",
"M@	c #15150D",
"N@	c #1B1C13",
"O@	c #55564D",
"P@	c #878780",
"Q@	c #A8A79E",
"R@	c #5B5641",
"S@	c #BEBDB7",
"T@	c #353218",
"U@	c #5E5D4A",
"V@	c #24241C",
"W@	c #12120A",
"X@	c #1D1D13",
"Y@	c #2B2B1E",
"Z@	c #37382B",
"`@	c #717168",
" #	c #ABABA6",
".#	c #BCBAB1",
"+#	c #9E9C90",
"@#	c #5C5943",
"##	c #3E3B21",
"$#	c #ADACA2",
"%#	c #FFFFFF",
"&#	c #3D3A23",
"*#	c #53503C",
"=#	c #919188",
"-#	c #86867E",
";#	c #8A8B83",
">#	c #A1A29B",
",#	c #BCBCB7",
"'#	c #8B8A7C",
")#	c #595740",
"!#	c #4E4B34",
"~#	c #403C21",
"{#	c #5F5B47",
"]#	c #8E8C7C",
"^#	c #B8B6AE",
"/#	c #FBFBFA",
"(#	c #312C15",
"_#	c #322E16",
":#	c #36331B",
"<#	c #322F17",
"[#	c #3B371B",
"}#	c #54503A",
"|#	c #63614B",
"1#	c #949387",
"2#	c #E1E1DE",
"3#	c #A6A498",
"4#	c #A5A499",
"5#	c #AFADA2",
"6#	c #BCBBB4",
"7#	c #E4E4E1",
"8#	c #FEFEFE",
"                                                                                ",
"                                                                                ",
"                                        . + @ # $ % & *                         ",
"                            = - ; > , ' ) ! ~ { ] ^ / ( _                       ",
"                          : < [ [ [ [ [ [ [ } [ [ [ | 1 2                       ",
"                          3 4 5 6 7 8 9 0 a b c d e f g h                       ",
"                        i j k } l m n n o p q r s t u v w                       ",
"                        x y z A B C D 8 E F [ [ G H I J K                       ",
"                      L M N O P Q R S F [ [ } } T y U V W                       ",
"                      X Y Z } `  ...[ [ [ } +.@.@.+.#.$.%.                      ",
"                      &.*.@.T =.-.y } ;.;.>.,.'.'.@.).!.~.                      ",
"                      {.].[ ;.^./.P @.(.>._.S :.<.[.}.|.1.                      ",
"                    2.3.4.5.6.7.8.9.0.a.b.c.d.e.f.g.h.i.j.                      ",
"                    k.l.m.n.o.p.q.r.s.t.u.v.w.x.y.z.A.B.C.                      ",
"                    D.E.F.G.H.I.J.K.L.M.N.O.P.Q.R.S.T.U.V.                      ",
"                      W.X.Y.Z.`. +S.7 .+y [ ;.+.[ } ++@+#+                      ",
"                          $+%+&+*+=+-+;+y [ y [ [ [ >+,+'+                      ",
"                            )+!+~+{+0 ]++.^+T } T T /+(+_+                      ",
"                            :+<+[+}+8 |+;.} } } ;.;.1+2+#+                      ",
"                            3+4+5+D L.6+A >.;.;.T ;.7+8+9+                      ",
"                            0+a+b+c+d+e+f+g+>.T T T h+i+j+                      ",
"                            k+l+m+} n+o+p+q+r+s+t+T u+v+w+                      ",
"                            x+y+z+>.T S A+B+C+S ,.@.D+E+F+                      ",
"                            G+H+I+e.T 6.J+E O.K+L+>.M+N+O+                      ",
"                            P+[ [ Q+_.} '.R+S+T+U+V+W+X+Y+                      ",
"                            Z+`+S :.S ;.;.!  @.@+@@@#@$@%@                      ",
"                            &@*@S _.=@_.;.t+-@m ;@>@,@'@)@                      ",
"                            !@~@>._.S S >.T 3.b.L.{@]@^@/@                      ",
"                            (@_@_.S [.S S @.@.P :@<@[@}@|@                      ",
"                            1@2@3@[.4@@._.>.@.L+5@F 6@7@8@                      ",
"                            9@0@_.a@^ b@_._.@.>.c@d@e@f@g@h@                    ",
"                            i@j@a@r.k@>._.S @.s+~ l@m@n@x+o@                    ",
"                            W.p@U+q@G s+4@^ 4@r@[.R J.s@t@u@v@                  ",
"                            y+p@w@[ +.>.A P A T =@x@l@T+y@z@A@                  ",
"                            B@C@6+c+S D@>.V+4@T s+V+E@F@G@H@I@                  ",
"                            J@K@a@S =@Q+_.L@M@3.N@O@P@Q@R@y+S@                  ",
"                            T@U@V@e.W@X@Y@Z@`@ #.#+#@#:+##$#%#                  ",
"                            &#*#=#-#;#>#,#'#)#!#~#a+{#]#^#/#                    ",
"                              (#_#:#<#<#[#D.}#|#1#2#%#%#                        ",
"                                    3#4#5#6#7#8#                                "};
