/* XPM */
static char * 2_xpm[] = {
"40 40 663 2",
"  	c None",
". 	c #312E1C",
"+ 	c #35321E",
"@ 	c #333019",
"# 	c #322F16",
"$ 	c #302D14",
"% 	c #2E2A11",
"& 	c #2E2B12",
"* 	c #2C2910",
"= 	c #29260F",
"- 	c #2D2B15",
"; 	c #302D17",
"> 	c #2D2A14",
", 	c #322F19",
"' 	c #211D09",
") 	c #2B2711",
"! 	c #363319",
"~ 	c #3C3920",
"{ 	c #37331B",
"] 	c #302E17",
"^ 	c #35321B",
"/ 	c #121106",
"( 	c #080804",
"_ 	c #090905",
": 	c #090804",
"< 	c #080703",
"[ 	c #080704",
"} 	c #0D0C05",
"| 	c #1A1704",
"1 	c #2C2810",
"2 	c #474330",
"3 	c #353218",
"4 	c #343017",
"5 	c #201C09",
"6 	c #1C190A",
"7 	c #201F10",
"8 	c #171508",
"9 	c #050501",
"0 	c #000000",
"a 	c #030300",
"b 	c #110F02",
"c 	c #24200B",
"d 	c #333018",
"e 	c #47442E",
"f 	c #363217",
"g 	c #322D13",
"h 	c #110F07",
"i 	c #010101",
"j 	c #020200",
"k 	c #080803",
"l 	c #080802",
"m 	c #040400",
"n 	c #020201",
"o 	c #010100",
"p 	c #030301",
"q 	c #1D1B0F",
"r 	c #2A260E",
"s 	c #363118",
"t 	c #373318",
"u 	c #15140A",
"v 	c #030302",
"w 	c #020100",
"x 	c #040300",
"y 	c #040401",
"z 	c #090903",
"A 	c #070601",
"B 	c #010200",
"C 	c #040402",
"D 	c #0C0C09",
"E 	c #2C2A1C",
"F 	c #353118",
"G 	c #363316",
"H 	c #312E13",
"I 	c #363218",
"J 	c #1A190D",
"K 	c #0E0D06",
"L 	c #080702",
"M 	c #030200",
"N 	c #040301",
"O 	c #070702",
"P 	c #070803",
"Q 	c #040501",
"R 	c #040500",
"S 	c #060602",
"T 	c #0E0E08",
"U 	c #292715",
"V 	c #333015",
"W 	c #3A361C",
"X 	c #2E2A0F",
"Y 	c #39361E",
"Z 	c #1B1910",
"` 	c #060502",
" .	c #090904",
"..	c #090803",
"+.	c #2F2F26",
"@.	c #1A1A14",
"#.	c #0A0A05",
"$.	c #0B0B05",
"%.	c #0A0A04",
"&.	c #14140A",
"*.	c #211F0A",
"=.	c #2C280D",
"-.	c #383419",
";.	c #2A2717",
">.	c #272515",
",.	c #0F0E08",
"'.	c #060501",
").	c #0B0A05",
"!.	c #0C0B06",
"~.	c #0E0D07",
"{.	c #202019",
"].	c #47463C",
"^.	c #23231C",
"/.	c #12120B",
"(.	c #13130C",
"_.	c #14140D",
":.	c #101009",
"<.	c #14130A",
"[.	c #24210C",
"}.	c #312E12",
"|.	c #3B371D",
"1.	c #3B3821",
"2.	c #43402B",
"3.	c #1D1B13",
"4.	c #010000",
"5.	c #10100A",
"6.	c #14130C",
"7.	c #17160E",
"8.	c #2D2C24",
"9.	c #333124",
"0.	c #1D1B12",
"a.	c #18170E",
"b.	c #1B1A11",
"c.	c #191910",
"d.	c #17170E",
"e.	c #18180E",
"f.	c #16150C",
"g.	c #252418",
"h.	c #332E14",
"i.	c #413D25",
"j.	c #34311A",
"k.	c #403D28",
"l.	c #23221A",
"m.	c #060605",
"n.	c #020202",
"o.	c #040404",
"p.	c #070707",
"q.	c #090807",
"r.	c #0F0F0B",
"s.	c #171711",
"t.	c #212119",
"u.	c #2E2E25",
"v.	c #3C3C33",
"w.	c #53534B",
"x.	c #64635A",
"y.	c #494940",
"z.	c #292920",
"A.	c #101007",
"B.	c #0F0E06",
"C.	c #0C0B03",
"D.	c #0B0A02",
"E.	c #0F0E05",
"F.	c #2F2E1F",
"G.	c #433F27",
"H.	c #2F2C15",
"I.	c #39361F",
"J.	c #27261C",
"K.	c #090908",
"L.	c #040403",
"M.	c #0B0B09",
"N.	c #2F2F2E",
"O.	c #5B5B5A",
"P.	c #747473",
"Q.	c #787875",
"R.	c #7E7E79",
"S.	c #8B8A83",
"T.	c #95958D",
"U.	c #9F9F97",
"V.	c #AAAAA1",
"W.	c #A8A79B",
"X.	c #8E8D7D",
"Y.	c #929183",
"Z.	c #646257",
"`.	c #1E1D16",
" +	c #050401",
".+	c #080701",
"++	c #0C0B02",
"@+	c #2B2A21",
"#+	c #373418",
"$+	c #43401E",
"%+	c #302C16",
"&+	c #322E16",
"*+	c #29271B",
"=+	c #0E0D0A",
"-+	c #070704",
";+	c #151613",
">+	c #2E2F2D",
",+	c #636361",
"'+	c #96958E",
")+	c #8A887A",
"!+	c #797666",
"~+	c #595643",
"{+	c #403D27",
"]+	c #403D26",
"^+	c #434029",
"/+	c #38361A",
"(+	c #38351A",
"_+	c #474427",
":+	c #46432C",
"<+	c #413F29",
"[+	c #34321D",
"}+	c #3C3928",
"|+	c #15140E",
"1+	c #12110E",
"2+	c #545345",
"3+	c #524F2F",
"4+	c #7F7C66",
"5+	c #2C280E",
"6+	c #2F2D1E",
"7+	c #212218",
"8+	c #54554D",
"9+	c #979792",
"0+	c #8E8C80",
"a+	c #534F3A",
"b+	c #44412A",
"c+	c #3E3A23",
"d+	c #494430",
"e+	c #696554",
"f+	c #868475",
"g+	c #8A897D",
"h+	c #8C8A7E",
"i+	c #88867A",
"j+	c #89877A",
"k+	c #929184",
"l+	c #99988C",
"m+	c #807D6F",
"n+	c #3E3B25",
"o+	c #3E3A26",
"p+	c #15140F",
"q+	c #56554E",
"r+	c #4B472E",
"s+	c #696753",
"t+	c #47432E",
"u+	c #69685A",
"v+	c #98978D",
"w+	c #7A7767",
"x+	c #4E4935",
"y+	c #423D28",
"z+	c #514E39",
"A+	c #615E4D",
"B+	c #646150",
"C+	c #53503D",
"D+	c #3E3A25",
"E+	c #302C15",
"F+	c #1E1B0B",
"G+	c #19170A",
"H+	c #151307",
"I+	c #171507",
"J+	c #24210E",
"K+	c #27240E",
"L+	c #2B2813",
"M+	c #1B190A",
"N+	c #1C1A0D",
"O+	c #0A0905",
"P+	c #030100",
"Q+	c #060401",
"R+	c #514F4B",
"S+	c #63614D",
"T+	c #7A7967",
"U+	c #3B3722",
"V+	c #3D3922",
"W+	c #37341B",
"X+	c #343118",
"Y+	c #5A5745",
"Z+	c #9D9B91",
"`+	c #747263",
" @	c #3B3822",
".@	c #2F2B14",
"+@	c #1A1508",
"@@	c #060402",
"#@	c #070603",
"$@	c #605E5B",
"%@	c #696651",
"&@	c #7B7A68",
"*@	c #B0B0A7",
"=@	c #878577",
"-@	c #9F9E92",
";@	c #5D5A47",
">@	c #322F1A",
",@	c #151306",
"'@	c #181816",
")@	c #747371",
"!@	c #57543C",
"~@	c #858371",
"{@	c #DADAD5",
"]@	c #48452F",
"^@	c #25220F",
"/@	c #070602",
"(@	c #060601",
"_@	c #050500",
":@	c #363633",
"<@	c #747365",
"[@	c #5C5941",
"}@	c #969484",
"|@	c #413E24",
"1@	c #211E10",
"2@	c #030401",
"3@	c #050601",
"4@	c #000100",
"5@	c #181714",
"6@	c #6E6D69",
"7@	c #5E5B42",
"8@	c #5A573F",
"9@	c #A4A396",
"0@	c #3A361B",
"a@	c #28240F",
"b@	c #070701",
"c@	c #11110B",
"d@	c #5D5D58",
"e@	c #797667",
"f@	c #4F4A2F",
"g@	c #7E7B69",
"h@	c #CDCCC7",
"i@	c #373317",
"j@	c #131207",
"k@	c #020300",
"l@	c #060500",
"m@	c #050400",
"n@	c #020301",
"o@	c #060603",
"p@	c #151510",
"q@	c #5A5A56",
"r@	c #7C7B6F",
"s@	c #4C4834",
"t@	c #6D6A58",
"u@	c #BEBCB2",
"v@	c #222009",
"w@	c #0B0901",
"x@	c #080805",
"y@	c #0A0A07",
"z@	c #0C0B08",
"A@	c #131210",
"B@	c #1D1C19",
"C@	c #2A2A26",
"D@	c #3F3F39",
"E@	c #7C7C75",
"F@	c #7C7A6C",
"G@	c #494531",
"H@	c #5A5744",
"I@	c #A8A79C",
"J@	c #F6F6F4",
"K@	c #413C1C",
"L@	c #131209",
"M@	c #070802",
"N@	c #111208",
"O@	c #161709",
"P@	c #18180A",
"Q@	c #252618",
"R@	c #44443B",
"S@	c #666660",
"T@	c #81807B",
"U@	c #8C8C86",
"V@	c #969691",
"W@	c #A5A49F",
"X@	c #A6A49C",
"Y@	c #757262",
"Z@	c #484530",
"`@	c #38351E",
" #	c #625F4C",
".#	c #ABA99F",
"+#	c #DCDBD5",
"@#	c #302D18",
"##	c #211F0F",
"$#	c #1C1A08",
"%#	c #16170F",
"&#	c #5E5F55",
"*#	c #95958C",
"=#	c #98978B",
"-#	c #848272",
";#	c #787563",
">#	c #6F6C5A",
",#	c #64614E",
"'#	c #4C4934",
")#	c #3A361E",
"!#	c #36321A",
"~#	c #36331B",
"{#	c #312D14",
"]#	c #2D2912",
"^#	c #454230",
"/#	c #585648",
"(#	c #62604F",
"_#	c #58553D",
":#	c #282611",
"<#	c #27240F",
"[#	c #1D1B0B",
"}#	c #303128",
"|#	c #717167",
"1#	c #494633",
"2#	c #33301B",
"3#	c #322F18",
"4#	c #35311A",
"5#	c #35321C",
"6#	c #312E17",
"7#	c #2C2913",
"8#	c #161306",
"9#	c #191605",
"0#	c #343015",
"a#	c #403C23",
"b#	c #2D2A17",
"c#	c #24210D",
"d#	c #0F0E04",
"e#	c #060701",
"f#	c #030400",
"g#	c #090906",
"h#	c #221F0F",
"i#	c #47442C",
"j#	c #302C18",
"k#	c #1E1A0E",
"l#	c #0C0903",
"m#	c #0B0904",
"n#	c #0A0803",
"o#	c #080700",
"p#	c #0C0D06",
"q#	c #0F0F07",
"r#	c #0E0E07",
"s#	c #3F3E33",
"t#	c #413E27",
"u#	c #413E25",
"v#	c #323019",
"w#	c #292610",
"x#	c #141207",
"y#	c #121109",
"z#	c #14130B",
"A#	c #050502",
"B#	c #0C0C08",
"C#	c #151410",
"D#	c #1C1C15",
"E#	c #21211A",
"F#	c #25261E",
"G#	c #2A2A22",
"H#	c #2D2D24",
"I#	c #5C5C54",
"J#	c #4C4A31",
"K#	c #444127",
"L#	c #29240D",
"M#	c #201C08",
"N#	c #111004",
"O#	c #121209",
"P#	c #17170D",
"Q#	c #14140B",
"R#	c #090A04",
"S#	c #0D0D07",
"T#	c #11100A",
"U#	c #171710",
"V#	c #201F1A",
"W#	c #252420",
"X#	c #201F19",
"Y#	c #020101",
"Z#	c #0E0D05",
"`#	c #47453D",
" $	c #46442D",
".$	c #63614A",
"+$	c #403C24",
"@$	c #27230C",
"#$	c #211E0C",
"$$	c #1D1C11",
"%$	c #1B1B12",
"&$	c #1A1A11",
"*$	c #18180F",
"=$	c #12120C",
"-$	c #0B0B08",
";$	c #0A0A06",
">$	c #0E0F06",
",$	c #12130A",
"'$	c #181911",
")$	c #1B1C14",
"!$	c #1E1F17",
"~$	c #23231A",
"{$	c #201F17",
"]$	c #100F09",
"^$	c #2E2D29",
"/$	c #312F1E",
"($	c #565342",
"_$	c #3A361A",
":$	c #201C0A",
"<$	c #161406",
"[$	c #141409",
"}$	c #13130B",
"|$	c #13130D",
"1$	c #191914",
"2$	c #1F1E1A",
"3$	c #1F1E19",
"4$	c #1C1C13",
"5$	c #191911",
"6$	c #1A1B14",
"7$	c #16160F",
"8$	c #0D0D06",
"9$	c #0A0A03",
"0$	c #0B0B04",
"a$	c #0B0A04",
"b$	c #080902",
"c$	c #33342C",
"d$	c #38361F",
"e$	c #5D5944",
"f$	c #3E3A1C",
"g$	c #100E02",
"h$	c #030201",
"i$	c #181A0D",
"j$	c #2D2E23",
"k$	c #14140E",
"l$	c #0A0903",
"m$	c #090802",
"n$	c #36362E",
"o$	c #5B5840",
"p$	c #433F20",
"q$	c #312D13",
"r$	c #110F05",
"s$	c #0E0E0A",
"t$	c #1A1A13",
"u$	c #201F16",
"v$	c #0B0A06",
"w$	c #0C0B05",
"x$	c #414138",
"y$	c #3D3A1F",
"z$	c #5B583D",
"A$	c #46432B",
"B$	c #212115",
"C$	c #222319",
"D$	c #313125",
"E$	c #10100C",
"F$	c #050503",
"G$	c #0F1007",
"H$	c #151608",
"I$	c #171808",
"J$	c #131406",
"K$	c #141506",
"L$	c #171908",
"M$	c #141608",
"N$	c #0B0B06",
"O$	c #0C0C05",
"P$	c #16160D",
"Q$	c #47473E",
"R$	c #403D21",
"S$	c #5B583C",
"T$	c #3A3718",
"U$	c #54513A",
"V$	c #47463A",
"W$	c #383732",
"X$	c #0F0F0E",
"Y$	c #28291E",
"Z$	c #3F4035",
"`$	c #4C4D42",
" %	c #6E6E64",
".%	c #94958A",
"+%	c #929285",
"@%	c #7D7A6B",
"#%	c #726F5F",
"$%	c #817F70",
"%%	c #959389",
"&%	c #848379",
"*%	c #5F5F51",
"=%	c #4F5043",
"-%	c #3E3E35",
";%	c #27271F",
">%	c #1D1D14",
",%	c #17170F",
"'%	c #13120A",
")%	c #15150C",
"!%	c #4B4B42",
"~%	c #403D23",
"{%	c #332F10",
"]%	c #4D4A33",
"^%	c #363428",
"/%	c #0F0E0B",
"(%	c #141509",
"_%	c #1A1B0A",
":%	c #353727",
"<%	c #717266",
"[%	c #AFAFA7",
"}%	c #C3C2BA",
"|%	c #A2A196",
"1%	c #38341D",
"2%	c #2E2A13",
"3%	c #2F2C13",
"4%	c #3C391F",
"5%	c #48452B",
"6%	c #757360",
"7%	c #ADAC9F",
"8%	c #BFBEB5",
"9%	c #9B9B94",
"0%	c #616257",
"a%	c #414236",
"b%	c #2C2C21",
"c%	c #1A1911",
"d%	c #24231B",
"e%	c #63625A",
"f%	c #4E4B33",
"g%	c #625F49",
"h%	c #302D16",
"i%	c #494631",
"j%	c #575649",
"k%	c #6B6B62",
"l%	c #8D8E84",
"m%	c #8F8D80",
"n%	c #6D6A56",
"o%	c #605D47",
"p%	c #53503A",
"q%	c #423F27",
"r%	c #45422A",
"s%	c #56543F",
"t%	c #696755",
"u%	c #807E70",
"v%	c #9F9E93",
"w%	c #C3C2BB",
"x%	c #CBCAC5",
"y%	c #B0AFA6",
"z%	c #919083",
"A%	c #7C7A68",
"B%	c #62604C",
"C%	c #4E4B31",
"D%	c #433F22",
"E%	c #434026",
"F%	c #54523C",
"G%	c #696652",
"H%	c #858373",
"I%	c #939287",
"J%	c #7C7C73",
"K%	c #77776D",
"L%	c #868577",
"M%	c #504D35",
"N%	c #6F6B58",
"O%	c #25220E",
"P%	c #2C280F",
"Q%	c #2C280B",
"R%	c #302C10",
"S%	c #39351B",
"T%	c #39361B",
"U%	c #3E3A21",
"V%	c #4C4931",
"W%	c #6E6C5A",
"X%	c #AAA99E",
"Y%	c #E5E4E0",
"Z%	c #FFFFFF",
"`%	c #B9B9B2",
" &	c #757364",
".&	c #504D38",
"+&	c #413D24",
"@&	c #433F24",
"#&	c #504B32",
"$&	c #66624B",
"%&	c #55523A",
"&&	c #47432A",
"*&	c #898676",
"=&	c #878674",
"-&	c #A09E91",
";&	c #C1C0B8",
">&	c #E8E7E3",
",&	c #FDFDFD",
"'&	c #7B7967",
")&	c #767360",
"!&	c #75735F",
"~&	c #A3A396",
"{&	c #DEDDD9",
"                                                                                ",
"                                                                                ",
"                                . + @ # $ % & * = - ; > ,                       ",
"              ' ) ! ~ { ] ^ % / ( _ : < [ [ ( ( < ( } | 1 2                     ",
"          3 4 5 6 7 8 9 0 0 0 0 0 0 0 0 0 0 0 0 0 0 a b c d e                   ",
"        f g h i 0 0 0 0 0 0 0 j k l m j n n o o o 0 0 p q r s                   ",
"        t u v w p w j m x w w y k z A 9 a B n C y a j o D E F G                 ",
"        H I J K L a M w w o o N O z k P O Q R l k S m S 9 T U V W               ",
"        X Y Z ` w o o o o o 0 p O  ...k  . .T +.@.#. .$.%.: &.*.=.-.            ",
"        ;.>.,.n o o 0 o o o 0 w '.).!.!.~.T {.].^./.(._._.(.:.<.[.}.|.          ",
"        1.2.3.C o 0 0 4.o 4.0 o y  .T 5.6.7.8.9.0.a.b.b.c.d.e.f.g., h.i.        ",
"        j.k.l.m.0 0 4.4.4.n.o.p.q.r.s.t.u.v.w.x.y.z.<.A.A.B.C.D.E.F.$ G.        ",
"        H.I.J.K.o n L.m.M.N.O.P.Q.R.S.T.U.V.W.X.Y.Z.`. +N ` p .+++@+#+$+        ",
"        %+&+*+=+-+;+>+,+'+)+!+~+{+]+^+/+(+_+:+<+[+}+|+o 0 0 0 o w 1+2+3+4+      ",
"          5+6+7+8+9+0+a+b+c+d+e+f+g+h+i+j+k+l+m+n+o+p+j o o o 0 0 -+q+r+s+      ",
"          t+u+v+w+x+y+z+A+B+C+D+E+F+G+H+I+J+K+L+M+N+O+j j j w j P+Q+R+S+T+      ",
"          U+V+W+X+Y+Z+`+ @.@+@@@o 0 0 0 0 0 o o 0 0 4.o j j o o j #@$@%@&@*@    ",
"                =@-@;@>@,@x 0 0 4.j j j o o 0 0 0 0 o j m a j a a '@)@!@~@{@    ",
"                  ]@^@l 0 0 0 y /@S (@_@j j j j j o j a m a j a ( :@<@[@}@      ",
"                |@1@/@0 0 o 2@3@'./@(@_@a j o 4@o 0 o j o o o a 5@6@7@8@9@      ",
"              0@a@..0 0 4.o y O b@O (@y m a j 0 4@0 o o o o p c@d@e@f@g@h@      ",
"              i@j@j j k@o o y b@(@l@m@y x j i o o B n@p C o@p@q@r@s@t@u@        ",
"            (+v@w@o 2@a o o p _@9 b@9 (@9 3@o@x@y@z@A@B@C@D@E@F@G@H@I@J@        ",
"            K@L@l@m Q x w j Q M@k %.N@O@P@Q@R@S@T@U@V@W@X@Y@Z@`@ #.#+#          ",
"          @###$#D.a y a o o j y y %#&#*#=#-#;#>#,#'#)#!#~#{#]#^#/#(#_#          ",
"          :#<#[#%._@(@a o o m (@O }#|#1#2#; 3#4#5#@ 6#; 7#8#Q+n n 9#0#a#t+      ",
"          b#c#d#(@(@e#f#B j a x z c.g#0 0 0 0 0 0 0 0 0 0 0 0 0 o o M h#! i#    ",
"          j#k#l#m#).n#` j j y ` z '.j '.'.(@y j a j j _@o#N C k p#q#r#s#t#u#    ",
"          v#w#x#y#z#K '.o o j M x a  +'.m@x 9 y C y A# .B#C#D#E#F#G#H#I#J#K#    ",
"          L#M#N#O#P#Q#R#p o a m a  +/@/@#@k $.S#T#(.U#V#W#X#z@Y#0 M Z#`# $.$    ",
"        +$@$#$$$%$&$*$=$-$-+;$S#>$,$'$)$)$!$~${$*$]$-$g#A#o o y 9 9 j ^$/$($    ",
"        _$:$<$[$}$/.|$1$2$3$`.4$5$6$7$8$9$` o o n L.v j p O 0$a$z b$l c$d$e$    ",
"        f$c g$9 j w 4.o o j h$p o 0 0 4.0 0 p q#i$j$k$l k ..l$m$k  .0$n$~#o$    ",
"        p$q$r$-+s$8$9 x a y j o o j y m a a 9 t$u$v$9 O l 9$w$w$$.S#}$x$y$z$    ",
"        f$A$B$C$D$E$w w w j y F$( G$H$I$J$K$L$M$>$#.#.N$#.8$O$0$r#:.P$Q$R$S$    ",
"        T$U$V$W$X$j f#O 8$}$Y$Z$`$ %.%+%@%#%$%%%&%*%=%-%;%>%,%(.'%y#)%!%~%!@    ",
"        {%]%^%/%;$(%_%:%<%[%}%|% #W $ 4#1%2%3%Y 4%5%6%7%8%9%0%a%b%c%d%e%f%g%    ",
"          h%i%j%k%l%m%n%o%p%q%r%s%t%u%v%w%x%y%z%A%B%C%D%E%F%G%H%I%J%K%L%M%N%    ",
"          O%P%Q%R%S%T%U%V%W%X%Y%Z%Z%Z%                `% &.&+&0@@&#&$&%&&&*&    ",
"                g%=&-&;&>&,&                                    '&;#)&!&~&{&    "};
