/* XPM */
static char * 4_xpm[] = {
"40 40 501 2",
"  	c None",
". 	c #3F3B1D",
"+ 	c #3F3C1E",
"@ 	c #3B3718",
"# 	c #3E3A1E",
"$ 	c #403E23",
"% 	c #343013",
"& 	c #2C280C",
"* 	c #383419",
"= 	c #3F3B21",
"- 	c #3D391D",
"; 	c #403D22",
"> 	c #373217",
", 	c #37341A",
"' 	c #333019",
") 	c #2C280F",
"! 	c #322E12",
"~ 	c #353215",
"{ 	c #3D391C",
"] 	c #39371B",
"^ 	c #3D3A1E",
"/ 	c #3C381D",
"( 	c #373518",
"_ 	c #403C23",
": 	c #4E4B31",
"< 	c #3F3A16",
"[ 	c #0F0E06",
"} 	c #111008",
"| 	c #111009",
"1 	c #11100A",
"2 	c #0F0E08",
"3 	c #0D0C04",
"4 	c #0E0D06",
"5 	c #101009",
"6 	c #0F0E07",
"7 	c #161407",
"8 	c #272205",
"9 	c #35311A",
"0 	c #252311",
"a 	c #000000",
"b 	c #050200",
"c 	c #010100",
"d 	c #3B381C",
"e 	c #4C492E",
"f 	c #0E0906",
"g 	c #030201",
"h 	c #22211B",
"i 	c #312E16",
"j 	c #5D5B48",
"k 	c #38341B",
"l 	c #030300",
"m 	c #030301",
"n 	c #070802",
"o 	c #040400",
"p 	c #020200",
"q 	c #020100",
"r 	c #030302",
"s 	c #898776",
"t 	c #3A371B",
"u 	c #454023",
"v 	c #24210C",
"w 	c #0A0905",
"x 	c #010101",
"y 	c #070706",
"z 	c #31322F",
"A 	c #5F5D4E",
"B 	c #5F5D4B",
"C 	c #332F17",
"D 	c #161309",
"E 	c #070600",
"F 	c #080803",
"G 	c #0A0A03",
"H 	c #070702",
"I 	c #050501",
"J 	c #010200",
"K 	c #090A06",
"L 	c #9D9A8C",
"M 	c #3D391B",
"N 	c #393617",
"O 	c #302E1A",
"P 	c #040402",
"Q 	c #2F2E2C",
"R 	c #1F1E19",
"S 	c #333432",
"T 	c #514F3A",
"U 	c #636250",
"V 	c #2C2812",
"W 	c #040201",
"X 	c #080701",
"Y 	c #070701",
"Z 	c #0B0B05",
"` 	c #090904",
" .	c #181910",
"..	c #999788",
"+.	c #363218",
"@.	c #343015",
"#.	c #2F2C1B",
"$.	c #050601",
"%.	c #060601",
"&.	c #040501",
"*.	c #050503",
"=.	c #070705",
"-.	c #050504",
";.	c #373734",
">.	c #403D23",
",.	c #666350",
"'.	c #2F2B14",
").	c #221E07",
"!.	c #0D0B02",
"~.	c #090802",
"{.	c #0A0A04",
"].	c #080703",
"^.	c #090903",
"/.	c #36362D",
"(.	c #959384",
"_.	c #413E23",
":.	c #3A3616",
"<.	c #2D2B19",
"[.	c #0B0B04",
"}.	c #0B0A05",
"|.	c #0C0C06",
"1.	c #090905",
"2.	c #050502",
"3.	c #42423D",
"4.	c #39351E",
"5.	c #696755",
"6.	c #2A2810",
"7.	c #0A0700",
"8.	c #0D0D06",
"9.	c #0D0D07",
"0.	c #111109",
"a.	c #4F4F46",
"b.	c #777665",
"c.	c #4B482F",
"d.	c #34310F",
"e.	c #2B2818",
"f.	c #0E0D07",
"g.	c #12120B",
"h.	c #14140C",
"i.	c #11110A",
"j.	c #15150E",
"k.	c #11110B",
"l.	c #52524A",
"m.	c #333017",
"n.	c #666451",
"o.	c #2B280F",
"p.	c #292510",
"q.	c #0F0D01",
"r.	c #040401",
"s.	c #090803",
"t.	c #0F0F07",
"u.	c #101008",
"v.	c #15140C",
"w.	c #1C1C12",
"x.	c #6E6E66",
"y.	c #64614C",
"z.	c #4C492B",
"A.	c #403C19",
"B.	c #272515",
"C.	c #16160D",
"D.	c #1D1C11",
"E.	c #1C1B12",
"F.	c #1C1C11",
"G.	c #1C1B11",
"H.	c #17160F",
"I.	c #13120C",
"J.	c #15140D",
"K.	c #5D5E54",
"L.	c #312D16",
"M.	c #676553",
"N.	c #2C280E",
"O.	c #15140A",
"P.	c #191808",
"Q.	c #060602",
"R.	c #0A0903",
"S.	c #060500",
"T.	c #18170E",
"U.	c #7D7C74",
"V.	c #4C482C",
"W.	c #3E3A1A",
"X.	c #3D3A18",
"Y.	c #1F1E0D",
"Z.	c #14140A",
"`.	c #100F06",
" +	c #121107",
".+	c #111006",
"++	c #16150A",
"@+	c #13120A",
"#+	c #0D0C06",
"$+	c #14130B",
"%+	c #595A4F",
"&+	c #302E16",
"*+	c #6B6A57",
"=+	c #161406",
"-+	c #060502",
";+	c #010000",
">+	c #98988E",
",+	c #423C1A",
"'+	c #44401D",
")+	c #342F0A",
"!+	c #131103",
"~+	c #070602",
"{+	c #0A0802",
"]+	c #0D0C03",
"^+	c #0E0D03",
"/+	c #090701",
"(+	c #080600",
"_+	c #63635B",
":+	c #37331B",
"<+	c #716E5D",
"[+	c #2E2B15",
"}+	c #28250D",
"|+	c #0D0B05",
"1+	c #16160E",
"2+	c #969486",
"3+	c #423E22",
"4+	c #141107",
"5+	c #0B0A03",
"6+	c #5B5B53",
"7+	c #34311C",
"8+	c #6F6D5E",
"9+	c #3A361B",
"0+	c #0E0C00",
"a+	c #000100",
"b+	c #666454",
"c+	c #343119",
"d+	c #3D3A25",
"e+	c #171308",
"f+	c #070604",
"g+	c #030200",
"h+	c #4D4C44",
"i+	c #2B2711",
"j+	c #666353",
"k+	c #383517",
"l+	c #0E0B03",
"m+	c #12120C",
"n+	c #10110B",
"o+	c #0E0F0A",
"p+	c #0A0B07",
"q+	c #060704",
"r+	c #020201",
"s+	c #020101",
"t+	c #1D1D18",
"u+	c #767466",
"v+	c #35321B",
"w+	c #332F19",
"x+	c #23200D",
"y+	c #040302",
"z+	c #020300",
"A+	c #45433B",
"B+	c #302C16",
"C+	c #666352",
"D+	c #37341C",
"E+	c #1F1D0C",
"F+	c #161200",
"G+	c #020202",
"H+	c #0E0D02",
"I+	c #141407",
"J+	c #14140B",
"K+	c #10100A",
"L+	c #13110E",
"M+	c #100F0C",
"N+	c #161512",
"O+	c #41403E",
"P+	c #74746E",
"Q+	c #050505",
"R+	c #434137",
"S+	c #33301A",
"T+	c #686554",
"U+	c #36331A",
"V+	c #1D1A04",
"W+	c #040300",
"X+	c #100E08",
"Y+	c #383835",
"Z+	c #312E17",
"`+	c #696655",
" @	c #423E25",
".@	c #343117",
"+@	c #040500",
"@@	c #3F3F38",
"#@	c #2C2811",
"$@	c #6A6756",
"%@	c #37331A",
"&@	c #413D28",
"*@	c #080802",
"=@	c #060501",
"-@	c #050401",
";@	c #3E3E38",
">@	c #312E18",
",@	c #716E5C",
"'@	c #3A361D",
")@	c #595541",
"!@	c #47473E",
"~@	c #0D0E06",
"{@	c #050600",
"]@	c #080801",
"^@	c #3D3D37",
"/@	c #38351B",
"(@	c #6F6C5A",
"_@	c #3A3821",
":@	c #353119",
"<@	c #888779",
"[@	c #56564D",
"}@	c #020005",
"|@	c #010001",
"1@	c #3B3B37",
"2@	c #423D22",
"3@	c #79765E",
"4@	c #322E18",
"5@	c #807E6F",
"6@	c #686866",
"7@	c #0C0C09",
"8@	c #060600",
"9@	c #3A3938",
"0@	c #3D381F",
"a@	c #73715B",
"b@	c #46422F",
"c@	c #413E24",
"d@	c #7D7B68",
"e@	c #8F8F8B",
"f@	c #1B1C0F",
"g@	c #0D0D03",
"h@	c #070801",
"i@	c #0B0B02",
"j@	c #0C0C01",
"k@	c #0A0A02",
"l@	c #3D3C39",
"m@	c #3A371C",
"n@	c #72705D",
"o@	c #53513A",
"p@	c #36331C",
"q@	c #6F6D56",
"r@	c #A9A99E",
"s@	c #646558",
"t@	c #4E4F42",
"u@	c #484A3C",
"v@	c #515245",
"w@	c #5E6052",
"x@	c #6F7064",
"y@	c #86867D",
"z@	c #8B8B85",
"A@	c #4B4B43",
"B@	c #34342E",
"C@	c #181815",
"D@	c #040301",
"E@	c #373318",
"F@	c #716E5B",
"G@	c #464224",
"H@	c #484425",
"I@	c #413E22",
"J@	c #423F23",
"K@	c #3F3D22",
"L@	c #3E3B21",
"M@	c #403D21",
"N@	c #3E3B20",
"O@	c #4D4A34",
"P@	c #888679",
"Q@	c #43423C",
"R@	c #3F3F36",
"S@	c #363219",
"T@	c #73705C",
"U@	c #3F3B1E",
"V@	c #6D6A55",
"W@	c #706D58",
"X@	c #6B6953",
"Y@	c #6B6954",
"Z@	c #777562",
"`@	c #82806F",
" #	c #6C6955",
".#	c #4F4C36",
"+#	c #252208",
"@#	c #302F24",
"##	c #46473B",
"$#	c #423D24",
"%#	c #706F5B",
"&#	c #8F8D80",
"*#	c #211E05",
"=#	c #2D2C21",
"-#	c #050500",
";#	c #0D0D05",
">#	c #0F1007",
",#	c #0B0C05",
"'#	c #4E4F47",
")#	c #3B371F",
"!#	c #73705D",
"~#	c #272308",
"{#	c #353328",
"]#	c #070703",
"^#	c #0B0B06",
"/#	c #171710",
"(#	c #23231B",
"_#	c #25251C",
":#	c #2C2C22",
"<#	c #2A2A21",
"[#	c #37372E",
"}#	c #5F6059",
"|#	c #898984",
"1#	c #706D5A",
"2#	c #282408",
"3#	c #413F34",
"4#	c #16160F",
"5#	c #212019",
"6#	c #282721",
"7#	c #24231E",
"8#	c #0A0800",
"9#	c #3E3B29",
"0#	c #1F1C09",
"a#	c #28261A",
"b#	c #0B0B08",
"c#	c #0A0A07",
"d#	c #35342D",
"e#	c #4C4934",
"f#	c #25230D",
"g#	c #222013",
"h#	c #0A0904",
"i#	c #32332B",
"j#	c #615F4B",
"k#	c #363317",
"l#	c #A19F95",
"m#	c #333018",
"n#	c #363426",
"o#	c #1E1D15",
"p#	c #090804",
"q#	c #0E0F08",
"r#	c #737264",
"s#	c #302D12",
"t#	c #504D37",
"u#	c #3A371F",
"v#	c #413F30",
"w#	c #6B6B62",
"x#	c #101108",
"y#	c #12110A",
"z#	c #15150C",
"A#	c #54534A",
"B#	c #4C4831",
"C#	c #525139",
"D#	c #302D16",
"E#	c #3A382B",
"F#	c #7E7D78",
"G#	c #323128",
"H#	c #0C0B05",
"I#	c #15150D",
"J#	c #25261C",
"K#	c #6C6D64",
"L#	c #5A5642",
"M#	c #332F18",
"N#	c #38362A",
"O#	c #1C1B16",
"P#	c #201F17",
"Q#	c #242420",
"R#	c #1A190E",
"S#	c #1C1C14",
"T#	c #29291F",
"U#	c #45463C",
"V#	c #66665D",
"W#	c #93948C",
"X#	c #A6A599",
"Y#	c #4A472F",
"Z#	c #605E4A",
"`#	c #343019",
" $	c #514F41",
".$	c #0D0D09",
"+$	c #35362A",
"@$	c #4B4C41",
"#$	c #86877F",
"$$	c #C9C9C5",
"%$	c #CDCCC6",
"&$	c #8C8B7D",
"*$	c #4E4A32",
"=$	c #4F4B35",
"-$	c #EFEFED",
";$	c #656250",
">$	c #85867C",
",$	c #737469",
"'$	c #83837C",
")$	c #A3A49D",
"!$	c #A9A89F",
"~$	c #787563",
"{$	c #5A5742",
"]$	c #514D36",
"^$	c #38351D",
"/$	c #878676",
"($	c #C5C4BD",
"_$	c #FFFFFF",
":$	c #34301A",
"<$	c #343017",
"[$	c #2F2A11",
"}$	c #221F0A",
"|$	c #39361F",
"1$	c #3A361C",
"2$	c #39361C",
"3$	c #413E25",
"4$	c #605E4C",
"5$	c #A5A59B",
"6$	c #F5F5F3",
"7$	c #5E5B4C",
"8$	c #908F81",
"9$	c #929082",
"0$	c #9E9D90",
"a$	c #B9B8AF",
"b$	c #E6E6E2",
"                                                                                ",
"                                                                                ",
"                                              . + @ # $ % & * = - ; >           ",
"                      , ' ) ! ~ { ] ^ / ( _ : < [ } | 1 2 3 4 5 6 7 8           ",
"                    9 0 a a a a a a b c d ; e f g a a a a a a a a h i j         ",
"                    k l a m n o p q c r s t u v w c m c c a x y x z A B         ",
"                  C D E c F G H I l J K L M N O m c l m P m c Q R S T U         ",
"                  V W X p Y Z H ` F o  ...+.@.#.$.H %.I o &.*.=.-.;.>.,.        ",
"                '.).!.a c ~.{.].^.{.{./.(._.:.<.F [.[.}.|.|.1.1.2.3.4.5.        ",
"                6.q 7.a c H [.8.|.9.0.a.b.c.d.e.f.g.h.g.i.h.j.k.k.l.m.n.        ",
"              o.p.q.2.a c r.s.t.u.v.w.x.y.z.A.B.C.D.E.F.G.E.H.I.J.K.L.M.        ",
"              N.O.P.a a a p Q.R.S.~.T.U.V.W.X.Y.3 Z.`. +.+++@+#+$+%+&+*+        ",
"              W.=+-+a c x c c a a ;+w.>+,+'+)+!+q 2.~+{+]+^+/+(+!._+:+<+        ",
"            [+}+|+a c c c a c c c c 1+2+- 3+4+5+q ;+;+c p ;+a ;+q 6+7+8+        ",
"            9+%.0+a a a a+c a c q c i.b+c+d+e+f+q c g+q c ;+;+;+a h+i+j+        ",
"            k+l+m+n+o+p+q+P r+s+a c t+u+v+w+x+y+c p z+p l g+q p g+A+B+C+        ",
"          D+E+F+G+-+H+I+J+K+L+M+N+O+P+Q+r g r a c c p J p p c q p R+S+T+        ",
"          U+V+c a c p l m r.W+l Q.X+a a c c c a c o r.l l l c c a Y+Z+`+        ",
"           @.@H l ;+p +@%.H 2.Q.I g+p c c p c c m I o l l I p ;+W+@@#@$@        ",
"          %@&@*@I a c o Y ~+=@I -@p c c a c a a p c c c p c c c p ;@>@,@        ",
"          '@)@!@~@;+c {@]@%.H %.I r.p c a a+a a c c c q l p c p c ^@/@(@        ",
"          _@:@<@[@}@;+{@]@%.Y I o l c s+|@c c c p p p q c c c ;+a 1@2@3@        ",
"            4@[+5@6@7@8@%.%.~.%.r.o l c p p p c c m p c p c a c c 9@0@a@        ",
"              b@c@d@e@f@g@^.^.*@h@i@j@k@~+m p ;+c p l l l J p a p l@m@n@        ",
"                o@p@q@r@s@t@u@v@w@x@y@z@A@B@C@c a c p W+r.o l D@-@;@E@F@        ",
"                    G@H@3+I@J@K@* L@M@N@O@P@Q@c c l l o o +@I r.p R@S@T@        ",
"                      V.U@V@W@X@Y@Z@`@ #.#+#@#r+p o I I o %.$.+@X ##$#%#        ",
"                                        &#*#=#p -@-#%.*@-#;#>#,#9.'#)#!#        ",
"                                          ~#{#l ]#^#/#(#_#:#<#[#}#|#:@1#        ",
"                                          2#3#4#5#6#7#} ;+a a W+8#9#D+n.        ",
"                                          0#a#b#c#r.a a q g p c a d#, e#        ",
"                                          f#g#q c c =@s.h#Q.$.H n i#j#k#l#      ",
"                                          m#n#o#*@~+].p#~+I -+` q#o#r#s#t#      ",
"                                          u#v#w#x#%.` Z ^.` F y#z#J+A#B#C#      ",
"                                          D#E#F#G#k.h#H#^.|.i.I#| J#K#y.L#      ",
"                                          M#N#O#P#Q#R#5 g.S#T#U#V#W#X#Y#Z#      ",
"                                          `# $9.x G+.$+$@$#$$$%$&$*$ @=$-$      ",
"                                          4@;$>$,$'$)$!$~${$]$)#^$Z#/$($_$      ",
"                                          :$<$[$}$|$1$2$d 3$4$5$6$_$_$          ",
"                                                7$8$9$0$a$b$_$                  "};
