/* XPM */
static char * 5_xpm[] = {
"40 40 608 2",
"  	c None",
". 	c #2C2A10",
"+ 	c #272509",
"@ 	c #2F2A11",
"# 	c #312E16",
"$ 	c #34301B",
"% 	c #302C18",
"& 	c #36321B",
"* 	c #3E3A22",
"= 	c #353218",
"- 	c #363419",
"; 	c #3C3920",
"> 	c #3A371D",
", 	c #302B12",
"' 	c #403C22",
") 	c #3C381E",
"! 	c #353112",
"~ 	c #373213",
"{ 	c #3B3718",
"] 	c #3C3919",
"^ 	c #383417",
"/ 	c #3E3A1C",
"( 	c #2E2A10",
"_ 	c #2A2610",
": 	c #2C280F",
"< 	c #2D2910",
"[ 	c #3D3922",
"} 	c #322E15",
"| 	c #2D2A0B",
"1 	c #191500",
"2 	c #000000",
"3 	c #110E00",
"4 	c #322E16",
"5 	c #363319",
"6 	c #050300",
"7 	c #030302",
"8 	c #444233",
"9 	c #38341C",
"0 	c #383317",
"a 	c #100C02",
"b 	c #010100",
"c 	c #020200",
"d 	c #030300",
"e 	c #030200",
"f 	c #020100",
"g 	c #1F1E15",
"h 	c #0B0A02",
"i 	c #111108",
"j 	c #121109",
"k 	c #0E0E05",
"l 	c #0C0B02",
"m 	c #111008",
"n 	c #1A1910",
"o 	c #1A1911",
"p 	c #1A180E",
"q 	c #131208",
"r 	c #0A0900",
"s 	c #0B0904",
"t 	c #727169",
"u 	c #353429",
"v 	c #030301",
"w 	c #050400",
"x 	c #0D0D05",
"y 	c #201E18",
"z 	c #121108",
"A 	c #131209",
"B 	c #090802",
"C 	c #070703",
"D 	c #070602",
"E 	c #16160F",
"F 	c #929189",
"G 	c #35311A",
"H 	c #878577",
"I 	c #39361D",
"J 	c #3B3A2E",
"K 	c #040400",
"L 	c #0D0D06",
"M 	c #23211D",
"N 	c #111109",
"O 	c #0B0A04",
"P 	c #0B0A03",
"Q 	c #080600",
"R 	c #24241D",
"S 	c #817F70",
"T 	c #393520",
"U 	c #A09E95",
"V 	c #312E14",
"W 	c #3B392B",
"X 	c #050501",
"Y 	c #040401",
"Z 	c #1F1E19",
"` 	c #0A0905",
" .	c #050500",
"..	c #7F7F7A",
"+.	c #5A5742",
"@.	c #3E3B26",
"#.	c #DEDED9",
"$.	c #262310",
"%.	c #2E2C20",
"&.	c #040402",
"*.	c #18180E",
"=.	c #181611",
"-.	c #010000",
";.	c #12130B",
">.	c #BCBBB3",
",.	c #3A3720",
"'.	c #706C5D",
").	c #FFFFFF",
"!.	c #39351D",
"~.	c #413E2E",
"{.	c #060603",
"].	c #201F15",
"^.	c #0C0B03",
"/.	c #040501",
"(.	c #040500",
"_.	c #404036",
":.	c #9F9E92",
"<.	c #353217",
"[.	c #CBC9C4",
"}.	c #3D391F",
"|.	c #43412E",
"1.	c #070705",
"2.	c #414138",
"3.	c #23221A",
"4.	c #070702",
"5.	c #050601",
"6.	c #060602",
"7.	c #070701",
"8.	c #070802",
"9.	c #090903",
"0.	c #0D0E06",
"a.	c #63635A",
"b.	c #68664F",
"c.	c #524E36",
"d.	c #3D381B",
"e.	c #484430",
"f.	c #080807",
"g.	c #010200",
"h.	c #070805",
"i.	c #3F3E37",
"j.	c #211F10",
"k.	c #10110A",
"l.	c #0B0C03",
"m.	c #0C0D03",
"n.	c #0F0F07",
"o.	c #0D0E07",
"p.	c #0F1009",
"q.	c #0E0E07",
"r.	c #101009",
"s.	c #12120B",
"t.	c #1A1B12",
"u.	c #2C2E22",
"v.	c #9E9F98",
"w.	c #423F1F",
"x.	c #7D7963",
"y.	c #2D290D",
"z.	c #45412B",
"A.	c #090906",
"B.	c #090A07",
"C.	c #52524A",
"D.	c #383832",
"E.	c #565753",
"F.	c #505247",
"G.	c #535448",
"H.	c #58564E",
"I.	c #5D5E57",
"J.	c #5E5E58",
"K.	c #555650",
"L.	c #54554F",
"M.	c #54544F",
"N.	c #51514C",
"O.	c #595954",
"P.	c #787669",
"Q.	c #343119",
"R.	c #919083",
"S.	c #2A260D",
"T.	c #3B371E",
"U.	c #10100C",
"V.	c #060605",
"W.	c #040307",
"X.	c #020204",
"Y.	c #020202",
"Z.	c #0C0D09",
"`.	c #686862",
" +	c #9D9D98",
".+	c #A2A097",
"++	c #676452",
"@+	c #504C39",
"#+	c #524D38",
"$+	c #575443",
"%+	c #696858",
"&+	c #868578",
"*+	c #A7A59E",
"=+	c #ADABA6",
"-+	c #ABAAA6",
";+	c #A1A099",
">+	c #57553E",
",+	c #CECEC8",
"'+	c #302C14",
")+	c #252210",
"!+	c #1B1A12",
"~+	c #21201C",
"{+	c #232320",
"]+	c #1D1D1B",
"^+	c #1A1A14",
"/+	c #181812",
"(+	c #15150F",
"_+	c #0F0F0B",
":+	c #050604",
"<+	c #030303",
"[+	c #181814",
"}+	c #888883",
"|+	c #605C46",
"1+	c #39351A",
"2+	c #363219",
"3+	c #37341C",
"4+	c #2A2611",
"5+	c #1F1D0D",
"6+	c #181607",
"7+	c #0E0C00",
"8+	c #0D0A00",
"9+	c #0D0800",
"0+	c #221D0B",
"a+	c #393521",
"b+	c #302D17",
"c+	c #58543F",
"d+	c #9C9B8C",
"e+	c #353015",
"f+	c #38341E",
"g+	c #0A0A04",
"h+	c #020201",
"i+	c #040403",
"j+	c #050504",
"k+	c #070603",
"l+	c #212119",
"m+	c #4F4E46",
"n+	c #2C2924",
"o+	c #0A0906",
"p+	c #080704",
"q+	c #070704",
"r+	c #0C0A03",
"s+	c #393313",
"t+	c #444022",
"u+	c #696655",
"v+	c #403C20",
"w+	c #47432A",
"x+	c #0F0F08",
"y+	c #040300",
"z+	c #060502",
"A+	c #020000",
"B+	c #242004",
"C+	c #272308",
"D+	c #302D10",
"E+	c #454127",
"F+	c #57523A",
"G+	c #14140C",
"H+	c #060601",
"I+	c #080803",
"J+	c #070601",
"K+	c #080801",
"L+	c #121006",
"M+	c #100E06",
"N+	c #322F19",
"O+	c #44412A",
"P+	c #3A3719",
"Q+	c #524E32",
"R+	c #323126",
"S+	c #14140B",
"T+	c #060501",
"U+	c #080703",
"V+	c #0B0C05",
"W+	c #0C0D05",
"X+	c #0C0B04",
"Y+	c #141208",
"Z+	c #121008",
"`+	c #080702",
" @	c #020300",
".@	c #2C2C23",
"+@	c #403E23",
"@@	c #363217",
"#@	c #6F6E5D",
"$@	c #3C3818",
"%@	c #4C492C",
"&@	c #9E9D92",
"*@	c #2F2F25",
"=@	c #100F05",
"-@	c #19180F",
";@	c #171711",
">@	c #0C0B08",
",@	c #636352",
"'@	c #2D2A0D",
")@	c #322D12",
"!@	c #393617",
"~@	c #5E5B41",
"{@	c #9B9A8E",
"]@	c #64655C",
"^@	c #34342C",
"/@	c #1F1F17",
"(@	c #181810",
"_@	c #11110B",
":@	c #13120C",
"<@	c #0C0C05",
"[@	c #090803",
"}@	c #1B1B11",
"|@	c #49483C",
"1@	c #020301",
"2@	c #1B1A11",
"3@	c #1A1914",
"4@	c #0C0C06",
"5@	c #2D2E20",
"6@	c #424025",
"7@	c #444026",
"8@	c #3B3819",
"9@	c #3B381B",
"0@	c #686452",
"a@	c #C8C7C0",
"b@	c #A0A19C",
"c@	c #4D4E44",
"d@	c #070600",
"e@	c #080802",
"f@	c #202013",
"g@	c #15140A",
"h@	c #060500",
"i@	c #141309",
"j@	c #14130C",
"k@	c #080804",
"l@	c #030400",
"m@	c #191911",
"n@	c #575542",
"o@	c #3B371C",
"p@	c #4A462E",
"q@	c #413D25",
"r@	c #3A361B",
"s@	c #5A563F",
"t@	c #9E9C8D",
"u@	c #7E8078",
"v@	c #595952",
"w@	c #33332B",
"x@	c #27281E",
"y@	c #63645A",
"z@	c #3C3B32",
"A@	c #15150D",
"B@	c #0C0B06",
"C@	c #17150B",
"D@	c #1C1C11",
"E@	c #0D0D08",
"F@	c #090904",
"G@	c #68675D",
"H@	c #3A361A",
"I@	c #6F6C59",
"J@	c #4F4C36",
"K@	c #2B270A",
"L@	c #312D17",
"M@	c #323020",
"N@	c #79786F",
"O@	c #B2B2B1",
"P@	c #B9B8B6",
"Q@	c #919086",
"R@	c #818179",
"S@	c #525248",
"T@	c #2D2D25",
"U@	c #1F1F18",
"V@	c #5D5D56",
"W@	c #3E3F37",
"X@	c #1B1C15",
"Y@	c #050602",
"Z@	c #525149",
"`@	c #454128",
" #	c #504E37",
".#	c #3C391D",
"+#	c #37341B",
"@#	c #29250E",
"##	c #111006",
"$#	c #111007",
"%#	c #211D05",
"&#	c #403C25",
"*#	c #605C48",
"=#	c #64614E",
"-#	c #64624F",
";#	c #605E49",
">#	c #615E4A",
",#	c #5E5C4A",
"'#	c #6A6654",
")#	c #6E6B5D",
"!#	c #171710",
"~#	c #0B0B06",
"{#	c #0B0B05",
"]#	c #090804",
"^#	c #3F3F37",
"/#	c #716F5C",
"(#	c #3C391E",
"_#	c #363114",
":#	c #2E2B0F",
"<#	c #25220A",
"[#	c #232116",
"}#	c #2B270E",
"|#	c #413E27",
"1#	c #3D3A24",
"2#	c #3B371F",
"3#	c #343018",
"4#	c #26220A",
"5#	c #181608",
"6#	c #0E0B00",
"7#	c #0E0D07",
"8#	c #0C0C07",
"9#	c #0E0E08",
"0#	c #12120C",
"a#	c #14130D",
"b#	c #24231A",
"c#	c #807D6E",
"d#	c #39361B",
"e#	c #D7D7D2",
"f#	c #3C3819",
"g#	c #130E05",
"h#	c #0A0A06",
"i#	c #272410",
"j#	c #181408",
"k#	c #2E2A13",
"l#	c #211E0A",
"m#	c #0F0E06",
"n#	c #0E0D05",
"o#	c #0B0905",
"p#	c #0F0E07",
"q#	c #100F09",
"r#	c #13120B",
"s#	c #16160E",
"t#	c #12120A",
"u#	c #8D8B7E",
"v#	c #413D23",
"w#	c #D9D9D4",
"x#	c #3B3618",
"y#	c #050401",
"z#	c #030100",
"A#	c #0E0D04",
"B#	c #14130A",
"C#	c #15140C",
"D#	c #15140D",
"E#	c #13120A",
"F#	c #080901",
"G#	c #A29F94",
"H#	c #454227",
"I#	c #363315",
"J#	c #41402D",
"K#	c #040301",
"L#	c #0E0D06",
"M#	c #100F06",
"N#	c #17160D",
"O#	c #16170E",
"P#	c #A19F91",
"Q#	c #DCDCD8",
"R#	c #353214",
"S#	c #696754",
"T#	c #1C1C14",
"U#	c #1D1D15",
"V#	c #2E2D26",
"W#	c #0A0A03",
"X#	c #15140B",
"Y#	c #14130B",
"Z#	c #080902",
"`#	c #424239",
" $	c #969585",
".$	c #403E20",
"+$	c #F7F7F6",
"@$	c #3A3618",
"#$	c #57543B",
"$$	c #525247",
"%$	c #2F2E26",
"&$	c #9F9F94",
"*$	c #3C3C32",
"=$	c #0C0B05",
"-$	c #1B1A10",
";$	c #16150B",
">$	c #15160B",
",$	c #74746B",
"'$	c #777563",
")$	c #4C4932",
"!$	c #413E24",
"~$	c #454125",
"{$	c #8D8B7C",
"]$	c #2B2B23",
"^$	c #3A392C",
"/$	c #454231",
"($	c #242418",
"_$	c #15130B",
":$	c #1A1A0D",
"<$	c #080903",
"[$	c #3C3D30",
"}$	c #A0A096",
"|$	c #4B472C",
"1$	c #383518",
"2$	c #4F4C32",
"3$	c #7E7D73",
"4$	c #1C1C13",
"5$	c #1B1609",
"6$	c #14140D",
"7$	c #110F06",
"8$	c #13140D",
"9$	c #787A71",
"0$	c #726F5B",
"a$	c #403C21",
"b$	c #A09F92",
"c$	c #393517",
"d$	c #64614B",
"e$	c #8E8D84",
"f$	c #303029",
"g$	c #0A0907",
"h$	c #0A0A05",
"i$	c #44453D",
"j$	c #B6B5AA",
"k$	c #4A472F",
"l$	c #605E47",
"m$	c #E9E8E5",
"n$	c #52503B",
"o$	c #4A4630",
"p$	c #9D9D92",
"q$	c #807F79",
"r$	c #34352C",
"s$	c #22241A",
"t$	c #18170F",
"u$	c #2F2F28",
"v$	c #282A27",
"w$	c #BABAB6",
"x$	c #444128",
"y$	c #4C4A30",
"z$	c #CDCDC6",
"A$	c #525039",
"B$	c #38331A",
"C$	c #706D59",
"D$	c #828073",
"E$	c #9F9F96",
"F$	c #91928B",
"G$	c #74746D",
"H$	c #535449",
"I$	c #414238",
"J$	c #1E1E15",
"K$	c #34342A",
"L$	c #47483C",
"M$	c #5A5A50",
"N$	c #808179",
"O$	c #72736B",
"P$	c #35352C",
"Q$	c #8C8C85",
"R$	c #17170E",
"S$	c #5F5F5A",
"T$	c #747571",
"U$	c #BBBAB1",
"V$	c #57543C",
"W$	c #9D9B8D",
"X$	c #55513E",
"Y$	c #3B371B",
"Z$	c #2B2813",
"`$	c #2E2B14",
" %	c #2F2B13",
".%	c #36341C",
"+%	c #494630",
"@%	c #949388",
"#%	c #BEBEBA",
"$%	c #C2C3BE",
"%%	c #CECECA",
"&%	c #A3A196",
"*%	c #56543C",
"=%	c #5B5841",
"-%	c #AFAEA7",
";%	c #B8B8B5",
">%	c #C0BFB7",
",%	c #B3B2AD",
"'%	c #BEBEBB",
")%	c #CBCAC6",
"!%	c #696752",
"~%	c #423E23",
"{%	c #48462B",
"]%	c #BCBBB2",
"^%	c #FDFDFC",
"/%	c #C1C1B9",
"(%	c #7B796B",
"_%	c #5C5846",
":%	c #5F5C49",
"<%	c #5B5845",
"[%	c #474430",
"}%	c #333018",
"|%	c #302D15",
"1%	c #46432E",
"2%	c #575540",
"3%	c #5B5946",
"4%	c #3C3921",
"5%	c #37331C",
"6%	c #3B3820",
"7%	c #3C391F",
"8%	c #3A371A",
"9%	c #433F25",
"0%	c #48452D",
"a%	c #67664F",
"b%	c #B6B5AB",
"c%	c #DBDBD6",
"d%	c #DBDAD5",
"e%	c #DEDDD9",
"f%	c #E4E3DF",
"g%	c #F0F0ED",
"h%	c #F7F7F5",
"i%	c #E0DFDB",
"j%	c #DEDDD8",
"k%	c #DFDED9",
"l%	c #DDDCD7",
"m%	c #DCDBD4",
"n%	c #DFDED8",
"o%	c #DCDBD5",
"p%	c #E5E4DF",
"q%	c #FBFBFA",
"                                                                                ",
"                                                                                ",
"                                                          . + @ # $             ",
"        % & * = - ; > , ' ) ! ~ { ] ^ / ( _ $ : < [ } | 1 2 2 2 3 4             ",
"        5 6 2 2 2 2 2 2 2 2 2 2 2 2 2 2 2 2 2 2 2 2 2 2 2 2 2 7 8 9             ",
"        0 a b 2 b c c c d d e b 2 f g h i j k l m n o p q r b s t &             ",
"        5 u c c b c v b c v c e w x y z A m m A B C D e 2 2 2 E F G H           ",
"        I J v c c c c c d c b c K L M N O P Q b 2 2 2 2 2 2 d R S T U           ",
"        V W X c c e Y c b b c d K N Z ` e 2 2 2 b b c c c c  ...+.@.#.          ",
"        $.%.&.c b b b b 2 b c c d *.=.-.2 2 2 d d d K K d X ;.>.,.'.).          ",
"        !.~.{.c d c b d c b c c d ].^.2 b d d X /.K  .(.K  ._.:.<.[.            ",
"        }.|.1.f d c b v Y b b b X 2.3.4. .(.X 5.6.7.4.8.9.0.a.b.c.).            ",
"        d.e.f.b g.b 2 c b b 2 c h.i.j.k.l.m.n.o.p.q.r.s.t.u.v.w.x.).            ",
"        y.z.A.b b 2 2 b b 2 2 c B.C.D.E.F.G.H.I.J.K.L.M.N.O.P.Q.R.).            ",
"        S.T.U.V.W.X.Y.b b 2 2 c Z.`. +.+++@+#+$+%+&+*+=+-+;+>+' ,+              ",
"        '+)+!+~+{+]+^+/+(+_+:+<+[+}+|+1+2+3+4+5+6+7+8+9+0+a+b+c+d+              ",
"        e+f+g+2 2 2 h+i+j+j+k+l+m+n+o+p+q+q+c 2 2 2 2 2 e q+r+s+t+u+            ",
"        v+w+x+y+d d d f c g.b 2 2 e D z+z+b 2 2 b f b b b 2 A+B+C+D+            ",
"        E+F+G+9.H+4.I+4.J+K+ .b 2 D L+z M+e 2 b b b d e c d e x N+y.O+          ",
"        P+Q+R+S+g+T+U+g+V+W+9.4.K c X+Y+Z+`+C K c c  @d c d d c .@+@@@#@        ",
"        $@%@&@*@n.d z+4.w X J+`+D K d =@-@;@>@Y v b b c c c c c 9.,@'@)@        ",
"          !@~@{@]@^@/@(@_@:@<@[@}@|@1@d ^.2@3@4@6.v y+c c b c c (.5@6@7@        ",
"            8@9@0@a@b@c@g d@w e@f@g@b d y+h@i@j@k@I+(.l@b c c c H+m@n@o@        ",
"              p@q@r@s@t@u@v@w@x@y@z@A@I+c B@C@D@E@F@g+/. @K X e@9.4@G@H@I@      ",
"                  J@K@L@M@N@O@P@&@Q@R@S@T@U@2.V@W@X@4@Y@F@I+C [@9.9.Z@`@ #      ",
"            e+.#+#@###$#6 2 2 y+%#&#*#=#-#;#>#,#'#)#!#~#{#]#F@~#F@B@^#/#(#      ",
"          _#:#<#b 2 2 2 2 b 2 2 [#}#I |#1#2#3#4#5#6#`+{#4@7#8#9#0#a#b#c#d#e#    ",
"        f#g#b 2 2 2 f d T+H+K K h#i#j#k#l#j m#n#w -.o#p#q#r#q#s#t#Y g+u#v#w#    ",
"        x#K 2 b y+4.T+y+X H+X K c y#z#2 2 2 2 2 2 h+A#B#A@C#D#E#d 2 F#G#H#w#    ",
"        I#J#E@`+6.4.6.X Y H+H+K K d X z+z+K#v d Y L#M#$#N#C#B#e 2 c O#P#r@Q#    ",
"        R#S#T#U#V#r.9.D H+H+X X X H+6.W#J+d D X d I+n#X#N#Y#P 2 b Z#`# $.$+$    ",
"        @$#$$$%$&$*$L H+H+X D X H+H+4.I+D X e@H+d X =$B#-$;$y+2 K >$,$'$)$).    ",
"        !$~${$]$^$/$($g+K y#H+D H+y#4.D 4.6.e@g+X v =$_$:$w 2 c <$[$}$|$'$).    ",
"          1$2$3$4$P 5$6$6.4.I+6.D 6.4.U+H+D 9.O H+b 9.i 7$y+-.d 8$9$0$a$b$).    ",
"            c$d$e$f$g$z+h$6.4.D D 6.D 4.4.6.e@g+H+c 4.g+m#C b 6.i$j$k$l$m$      ",
"            n$9@o$p$q$r$s$t$x+C X 4.4.4.e@=$i x+e@(.u$g+m#s#1.v$w$x$y$z$).      ",
"              A$B$`@C$D$E$F$G$H$I$U#J$K$L$M$N$O$P$r.Q$R$X@S$T$U$V$0 W$).        ",
"                  X$Y$Z$`$ %.%+%@%#%$%%%&%*%}.=%-%;%>%,%'%)%!%~%{%]%^%          ",
"                    /%(%_%:%<%[%}%|% %,.1%2%3%4%5%6%7%8%9%@$0%a%b%).            ",
"                                  c%d%e%f%g%h%i%j%k%l%m%n%o%p%q%                "};
