/* XPM */
static char * 6_xpm[] = {
"40 40 599 2",
"  	c None",
". 	c #332F18",
"+ 	c #312E17",
"@ 	c #37341C",
"# 	c #2F2B13",
"$ 	c #343016",
"% 	c #363316",
"& 	c #393517",
"* 	c #413C1D",
"= 	c #3F3B19",
"- 	c #413C1B",
"; 	c #423E1A",
"> 	c #423E21",
", 	c #413C1F",
"' 	c #312D13",
") 	c #383416",
"! 	c #3C3A1C",
"~ 	c #39361B",
"{ 	c #1D1A06",
"] 	c #080804",
"^ 	c #070703",
"/ 	c #080803",
"( 	c #090904",
"_ 	c #090804",
": 	c #0A0905",
"< 	c #0A0904",
"[ 	c #0E0B06",
"} 	c #1E1A04",
"| 	c #383418",
"1 	c #595746",
"2 	c #2A2711",
"3 	c #2D2A11",
"4 	c #27240F",
"5 	c #111001",
"6 	c #000000",
"7 	c #020000",
"8 	c #130F04",
"9 	c #302B11",
"0 	c #3C371F",
"a 	c #2C2A12",
"b 	c #322F16",
"c 	c #030301",
"d 	c #010000",
"e 	c #020100",
"f 	c #010101",
"g 	c #010100",
"h 	c #020201",
"i 	c #0F0F0C",
"j 	c #3F3B22",
"k 	c #36321A",
"l 	c #4D4A37",
"m 	c #2A270F",
"n 	c #221F0B",
"o 	c #020200",
"p 	c #030300",
"q 	c #030201",
"r 	c #040402",
"s 	c #040401",
"t 	c #3D3C35",
"u 	c #3A371F",
"v 	c #38351B",
"w 	c #8C8A7E",
"x 	c #333014",
"y 	c #070702",
"z 	c #050501",
"A 	c #040400",
"B 	c #060601",
"C 	c #060701",
"D 	c #050502",
"E 	c #0A0B06",
"F 	c #686759",
"G 	c #3D3921",
"H 	c #98968D",
"I 	c #2B2810",
"J 	c #120F04",
"K 	c #060602",
"L 	c #080702",
"M 	c #0A0A04",
"N 	c #0A0A05",
"O 	c #0C0C05",
"P 	c #0B0B06",
"Q 	c #0E0E09",
"R 	c #2C2D27",
"S 	c #A1A097",
"T 	c #423E27",
"U 	c #9E9D94",
"V 	c #403B16",
"W 	c #26240D",
"X 	c #0A0A03",
"Y 	c #0C0B05",
"Z 	c #0C0C06",
"` 	c #0D0D06",
" .	c #0D0D07",
"..	c #0E0D08",
"+.	c #10100A",
"@.	c #13120C",
"#.	c #191810",
"$.	c #14140D",
"%.	c #15140C",
"&.	c #16160E",
"*.	c #101009",
"=.	c #181810",
"-.	c #35372C",
";.	c #A2A39E",
">.	c #656355",
",.	c #201D0A",
"'.	c #A2A099",
").	c #3A3715",
"!.	c #030200",
"~.	c #040300",
"{.	c #0C0D06",
"].	c #36362E",
"^.	c #34342C",
"/.	c #17170F",
"(.	c #15140D",
"_.	c #24231C",
":.	c #33332B",
"<.	c #35352D",
"[.	c #3B3A31",
"}.	c #313126",
"|.	c #2A2A1F",
"1.	c #26261C",
"2.	c #303026",
"3.	c #595A50",
"4.	c #A2A39C",
"5.	c #7A7864",
"6.	c #3C3923",
"7.	c #716E5F",
"8.	c #FFFFFF",
"9.	c #2A270D",
"0.	c #19150A",
"a.	c #090801",
"b.	c #222316",
"c.	c #33301D",
"d.	c #0E0D06",
"e.	c #24241A",
"f.	c #595951",
"g.	c #BABAB6",
"h.	c #C9C8C1",
"i.	c #CFCDC5",
"j.	c #C9C8C2",
"k.	c #BBBBB6",
"l.	c #9E9E97",
"m.	c #76766D",
"n.	c #5E5F53",
"o.	c #989891",
"p.	c #C1C0B8",
"q.	c #6A6752",
"r.	c #433E23",
"s.	c #676554",
"t.	c #F9F9F8",
"u.	c #363312",
"v.	c #28240E",
"w.	c #1B190C",
"x.	c #0A0A06",
"y.	c #060600",
"z.	c #25251D",
"A.	c #8B8B84",
"B.	c #9B9A8E",
"C.	c #524F3B",
"D.	c #3B3720",
"E.	c #4B482C",
"F.	c #4C482E",
"G.	c #534F37",
"H.	c #5E5B46",
"I.	c #5E5B45",
"J.	c #5D5A44",
"K.	c #5A5641",
"L.	c #4E4C35",
"M.	c #47432B",
"N.	c #828071",
"O.	c #383316",
"P.	c #373318",
"Q.	c #090906",
"R.	c #7F7F78",
"S.	c #848273",
"T.	c #3B391C",
"U.	c #3C3921",
"V.	c #807E6F",
"W.	c #C5C4BE",
"X.	c #9A988D",
"Y.	c #7A7667",
"Z.	c #5D5944",
"`.	c #49452B",
" +	c #464229",
".+	c #47452B",
"++	c #676552",
"@+	c #D5D5D1",
"#+	c #312C13",
"$+	c #1E1C12",
"%+	c #4C4C47",
"&+	c #969486",
"*+	c #3A371C",
"=+	c #63614C",
"-+	c #969488",
";+	c #A3A397",
">+	c #9F9E94",
",+	c #A4A198",
"'+	c #BBBBB4",
")+	c #333019",
"!+	c #363218",
"~+	c #292617",
"{+	c #060603",
"]+	c #060604",
"^+	c #040403",
"/+	c #020301",
"(+	c #0A0908",
"_+	c #8F8E8D",
":+	c #53503A",
"<+	c #3D3920",
"[+	c #383518",
"}+	c #2A2610",
"|+	c #25220B",
"1+	c #221F09",
"2+	c #2A2816",
"3+	c #2A2716",
"4+	c #353219",
"5+	c #38341A",
"6+	c #413D28",
"7+	c #6A6858",
"8+	c #343119",
"9+	c #38341C",
"0+	c #211E0C",
"a+	c #070805",
"b+	c #121208",
"c+	c #13120A",
"d+	c #11110A",
"e+	c #0F0F0A",
"f+	c #0F0E0B",
"g+	c #22221F",
"h+	c #96968E",
"i+	c #312E14",
"j+	c #242108",
"k+	c #0C0B04",
"l+	c #0E0D07",
"m+	c #171405",
"n+	c #312D16",
"o+	c #37341D",
"p+	c #48452A",
"q+	c #333017",
"r+	c #353117",
"s+	c #141205",
"t+	c #040301",
"u+	c #050400",
"v+	c #181712",
"w+	c #7B7A6E",
"x+	c #151305",
"y+	c #000100",
"z+	c #130F00",
"A+	c #252209",
"B+	c #39351B",
"C+	c #403E26",
"D+	c #2F2B12",
"E+	c #302B12",
"F+	c #222016",
"G+	c #070603",
"H+	c #13130C",
"I+	c #332F17",
"J+	c #040500",
"K+	c #080700",
"L+	c #2C290B",
"M+	c #403C23",
"N+	c #3E3A23",
"O+	c #2A260C",
"P+	c #302C12",
"Q+	c #24221C",
"R+	c #020300",
"S+	c #0F0F07",
"T+	c #2F2E24",
"U+	c #0A0A09",
"V+	c #24231E",
"W+	c #21201E",
"X+	c #131104",
"Y+	c #282308",
"Z+	c #3D3A1F",
"`+	c #454228",
" @	c #39351E",
".@	c #373419",
"+@	c #24231D",
"@@	c #070701",
"#@	c #090903",
"$@	c #28291C",
"%@	c #0C0B08",
"&@	c #3E3C30",
"*@	c #66655B",
"=@	c #151406",
"-@	c #332F11",
";@	c #353315",
">@	c #413F28",
",@	c #343017",
"'@	c #353119",
")@	c #262420",
"!@	c #080801",
"~@	c #111107",
"{@	c #1C1B10",
"]@	c #000001",
"^@	c #060704",
"/@	c #030400",
"(@	c #2D2C20",
"_@	c #3A3617",
":@	c #403B22",
"<@	c #585544",
"[@	c #343118",
"}@	c #37331B",
"|@	c #2B2A24",
"1@	c #0A0903",
"2@	c #111007",
"3@	c #050401",
"4@	c #4A4A46",
"5@	c #90908E",
"6@	c #A9AAA7",
"7@	c #72716F",
"8@	c #0E0D09",
"9@	c #040302",
"0@	c #545343",
"a@	c #48452D",
"b@	c #333018",
"c@	c #2D2C24",
"d@	c #070601",
"e@	c #050500",
"f@	c #101106",
"g@	c #3C3D32",
"h@	c #A3A29D",
"i@	c #858372",
"j@	c #615F4A",
"k@	c #4C4934",
"l@	c #72705E",
"m@	c #9A9A8E",
"n@	c #6D6D69",
"o@	c #2A2A24",
"p@	c #292925",
"q@	c #37341B",
"r@	c #353218",
"s@	c #322E16",
"t@	c #302E25",
"u@	c #111203",
"v@	c #606155",
"w@	c #C8C7C2",
"x@	c #4E4B32",
"y@	c #3A3517",
"z@	c #47442C",
"A@	c #676453",
"B@	c #413D26",
"C@	c #524E3A",
"D@	c #BCBBB6",
"E@	c #404138",
"F@	c #090902",
"G@	c #141413",
"H@	c #7A786B",
"I@	c #302D11",
"J@	c #625F4C",
"K@	c #35311B",
"L@	c #322E17",
"M@	c #38352B",
"N@	c #070801",
"O@	c #4A4B3E",
"P@	c #ADAB9E",
"Q@	c #38351D",
"R@	c #47442D",
"S@	c #969588",
"T@	c #F2F1EF",
"U@	c #9F9D93",
"V@	c #656151",
"W@	c #8B897D",
"X@	c #28281D",
"Y@	c #5D5D54",
"Z@	c #343117",
"`@	c #342F15",
" #	c #36321C",
".#	c #36311A",
"+#	c #413F32",
"@#	c #4D4E44",
"##	c #6B674F",
"$#	c #343013",
"%#	c #63604E",
"&#	c #E3E2DE",
"*#	c #FBFBFB",
"=#	c #A5A39A",
"-#	c #46432C",
";#	c #524F3A",
">#	c #58574A",
",#	c #16150F",
"'#	c #6D6C58",
")#	c #363319",
"!#	c #373420",
"~#	c #39341C",
"{#	c #474536",
"]#	c #060501",
"^#	c #35321F",
"/#	c #2F290C",
"(#	c #312D10",
"_#	c #3F3D25",
":#	c #44412F",
"<#	c #413D2B",
"[#	c #4B4837",
"}#	c #39361F",
"|#	c #3D3B23",
"1#	c #1E1C0B",
"2#	c #343221",
"3#	c #080902",
"4#	c #0C0D04",
"5#	c #080802",
"6#	c #0B0B05",
"7#	c #222216",
"8#	c #757260",
"9#	c #373219",
"0#	c #37331A",
"a#	c #484634",
"b#	c #181500",
"c#	c #2C2A13",
"d#	c #2C2A15",
"e#	c #353014",
"f#	c #312D15",
"g#	c #35321C",
"h#	c #191500",
"i#	c #191A11",
"j#	c #28291E",
"k#	c #1F2018",
"l#	c #1D1E16",
"m#	c #1C1C17",
"n#	c #4E4E43",
"o#	c #75725F",
"p#	c #3A361D",
"q#	c #585442",
"r#	c #020101",
"s#	c #090800",
"t#	c #070600",
"u#	c #050402",
"v#	c #11120E",
"w#	c #151411",
"x#	c #1A1910",
"y#	c #201F15",
"z#	c #201F17",
"A#	c #2A2A22",
"B#	c #666661",
"C#	c #65624F",
"D#	c #3E3922",
"E#	c #37331C",
"F#	c #565441",
"G#	c #141311",
"H#	c #0E0E08",
"I#	c #070802",
"J#	c #0F0F08",
"K#	c #17180F",
"L#	c #1B1B13",
"M#	c #1F1F16",
"N#	c #131209",
"O#	c #1A1A11",
"P#	c #81817B",
"Q#	c #5A5742",
"R#	c #57533F",
"S#	c #312E1A",
"T#	c #494634",
"U#	c #53524B",
"V#	c #1D1D17",
"W#	c #44443B",
"X#	c #3D3D32",
"Y#	c #26271B",
"Z#	c #27281E",
"`#	c #202015",
" $	c #19190F",
".$	c #19180E",
"+$	c #12110B",
"@$	c #0D0C09",
"#$	c #090803",
"$$	c #050602",
"%$	c #0C0C07",
"&$	c #2F3028",
"*$	c #45422A",
"=$	c #7C7B6C",
"-$	c #35331F",
";$	c #3A3721",
">$	c #7C7A6E",
",$	c #39382E",
"'$	c #0C0B03",
")$	c #3F3F32",
"!$	c #2E2E23",
"~$	c #050503",
"{$	c #090A03",
"]$	c #0F1007",
"^$	c #1C1D12",
"/$	c #54564A",
"($	c #929084",
"_$	c #39361C",
":$	c #BEBDB5",
"<$	c #302E18",
"[$	c #3A3724",
"}$	c #838277",
"|$	c #2B2B24",
"1$	c #0B0A04",
"2$	c #12120A",
"3$	c #191910",
"4$	c #323328",
"5$	c #999992",
"6$	c #4C4932",
"7$	c #57523E",
"8$	c #DFDED9",
"9$	c #363219",
"0$	c #636047",
"a$	c #9C9A90",
"b$	c #46463E",
"c$	c #0B0B04",
"d$	c #1C1B12",
"e$	c #333429",
"f$	c #898982",
"g$	c #888676",
"h$	c #7F7D6C",
"i$	c #3D391E",
"j$	c #8D8B7C",
"k$	c #28291D",
"l$	c #1C1D0F",
"m$	c #5E5E55",
"n$	c #070800",
"o$	c #0D0C05",
"p$	c #0D0C06",
"q$	c #111008",
"r$	c #202117",
"s$	c #343429",
"t$	c #5A5A50",
"u$	c #A1A29C",
"v$	c #8E8D7E",
"w$	c #413F23",
"x$	c #5D5A47",
"y$	c #E4E4E0",
"z$	c #322F14",
"A$	c #413D1F",
"B$	c #636048",
"C$	c #9D9B8E",
"D$	c #949389",
"E$	c #A5A49B",
"F$	c #16170D",
"G$	c #1D1F11",
"H$	c #484A3A",
"I$	c #3C3E2E",
"J$	c #2E3021",
"K$	c #212216",
"L$	c #18190E",
"M$	c #1E1E16",
"N$	c #26261D",
"O$	c #28281E",
"P$	c #2B2B21",
"Q$	c #4B4C42",
"R$	c #77776F",
"S$	c #BAB9B1",
"T$	c #93907F",
"U$	c #66634C",
"V$	c #363214",
"W$	c #5B5840",
"X$	c #D6D6D1",
"Y$	c #66644E",
"Z$	c #3D391A",
"`$	c #3D3A1D",
" %	c #423F24",
".%	c #767362",
"+%	c #A3A39D",
"@%	c #AAAAA3",
"#%	c #8C897B",
"$%	c #6A6653",
"%%	c #A9A89F",
"&%	c #B4B4AE",
"*%	c #A8A8A0",
"=%	c #AEAEA9",
"-%	c #B5B5B0",
";%	c #B2B2AD",
">%	c #BCBBB4",
",%	c #67654E",
"'%	c #45401E",
")%	c #393415",
"!%	c #454225",
"~%	c #8A8978",
"{%	c #D8D8D2",
"]%	c #777568",
"^%	c #504E39",
"/%	c #3F3C23",
"(%	c #46432B",
"_%	c #433F25",
":%	c #474225",
"<%	c #3A3515",
"[%	c #433F1F",
"}%	c #464225",
"|%	c #464120",
"1%	c #322F12",
"2%	c #3D3A1E",
"3%	c #5F5B3F",
"4%	c #9F9D90",
"5%	c #F4F4F2",
"6%	c #B9B7AC",
"7%	c #BEBEB4",
"8%	c #D0D0C9",
"9%	c #C7C5BD",
"0%	c #C1BFB5",
"a%	c #BEBDB2",
"b%	c #BFBEB3",
"c%	c #C2C1B5",
"d%	c #C5C4B9",
"e%	c #C4C2B6",
"f%	c #BAB9AE",
"g%	c #C8C7BF",
"h%	c #F7F6F5",
"                                                                                ",
"                                                                                ",
"                                . + @ # $ % & * = - ; > , '                     ",
"                          ) ! ~ { ] ] ^ ^ ] / ( _ : < : [ } | 1                 ",
"                      2 3 4 5 6 6 6 6 6 6 6 6 6 6 6 6 6 7 8 9 0                 ",
"                    a b c d 6 6 6 e 6 f 6 6 6 g h h g g 6 i j k l               ",
"                  m n ( 6 6 o p o e q r c p o g g c s s h h t u v w             ",
"                  x g 6 6 s y ^ z A p A p z A B C B z p D ^ E F G H             ",
"                I J 6 6 K L L / ( _ M M ^ M / < < ( N O P Q R S T U             ",
"              V W 6 6 s X Y Y Z `  ...+.@.#.$.%.&.&.$.*.=.-.;.>.,.'.            ",
"              ).!.~.6 c {.].^./.(.&._.:.<.[.:.}.}.|.1.2.3.4.5.6.7.8.            ",
"            9.0.h 6 a.M b.c.6 B d.e.f.g.h.i.j.k.l.m.n.o.p.q.r.s.t.8.            ",
"            u.v.w.6 g x.y.6 6 o z.A.B.C.D.E.F.G.H.I.J.K.L.M.N.t.8.              ",
"            O.P.Q.g g 6 6 g d M R.S.T.U.V.W.X.Y.Z.`. +.+++@+8.8.                ",
"            #+$+6 6 6 g g d c %+&+*+=+-+;+>+>+,+'+                              ",
"          )+!+~+{+]+^+/+f g (+_+:+<+[+}+|+1+2+3+4+5+6+7+                        ",
"          8+9+0+a+b+c+d+e+f+g+h+i+j+d.e 6 6 6 !.k+l+m+n+o+p+                    ",
"          q+r+s+6 g g !.t+u+v+w+x+6 6 6 y+6 6 g 6 6 6 e z+A+B+C+                ",
"          D+E+F+6 p z y G+K H+I+6 6 6 g o g o J+A o o o 6 K+L+M+N+              ",
"          O+P+Q+6 R+B B z S+T+U+6 g g g g g o c o g o c V+W+X+Y+Z+`+            ",
"           @.@+@d p @@@@#@$@%@6 o o g 6 y+6 g g g g o o ^+&@*@=@-@;@>@          ",
"          ,@'@)@d o @@!@~@{@6 !.o o f ]@o ^@/@p o o o o g t+t+6 (@_@:@<@        ",
"          [@}@|@6 p z 1@2@3@g z p A r 4@5@6@7@8@] o o o 6 6 6 6 9@0@<+a@        ",
"          i+b@c@g p B y d@g e@y.f@g@h@i@j@k@l@m@n@o@y R+h g 6 e g p@U.q@        ",
"          r@s@t@g p B d@3@A !@u@v@w@x@y@z@A@B@k C@D@E@F@p p s s g G@H@I@J@      ",
"          K@L@M@6 o e@B B A N@O@P@Q@R@S@T@8.U@V@ @R@W@X@y.z 3@p p D Y@Z@`@      ",
"           #.#+#g p e@A z A A @###$#%#&#*#      =#-#;#>#B e@A e@B B ,#'#)#8.    ",
"          !#~#{#g o z B ]#z z ` ^#/#(#_#:#<#  [#}#|#1#2#3#4#5#M 6#` 7#8#9#8.    ",
"            0#a#6 o s K K B B L p d 6 b#c#d#e#f#g#h#6 ]#i#j#k#l#m#z.n#o#p#8.    ",
"            v q#r#g c p p 3@A A t+!.g 6 6 6 s#t#6 6 6 u#v#w#x#y#z#A#B#C#D#8.    ",
"            E#F#G#o H#( I#N H#J#d+K#L#M#N#d 6 6 6 6 6 g g g 6 6 6 O#P#Q#R#8.    ",
"            S#T#U#V#W#X#Y#Z#`# $.$+$i @$] d 6 6 o z #$< C I#z $$%$&$l.*$=$8.    ",
"            -$;$>$,$'$)$!$~$6 6 6 6 g g g g p L y #@X F@5#F@{$]$^$/$($_$:$8.    ",
"              <$[$}$|$c 6 d p ~.g o p o A B 5#( / 6#O 1$M O 2$3$4$5$6$7$8$      ",
"                9$0$a$b$+.p e@y.A A A !.A z X c$M 6#< c$Y J#d$e$f$g$<+h$8.      ",
"                  i$U.j$A.k$l$m$n$B N@e@A B 5#o$6#Z p$q$r$s$t$u$v$w$x$y$        ",
"                    z$A$B$C$D$E$F$G$H$I$J$K$L$M$N$O$P$Q$R$S$T$U$V$W$X$8.        ",
"                      Y$Z$`$ %.%+%@%#%$%%%&%*%=%-%-%;%>%,%'%)%!%~%{%8.          ",
"                          ]%^%/%r+5+$ (%_%:%_@<%[%}%|%1%2%3%4%5%8.              ",
"                                  6%7%8%9%0%a%b%c%d%e%f%g%h%8.                  "};
