/* XPM */
static char * 7_xpm[] = {
"40 40 461 2",
"  	c None",
". 	c #33311A",
"+ 	c #312E19",
"@ 	c #2D2A13",
"# 	c #2D2A0F",
"$ 	c #2E2A0E",
"% 	c #3D391E",
"& 	c #3E3B21",
"* 	c #3B371B",
"= 	c #373317",
"- 	c #3B381B",
"; 	c #3B381F",
"> 	c #302D16",
", 	c #27230D",
"' 	c #35321B",
") 	c #343019",
"! 	c #333017",
"~ 	c #0E0C03",
"{ 	c #070703",
"] 	c #070603",
"^ 	c #070704",
"/ 	c #060602",
"( 	c #080703",
"_ 	c #090805",
": 	c #100E05",
"< 	c #3A361B",
"[ 	c #383418",
"} 	c #3F3B1E",
"| 	c #3D3A20",
"1 	c #3A371B",
"2 	c #171403",
"3 	c #080804",
"4 	c #121103",
"5 	c #343117",
"6 	c #343018",
"7 	c #413D1F",
"8 	c #383417",
"9 	c #393619",
"0 	c #393519",
"a 	c #040302",
"b 	c #000000",
"c 	c #060400",
"d 	c #010000",
"e 	c #060502",
"f 	c #040401",
"g 	c #030200",
"h 	c #232006",
"i 	c #343115",
"j 	c #39341B",
"k 	c #373418",
"l 	c #272309",
"m 	c #050502",
"n 	c #010100",
"o 	c #020200",
"p 	c #030300",
"q 	c #060701",
"r 	c #181710",
"s 	c #111105",
"t 	c #111107",
"u 	c #14140B",
"v 	c #0C0B04",
"w 	c #18170E",
"x 	c #1B1A12",
"y 	c #1C1A12",
"z 	c #14130A",
"A 	c #0A0800",
"B 	c #030100",
"C 	c #252319",
"D 	c #323013",
"E 	c #535038",
"F 	c #343015",
"G 	c #56533F",
"H 	c #040301",
"I 	c #080802",
"J 	c #1A1912",
"K 	c #131209",
"L 	c #121108",
"M 	c #121208",
"N 	c #111007",
"O 	c #0C0B05",
"P 	c #0B0A06",
"Q 	c #080702",
"R 	c #292821",
"S 	c #535036",
"T 	c #56533A",
"U 	c #3A361A",
"V 	c #5B5843",
"W 	c #060603",
"X 	c #030301",
"Y 	c #1A1913",
"Z 	c #17160E",
"` 	c #0E0D04",
" .	c #060500",
"..	c #292923",
"+.	c #716F57",
"@.	c #5B593F",
"#.	c #39361B",
"$.	c #5B5842",
"%.	c #11110C",
"&.	c #1F1E18",
"*.	c #17150B",
"=.	c #040300",
"-.	c #050500",
";.	c #43433D",
">.	c #4D4A2D",
",.	c #5C5940",
"'.	c #322F16",
").	c #5D5A44",
"!.	c #23221B",
"~.	c #080701",
"{.	c #24231A",
"].	c #0B0800",
"^.	c #040400",
"/.	c #060601",
"(.	c #090902",
"_.	c #75766D",
":.	c #403D21",
"<.	c #605E48",
"[.	c #36331A",
"}.	c #47442A",
"|.	c #4F4E46",
"1.	c #080801",
"2.	c #1C1B10",
"3.	c #020100",
"4.	c #030400",
"5.	c #040501",
"6.	c #050501",
"7.	c #040500",
"8.	c #070702",
"9.	c #101106",
"0.	c #A09F96",
"a.	c #454124",
"b.	c #7F7E6D",
"c.	c #302C10",
"d.	c #7F7D6E",
"e.	c #20201B",
"f.	c #0E0E09",
"g.	c #030402",
"h.	c #040402",
"i.	c #020301",
"j.	c #0D0E06",
"k.	c #29291F",
"l.	c #13130C",
"m.	c #080A00",
"n.	c #070801",
"o.	c #090903",
"p.	c #0B0B03",
"q.	c #090904",
"r.	c #0C0C05",
"s.	c #17180D",
"t.	c #38392B",
"u.	c #8F8E7F",
"v.	c #A9A99D",
"w.	c #3A3618",
"x.	c #514E36",
"y.	c #B4B3AD",
"z.	c #949491",
"A.	c #818281",
"B.	c #83847F",
"C.	c #878880",
"D.	c #858582",
"E.	c #828381",
"F.	c #7F7F7D",
"G.	c #828380",
"H.	c #8E8E8B",
"I.	c #ADAFAB",
"J.	c #9A9D97",
"K.	c #898B80",
"L.	c #7C7D6E",
"M.	c #696855",
"N.	c #3E3D2E",
"O.	c #14150C",
"P.	c #12120A",
"Q.	c #15150C",
"R.	c #16170D",
"S.	c #1C1C12",
"T.	c #1D1D15",
"U.	c #1F1F16",
"V.	c #2B2C22",
"W.	c #5F6157",
"X.	c #C4C4BE",
"Y.	c #716D52",
"Z.	c #403B1A",
"`.	c #E6E6E2",
" +	c #343119",
".+	c #2F2B13",
"++	c #2C2913",
"@+	c #2F2C15",
"#+	c #322F17",
"$+	c #3C391D",
"%+	c #34311C",
"&+	c #282511",
"*+	c #2F2C17",
"=+	c #2D2A16",
"-+	c #29250F",
";+	c #0F0D04",
">+	c #0C0B09",
",+	c #0E0D09",
"'+	c #222219",
")+	c #24241C",
"!+	c #27271E",
"~+	c #2A2A21",
"{+	c #2C2B22",
"]+	c #2F2E28",
"^+	c #636460",
"/+	c #B2B0A7",
"(+	c #514D33",
"_+	c #AAA89C",
":+	c #FFFFFF",
"<+	c #B3B1A6",
"[+	c #B4B3A8",
"}+	c #B5B4A9",
"|+	c #B6B5A8",
"1+	c #B9B7AB",
"2+	c #B3B1A8",
"3+	c #AFAEA4",
"4+	c #B2B1A7",
"5+	c #4F4C37",
"6+	c #2A260E",
"7+	c #131004",
"8+	c #060402",
"9+	c #14120A",
"0+	c #18150D",
"a+	c #1B1A11",
"b+	c #16150B",
"c+	c #16150A",
"d+	c #1B1A13",
"e+	c #494847",
"f+	c #A09F9B",
"g+	c #48452F",
"h+	c #38341C",
"i+	c #BAB9B0",
"j+	c #FBFAF9",
"k+	c #3E3A23",
"l+	c #0C0B00",
"m+	c #0E0B00",
"n+	c #1C1A15",
"o+	c #7D7D78",
"p+	c #646251",
"q+	c #37341E",
"r+	c #9C9B8F",
"s+	c #5B5948",
"t+	c #3D381E",
"u+	c #050100",
"v+	c #3D3D39",
"w+	c #A5A49B",
"x+	c #36331E",
"y+	c #585643",
"z+	c #F9F9F8",
"A+	c #3F3C22",
"B+	c #211E0F",
"C+	c #161300",
"D+	c #101006",
"E+	c #101003",
"F+	c #8E8F84",
"G+	c #54513E",
"H+	c #43402C",
"I+	c #D8D8D3",
"J+	c #353117",
"K+	c #0A0900",
"L+	c #0F0E05",
"M+	c #0B0901",
"N+	c #070700",
"O+	c #595950",
"P+	c #7D7A6D",
"Q+	c #302C16",
"R+	c #8C8A7E",
"S+	c #363113",
"T+	c #010101",
"U+	c #030401",
"V+	c #24241B",
"W+	c #D5D4D1",
"X+	c #423F2B",
"Y+	c #4D4B38",
"Z+	c #DFDFDB",
"`+	c #3B381D",
" @	c #040201",
".@	c #110F02",
"+@	c #18160B",
"@@	c #1F1E16",
"#@	c #10100C",
"$@	c #62625C",
"%@	c #716F62",
"&@	c #2F2B15",
"*@	c #D9D9D6",
"=@	c #2E2B13",
"-@	c #100D00",
";@	c #0C0B06",
">@	c #100F05",
",@	c #1A1911",
"'@	c #12120E",
")@	c #292920",
"!@	c #9E9E93",
"~@	c #26240F",
"{@	c #666354",
"]@	c #312E13",
"^@	c #2D290D",
"/@	c #0B0A00",
"(@	c #020201",
"_@	c #070601",
":@	c #0A0901",
"<@	c #16150E",
"[@	c #0B0B06",
"}@	c #13140D",
"|@	c #9B9B97",
"1@	c #5A5846",
"2@	c #34301A",
"3@	c #C2C1BA",
"4@	c #3B371E",
"5@	c #0C0B03",
"6@	c #020000",
"7@	c #080803",
"8@	c #030201",
"9@	c #090701",
"0@	c #0F0E04",
"a@	c #12110A",
"b@	c #35372E",
"c@	c #B0AFA7",
"d@	c #2D2912",
"e@	c #8E8D81",
"f@	c #3D381D",
"g@	c #0F0E03",
"h@	c #090801",
"i@	c #6D6D66",
"j@	c #555240",
"k@	c #3F3C27",
"l@	c #353216",
"m@	c #1E1B02",
"n@	c #090802",
"o@	c #0B0A05",
"p@	c #3D3D37",
"q@	c #949388",
"r@	c #333018",
"s@	c #63604F",
"t@	c #37331A",
"u@	c #21200E",
"v@	c #151300",
"w@	c #060501",
"x@	c #090906",
"y@	c #676763",
"z@	c #706D5C",
"A@	c #343017",
"B@	c #AFAEA6",
"C@	c #333014",
"D@	c #130E00",
"E@	c #090700",
"F@	c #0C0D08",
"G@	c #999992",
"H@	c #53503A",
"I@	c #5C5B46",
"J@	c #373419",
"K@	c #050400",
"L@	c #0A0A04",
"M@	c #2B2C21",
"N@	c #A5A399",
"O@	c #3A371D",
"P@	c #ACABA0",
"Q@	c #3C381B",
"R@	c #0A0700",
"S@	c #070701",
"T@	c #13130A",
"U@	c #7E7E76",
"V@	c #5D5844",
"W@	c #494631",
"X@	c #DAD9D5",
"Y@	c #29260F",
"Z@	c #28281F",
"`@	c #9A9890",
" #	c #383522",
".#	c #6E6B5D",
"+#	c #FEFEFD",
"@#	c #312D14",
"##	c #070602",
"$#	c #0C0C06",
"%#	c #6C6D65",
"&#	c #757364",
"*#	c #36341E",
"=#	c #D4D4CF",
"-#	c #38341B",
";#	c #121007",
">#	c #0B0B05",
",#	c #A2A29B",
"'#	c #3E3C25",
")#	c #6F6D5D",
"!#	c #37341A",
"~#	c #3E3D31",
"{#	c #0F0F08",
"]#	c #4A4B41",
"^#	c #716F5F",
"/#	c #413D24",
"(#	c #B0AEA5",
"_#	c #35321C",
":#	c #3A371C",
"<#	c #13130B",
"[#	c #4A4A3C",
"}#	c #0F0E06",
"|#	c #191910",
"1#	c #B8B8B1",
"2#	c #3B3720",
"3#	c #535039",
"4#	c #EDEDEA",
"5#	c #312F13",
"6#	c #1F1C0A",
"7#	c #111108",
"8#	c #0D0D06",
"9#	c #0B0B04",
"0#	c #27271D",
"a#	c #28261A",
"b#	c #606158",
"c#	c #888679",
"d#	c #2E2A11",
"e#	c #A1A096",
"f#	c #312D10",
"g#	c #1F1B02",
"h#	c #121209",
"i#	c #191810",
"j#	c #292A1F",
"k#	c #B0B1AC",
"l#	c #36362D",
"m#	c #26271A",
"n#	c #BABAB4",
"o#	c #38351D",
"p#	c #5B5947",
"q#	c #FEFEFE",
"r#	c #2E2B0E",
"s#	c #5A5742",
"t#	c #83837B",
"u#	c #7F8077",
"v#	c #74756C",
"w#	c #76766E",
"x#	c #808078",
"y#	c #979791",
"z#	c #A8A79F",
"A#	c #7D7A6B",
"B#	c #878578",
"C#	c #949286",
"D#	c #5B5744",
"E#	c #36321B",
"F#	c #A7A69B",
"G#	c #322D13",
"H#	c #373517",
"I#	c #3B361A",
"J#	c #433F1F",
"K#	c #4D492A",
"L#	c #3A371F",
"M#	c #3F3A22",
"N#	c #35341A",
"O#	c #3D3A22",
"P#	c #353119",
"Q#	c #3F3C24",
"R#	c #3B381E",
"S#	c #ACAAA3",
"T#	c #7D7B69",
"U#	c #7E7B6B",
"V#	c #7F7D6C",
"W#	c #7D7A6A",
"X#	c #908F82",
"Y#	c #B7B6AE",
"Z#	c #CBCBC6",
"`#	c #CDCCC6",
" $	c #CECDC8",
"                                                                                ",
"                                                                                ",
"                    . + @ # $ % &             * = - ; > , '                     ",
"          ) ! ~ { ] { ^ / ] ( _ : # < [ } | 1 2 3 3 _ 3 / 4 5 6 7 8 = 9         ",
"          0 a b b b b b b b b b b b b b b b c b d e f g b b b b b b h i j       ",
"          k l m n o o o p p p o o q r s t u u b v w x y z A B b b b C D E       ",
"          F G f o o o o n H o p p I J w K L M N N O P Q b b b b b n R S T       ",
"          U V W X n o n o X n f p I Y Z N N `  .b b b b b b b b b p ..+.@.      ",
"          #.$.%.n o f o o o n p p I &.*.Q =.b b b n o g o n n o p -.;.>.,.      ",
"          '.).!.H n n o o o o o p ~.{.].b b b n p ^.-.^.p o f f /.(._.:.<.      ",
"          [.}.|./.g n o X o o n p 1.2.3.3.4.p 5.6.7.-.-.p ^.6.8.(.9.0.a.b.      ",
"            c.d.e.f.g.5.I h.i.n f j.k.l.(.m.n.o.8.n.I I p.q.o.r.s.t.u.'.v.      ",
"            w.x.y.z.A.B.C.D.E.F.G.H.I.J.K.L.M.N.O.P.Q.R.S.T.U.V.W.X.Y.Z.`.      ",
"              7  +.+++@+#+5 $+%+&+*+=+-+;+e >+,+'+)+!+~+{+!+]+^+/+E (+_+:+      ",
"                    <+[+}+|+1+2+3+4+5+6+7+8+9+0+w a+w b+c+d+e+f+g+h+i+j+        ",
"                                    k+l+m+3.o b g =.b n 3.n+o+p+q+r+:+:+        ",
"                                  s+t+u+ .I 3.b n d b b g v+w+x+y+z+:+          ",
"                                  A+B+C+v D+=.d o n n g E+F+G+H+I+:+            ",
"                                  J+ .K+L+M+g n n d o N+O+P+Q+R+:+              ",
"                                  S+3.T+c+O 6.U+p o o V+W+X+Y+Z+                ",
"                                `+ @.@n +@@@#@{ ^.o -.$@%@&@*@:+                ",
"                              `+=@-@;@b  .>@,@'@3 /.)@!@~@{@:+                  ",
"                            ]@^@/@b (@6.p _@:@<@[@}@|@1@2@3@:+                  ",
"                            4@5@6@b o.7@o 8@9@0@a@b@c@d@e@:+                    ",
"                            f@g@b+I 8.8.Q o =.h@!.i@j@k@:+                      ",
"                            l@m@n@-.6./.I p o o@p@q@r@s@:+                      ",
"                          t@u@v@o w@6.6.I /.p x@y@z@A@B@:+                      ",
"                          C@D@E@o p ^.f Q /.m F@G@H@I@:+                        ",
"                        J@, K@o ^.o 6.8.o.I L@M@N@O@P@:+                        ",
"                        Q@;@R@3.^.^.S@8.n@-.T@U@V@W@X@                          ",
"                      % Y@ .n S@S@(.I 8.I f Z@`@ #.#+#                          ",
"                      @#b b f n@S@I I 8.##$#%#&#*#=#:+                          ",
"                    -#;#g n 7@7@8.I L@>#o.U.,#'#)#:+                            ",
"                  !#, d n ( q.o.o.o.Z ~#{#]#^#/#(#:+                            ",
"                _#:#=.3.6.L@q.n@8.<#[#}#|#1#2#3#4#                              ",
"                5#6#3.m 7#8#9#o.L@0#a#W b#c#d#e#:+                              ",
"                f#g#L+h#7#h#i#S.j#k#l#m#n#o#p#q#                                ",
"                r#s#t#u#v#w#x#y#z#A#B#C#D#E#F#:+                                ",
"                G#H#I#J#K#L#M#N#O#P#A@Q#R#S#:+                                  ",
"                        T#U#V#W#X#Y#Z#`# $                                      "};
