/* XPM */
static char * 8_xpm[] = {
"40 40 596 2",
"  	c None",
". 	c #343117",
"+ 	c #343116",
"@ 	c #363317",
"# 	c #3B381A",
"$ 	c #2F2C10",
"% 	c #38341A",
"& 	c #363319",
"* 	c #343017",
"= 	c #3C3821",
"- 	c #3A3920",
"; 	c #3B381D",
"> 	c #37341D",
", 	c #403C22",
"' 	c #3F3C1E",
") 	c #343011",
"! 	c #110F03",
"~ 	c #060602",
"{ 	c #070603",
"] 	c #050502",
"^ 	c #060603",
"/ 	c #070704",
"( 	c #0C0704",
"_ 	c #2B270C",
": 	c #393618",
"< 	c #2F2C0F",
"[ 	c #2D2911",
"} 	c #302B12",
"| 	c #231F0D",
"1 	c #161406",
"2 	c #000000",
"3 	c #070400",
"4 	c #201D07",
"5 	c #373215",
"6 	c #3F3C25",
"7 	c #38341C",
"8 	c #3C381B",
"9 	c #0D0C06",
"0 	c #010100",
"a 	c #010000",
"b 	c #000100",
"c 	c #010200",
"d 	c #0B0700",
"e 	c #171200",
"f 	c #2B280E",
"g 	c #363218",
"h 	c #3D3A26",
"i 	c #3E391F",
"j 	c #252314",
"k 	c #0C0900",
"l 	c #040401",
"m 	c #050501",
"n 	c #030301",
"o 	c #020201",
"p 	c #010101",
"q 	c #030201",
"r 	c #222320",
"s 	c #171717",
"t 	c #090600",
"u 	c #241F04",
"v 	c #2E2A12",
"w 	c #333019",
"x 	c #37331B",
"y 	c #33301D",
"z 	c #0A0A04",
"A 	c #080703",
"B 	c #030300",
"C 	c #050500",
"D 	c #040400",
"E 	c #020200",
"F 	c #050401",
"G 	c #070702",
"H 	c #1C1B13",
"I 	c #100F06",
"J 	c #28240C",
"K 	c #312E15",
"L 	c #585746",
"M 	c #423D26",
"N 	c #242213",
"O 	c #030200",
"P 	c #080702",
"Q 	c #080803",
"R 	c #22221B",
"S 	c #0C0C06",
"T 	c #080802",
"U 	c #060601",
"V 	c #090903",
"W 	c #080805",
"X 	c #515048",
"Y 	c #393620",
"Z 	c #625F50",
"` 	c #39361B",
" .	c #080500",
"..	c #0A0A05",
"+.	c #090904",
"@.	c #070703",
"#.	c #27271E",
"$.	c #26261D",
"%.	c #0B0B05",
"&.	c #0D0D07",
"*.	c #0F0F08",
"=.	c #101009",
"-.	c #0E0E08",
";.	c #0E0E09",
">.	c #0F0F09",
",.	c #23231D",
"'.	c #B0AFAA",
").	c #504D3A",
"!.	c #605D4D",
"~.	c #090803",
"{.	c #0B0A05",
"].	c #0E0D07",
"^.	c #2B2C22",
"/.	c #302F26",
"(.	c #191912",
"_.	c #1A1A13",
":.	c #1A1A12",
"<.	c #171710",
"[.	c #16150E",
"}.	c #17170F",
"|.	c #191911",
"1.	c #1D1D14",
"2.	c #1A1A11",
"3.	c #18190F",
"4.	c #18180F",
"5.	c #16160E",
"6.	c #1A1911",
"7.	c #4F4E44",
"8.	c #2F2C15",
"9.	c #35321B",
"0.	c #38351D",
"a.	c #030000",
"b.	c #131107",
"c.	c #0E0E07",
"d.	c #111008",
"e.	c #15150D",
"f.	c #36362C",
"g.	c #313024",
"h.	c #191810",
"i.	c #16150D",
"j.	c #15140C",
"k.	c #1C1B12",
"l.	c #25251C",
"m.	c #1D1C13",
"n.	c #14130A",
"o.	c #121109",
"p.	c #18170D",
"q.	c #18180D",
"r.	c #16160C",
"s.	c #17160D",
"t.	c #15140B",
"u.	c #26261C",
"v.	c #4E4C3A",
"w.	c #2C2A13",
"x.	c #3A351D",
"y.	c #0E0800",
"z.	c #0F0E09",
"A.	c #020101",
"B.	c #12110A",
"C.	c #52534B",
"D.	c #989892",
"E.	c #95948E",
"F.	c #7D7D76",
"G.	c #6A6A61",
"H.	c #545448",
"I.	c #3F3F33",
"J.	c #515145",
"K.	c #A2A39D",
"L.	c #57574E",
"M.	c #12120A",
"N.	c #0C0C03",
"O.	c #121106",
"P.	c #111105",
"Q.	c #0E0D03",
"R.	c #151409",
"S.	c #19190F",
"T.	c #565548",
"U.	c #2C2812",
"V.	c #6D6B5A",
"W.	c #353015",
"X.	c #332F13",
"Y.	c #A4A39A",
"Z.	c #6D6B55",
"`.	c #5A5741",
" +	c #6F6D58",
".+	c #777463",
"++	c #787666",
"@+	c #7D7B6A",
"#+	c #6C6A58",
"$+	c #434132",
"%+	c #080701",
"&+	c #040300",
"*+	c #0A0902",
"=+	c #090802",
"-+	c #070600",
";+	c #070500",
">+	c #090801",
",+	c #58594E",
"'+	c #747161",
")+	c #24220C",
"!+	c #413E2C",
"~+	c #030302",
"{+	c #070701",
"]+	c #73715E",
"^+	c #413E20",
"/+	c #706E5C",
"(+	c #52503A",
"_+	c #403C26",
":+	c #37341C",
"<+	c #3C3920",
"[+	c #37331A",
"}+	c #3E3B29",
"|+	c #020100",
"1+	c #030100",
"2+	c #55554B",
"3+	c #39361A",
"4+	c #777461",
"5+	c #2F2C13",
"6+	c #64604E",
"7+	c #040402",
"8+	c #040301",
"9+	c #57543E",
"0+	c #3B391B",
"a+	c #6B6953",
"b+	c #6E6B56",
"c+	c #6C6956",
"d+	c #6A6856",
"e+	c #6E6B59",
"f+	c #696756",
"g+	c #35321A",
"h+	c #403C27",
"i+	c #505247",
"j+	c #36331A",
"k+	c #6F6C59",
"l+	c #342F16",
"m+	c #726F5F",
"n+	c #32322E",
"o+	c #22231B",
"p+	c #22231A",
"q+	c #191A12",
"r+	c #12140C",
"s+	c #0C0D06",
"t+	c #070605",
"u+	c #050402",
"v+	c #5B5847",
"w+	c #3C391F",
"x+	c #363318",
"y+	c #353116",
"z+	c #2D2A10",
"A+	c #28240B",
"B+	c #2F2B15",
"C+	c #312D17",
"D+	c #343118",
"E+	c #46432D",
"F+	c #050601",
"G+	c #59584C",
"H+	c #2F2C11",
"I+	c #757361",
"J+	c #333018",
"K+	c #52503B",
"L+	c #1E1D14",
"M+	c #0C0B07",
"N+	c #0B0A04",
"O+	c #18170E",
"P+	c #151102",
"Q+	c #231F07",
"R+	c #322D1B",
"S+	c #6D6D61",
"T+	c #7E7B6B",
"U+	c #312E17",
"V+	c #433F27",
"W+	c #525047",
"X+	c #080705",
"Y+	c #050400",
"Z+	c #050000",
"`+	c #0A0B02",
" @	c #2E2E26",
".@	c #8A8981",
"+@	c #2E2B11",
"@@	c #8A8979",
"#@	c #72715F",
"$@	c #696965",
"%@	c #1D1D18",
"&@	c #2C2C24",
"*@	c #323021",
"=@	c #090901",
"-@	c #98978C",
";@	c #383519",
">@	c #9E9D91",
",@	c #3B371B",
"'@	c #171509",
")@	c #020300",
"!@	c #070601",
"~@	c #060501",
"{@	c #33332F",
"]@	c #4C4B42",
"^@	c #1B1B18",
"/@	c #181814",
"(@	c #161612",
"_@	c #11110A",
":@	c #585852",
"<@	c #74725E",
"[@	c #2F2B12",
"}@	c #C6C6BF",
"|@	c #393518",
"1@	c #070501",
"2@	c #060500",
"3@	c #070604",
"4@	c #1E1B11",
"5@	c #121212",
"6@	c #10100F",
"7@	c #322F20",
"8@	c #8F8F89",
"9@	c #B5B4AC",
"0@	c #454329",
"a@	c #44412D",
"b@	c #F1F1EF",
"c@	c #2C290A",
"d@	c #111004",
"e@	c #010001",
"f@	c #070300",
"g@	c #29250C",
"h@	c #373317",
"i@	c #74715E",
"j@	c #322F15",
"k@	c #110E01",
"l@	c #18180B",
"m@	c #2F2E21",
"n@	c #2C280A",
"o@	c #49452A",
"p@	c #060400",
"q@	c #111007",
"r@	c #060700",
"s@	c #0F1004",
"t@	c #3B3C31",
"u@	c #48483F",
"v@	c #484841",
"w@	c #474642",
"x@	c #42413F",
"y@	c #2D2D2A",
"z@	c #171713",
"A@	c #75725E",
"B@	c #38351A",
"C@	c #9D9B90",
"D@	c #221E00",
"E@	c #080904",
"F@	c #0D0E02",
"G@	c #818278",
"H@	c #D6D5CF",
"I@	c #868473",
"J@	c #6D6B57",
"K@	c #514E38",
"L@	c #4E4B37",
"M@	c #B7B6AE",
"N@	c #383833",
"O@	c #96968E",
"P@	c #7F7D6D",
"Q@	c #25210C",
"R@	c #2F2C12",
"S@	c #040501",
"T@	c #AEADA2",
"U@	c #433F26",
"V@	c #413D23",
"W@	c #524F38",
"X@	c #534F3A",
"Y@	c #403C2B",
"Z@	c #3E3A23",
"`@	c #8A887E",
" #	c #1C1C14",
".#	c #777770",
"+#	c #504D36",
"@#	c #757364",
"##	c #3A361A",
"$#	c #4A4837",
"%#	c #040500",
"&#	c #17170E",
"*#	c #211F07",
"=#	c #100D00",
"-#	c #2F2C14",
";#	c #36331C",
">#	c #312E18",
",#	c #221F0F",
"'#	c #24210B",
")#	c #403E30",
"!#	c #3D3C32",
"~#	c #060701",
"{#	c #0A0A03",
"]#	c #707067",
"^#	c #7B786B",
"/#	c #3B381C",
"(#	c #686450",
"_#	c #100F0A",
":#	c #0D0D06",
"<#	c #1B1C12",
"[#	c #181911",
"}#	c #15160F",
"|#	c #161611",
"1#	c #1B1B15",
"2#	c #232418",
"3#	c #7E7E74",
"4#	c #5F5C45",
"5#	c #7E7B6C",
"6#	c #373419",
"7#	c #64624C",
"8#	c #212118",
"9#	c #060605",
"0#	c #090908",
"a#	c #100F0B",
"b#	c #26251D",
"c#	c #23221D",
"d#	c #292923",
"e#	c #24241D",
"f#	c #282720",
"g#	c #292921",
"h#	c #272720",
"i#	c #272620",
"j#	c #8C8B85",
"k#	c #545037",
"l#	c #7D7D6E",
"m#	c #373319",
"n#	c #4E4A31",
"o#	c #3A392F",
"p#	c #050403",
"q#	c #12120B",
"r#	c #15140E",
"s#	c #1D1D15",
"t#	c #202018",
"u#	c #212018",
"v#	c #18170F",
"w#	c #0B0A08",
"x#	c #050503",
"y#	c #0E0D04",
"z#	c #2A2B23",
"A#	c #A6A69E",
"B#	c #4C492F",
"C#	c #8D8C7E",
"D#	c #373417",
"E#	c #6B695D",
"F#	c #242320",
"G#	c #53524E",
"H#	c #1B1B13",
"I#	c #17170D",
"J#	c #1C1D14",
"K#	c #202118",
"L#	c #201F16",
"M#	c #1F2016",
"N#	c #1E1D17",
"O#	c #1D1D16",
"P#	c #14130D",
"Q#	c #070602",
"R#	c #41423C",
"S#	c #A6A59A",
"T#	c #3D391E",
"U#	c #B9B8AF",
"V#	c #393519",
"W#	c #635F4B",
"X#	c #36352A",
"Y#	c #454232",
"Z#	c #383628",
"`#	c #1B1B11",
" $	c #0D0C05",
".$	c #050504",
"+$	c #040403",
"@$	c #0A0903",
"#$	c #090902",
"$$	c #070801",
"%$	c #090A03",
"&$	c #111209",
"*$	c #1D1D13",
"=$	c #61655F",
"-$	c #7B7866",
";$	c #454229",
">$	c #F9F9F7",
",$	c #3C381D",
"'$	c #434025",
")$	c #706E61",
"!$	c #14130E",
"~$	c #16160D",
"{$	c #333329",
"]$	c #9D9D93",
"^$	c #423E23",
"/$	c #686551",
"($	c #FFFFFF",
"_$	c #3D391D",
":$	c #5F5C48",
"<$	c #090905",
"[$	c #060600",
"}$	c #0C0B04",
"|$	c #13130B",
"1$	c #13130A",
"2$	c #2A2A20",
"3$	c #A4A49F",
"4$	c #74715D",
"5$	c #413E22",
"6$	c #A5A297",
"7$	c #4B482E",
"8$	c #353118",
"9$	c #67644D",
"0$	c #8D8C86",
"a$	c #3D3D36",
"b$	c #090A01",
"c$	c #080800",
"d$	c #0B0C05",
"e$	c #2A2A21",
"f$	c #1B1C14",
"g$	c #0F0E07",
"h$	c #111009",
"i$	c #1B1A11",
"j$	c #303025",
"k$	c #818279",
"l$	c #838271",
"m$	c #48452B",
"n$	c #7A7866",
"o$	c #FCFCFB",
"p$	c #565341",
"q$	c #373315",
"r$	c #56523C",
"s$	c #A3A296",
"t$	c #C0BFB7",
"u$	c #8D8E88",
"v$	c #63645A",
"w$	c #404232",
"x$	c #222412",
"y$	c #17190A",
"z$	c #0A0B03",
"A$	c #0D0E04",
"B$	c #161808",
"C$	c #212311",
"D$	c #464838",
"E$	c #5E5F54",
"F$	c #282920",
"G$	c #71726B",
"H$	c #484940",
"I$	c #2B2B22",
"J$	c #4B4C42",
"K$	c #ADAEA8",
"L$	c #888777",
"M$	c #2E2A0D",
"N$	c #5F5C42",
"O$	c #4A4630",
"P$	c #3A361D",
"Q$	c #3D3921",
"R$	c #514D37",
"S$	c #63604B",
"T$	c #A3A39C",
"U$	c #747469",
"V$	c #83847B",
"W$	c #ABABA4",
"X$	c #A1A092",
"Y$	c #575443",
"Z$	c #615F49",
"`$	c #9B9A8F",
" %	c #898A82",
".%	c #BCBBB5",
"+%	c #919086",
"@%	c #8A8A83",
"#%	c #A0A19A",
"$%	c #A09F93",
"%%	c #5D5A44",
"&%	c #434026",
"*%	c #67644F",
"=%	c #D3D2CC",
"-%	c #9F9F93",
";%	c #726F5E",
">%	c #585440",
",%	c #4C4933",
"'%	c #46432A",
")%	c #302C12",
"!%	c #3B381E",
"~%	c #403D23",
"{%	c #48442D",
"]%	c #413F2C",
"^%	c #38341E",
"/%	c #322F18",
"(%	c #34311A",
"_%	c #39371F",
":%	c #413E24",
"<%	c #383419",
"[%	c #3C391E",
"}%	c #47442A",
"|%	c #7B7968",
"1%	c #F5F5F3",
"2%	c #949284",
"3%	c #989789",
"4%	c #9E9C8F",
"5%	c #B2B0A8",
"6%	c #D4D4CF",
"7%	c #B8B6AE",
"8%	c #99978C",
"9%	c #9A978B",
"0%	c #9A988C",
"a%	c #929080",
"b%	c #9B9A8A",
"c%	c #969484",
"d%	c #C8C7BF",
"e%	c #FFFFFE",
"                                                                                ",
"                                                                                ",
"                                . + @ # $ % & * & = - ;                         ",
"                        > , ' ) ! ~ ~ { ] ^ ^ ^ ^ / ( _ : < [                   ",
"                      } | 1 2 2 2 2 2 2 2 2 2 2 2 2 2 2 3 4 5 6                 ",
"                  7 8 9 2 2 2 2 0 2 2 2 2 a 2 b 0 c 2 2 2 d e f g h             ",
"                i j k 2 2 l m n o o p q o 0 2 2 2 o n n r s a t u v w           ",
"              x y 2 2 2 m z A ~ l p B m m C D B E E B F G 2 H 0 I J K L         ",
"            M N 2 2 2 O G z P Q z R S T m U ~ G Q Q V Q ~ ] l ] W X Y Z         ",
"            `  .2 2 2 o G ..+.Q @.#.$.....S S %.S ..&.*.=.-.;.>.,.'.).!.        ",
"            f F 2 0 a 0 l ~.{.].=.^./.(._.:.<.[.}.|.1.2.3.4.5.|.6.7.8.9.        ",
"          0.a.b.2 a 2 0 n ~ c.d.e.f.g.6.h.i.j.k.l.m.n.o.p.q.r.s.t.u.v.w.        ",
"          x.y.z.A.2 2 2 0 0 o B.C.D.E.F.G.H.I.J.K.L.M.N.O.P.Q.R.r.S.T.U.V.      ",
"          W.X.W 2 2 0 0 0 a 0 c.Y.Z.`. +.+++@+++#+$+%+&+*+=+&+-+;+>+,+v '+      ",
"          )+!+~+0 0 0 2 2 0 0 {+]+^+/+(+_+:+<+[+* }+Q a |+0 |+1+2 |+2+3+4+      ",
"          5+6+7+E c 2 2 0 2 0 8+9+0+a+b+c+d+e+f+g+h+~ 0 2 |+E E 0 O i+j+k+      ",
"          l+m+n+o+p+q+r+s+t+u+|+v+w+x+y+z+A+B+C+D+E+F+O 8+O O &+O &+G+H+I+      ",
"          J+K+L+2 F ~ W ..M+M+N+O+2 2 2 2 2 2 P+Q+R+B B 8+|+0 0 E {+S+x+T+      ",
"          U+V+W+X+D D U A G Y+U 2 2 2 0 B E 2 O Z+O 2 `+ @o 2 0 0 D .@+@@@      ",
"            y+#@$@%@B U G G P U B E E 0 E 0 0 E 2 2 2 &@*@o 0 O l =@-@;@>@      ",
"            ,@'@2 a )@T U !@P ~@B E 0 2 0 b b 0 0 0 0 {@]@^@/@(@_@:@<@[@}@      ",
"            |@1@0 0 D T %+{+2@Y+F E o p b 0 0 0 E E O 3@4@5@6@7@8@9@0@a@b@      ",
"            c@d@2 a D {+U %+U D D E 0 e@0 E 0 0 B E 0 0 2 2 2 2 2 f@g@h@i@      ",
"          j@k@l@2 |+)@C F G U B D D )@B l n |+0 7+n B B 2 0 2 0 0 0 m@n@o@      ",
"          ;@p@q@a E B {+P ~ m D r@s@t@u@v@w@x@y@] n l D E E 0 q E 2 z@A@B@C@    ",
"          3+D@E@2 0 E D m m m B F@G@H@I@J@K@L@M@N@D B B &+B l 8+O 0 m O@h@P@    ",
"          Q@R@l 2 0 B C m m &+S@t@T@U@V@W@X@Y@Z@`@ #m D D Y+D D U U G .#+#@#    ",
"          ##$#T p |+E B &+U %#G &#*#=#-#;#>#,#'#)#!#T C U ~#F+T {#G c.]#`.^#    ",
"          /#(#_#a 0 n m ~@U %+*+~@2 2 2 2 2 2 2 2 ~@:#=.4.<#[#}#|#1#2#3#4#5#    ",
"          6#7#8#2 2 0 E E Y+m Y+B O F o ~+7+7+9#0#a#b#c#d#e#f#g#h#i# @j#k#l#    ",
"          m#n#o#p#2 E G m m T ....:#q#r#s#t#t#u#v#w#l 2 2 2 E n x#y#z#A#B#C#    ",
"            D#E#F#G#H#4.I#J#K#L#1.M#N#O#P#P |+2 2 E n @.Q#G l E x#N+R#S#T#U#    ",
"            V#W#X#Y#Z#`# $.$+$o E o 2 2 2 a E l m G @$#${+$$T %$&$*$=$-$;$>$    ",
"            ,$'$)$!$F 9 o 2 E O 0 0 |+Y+D C m T A G %.+.V z c.B.~${$]$^$/$($    ",
"              _$:$.@<$2 ~ E |+B E B D D D [$G V P V }$N+z {.|$1$2$3$4$5$6$($    ",
"              7$8$9$0$a$#$b$c$U D D U %#C [$#$d$Q &.e$f$g$h$i$j$k$l$m$n$o$      ",
"                p$q$r$s$t$u$v$w$x$y$z$A$B$C$D$E$F$M#G$H$H#I$J$K$L$M$N$($        ",
"                    O$P$Q$R$K@S$.+T$U$V$W$X$Y$Z$`$ %.%+%@%#%$%%%&%*%=%($        ",
"                      -%;%>%,%'%w+g )%!%~%{%]%^%/%(%_%B@:%<%[%}%|%1%($          ",
"                                    2%3%4%5%6%7%8%9%0%a%b%c%4%d%e%              "};
