/* XPM */
static char * character_xpm[] = {
"64 64 253 2",
"  	c None",
". 	c #B3222E",
"+ 	c #BD232F",
"@ 	c #C32430",
"# 	c #C52430",
"$ 	c #C42430",
"% 	c #C82A35",
"& 	c #891E2B",
"* 	c #8C1E2B",
"= 	c #991F2C",
"- 	c #AC212E",
"; 	c #C12430",
"> 	c #C22430",
", 	c #CE303B",
"' 	c #E4464E",
") 	c #8B1E2B",
"! 	c #98202C",
"~ 	c #A6212D",
"{ 	c #AB212E",
"] 	c #B7232F",
"^ 	c #CB2D38",
"/ 	c #DA3D46",
"( 	c #E74952",
"_ 	c #8D1E2B",
": 	c #901E2B",
"< 	c #A3202D",
"[ 	c #B2222E",
"} 	c #B01F2C",
"| 	c #AD1F2C",
"1 	c #B94F55",
"2 	c #D1797C",
"3 	c #E17075",
"4 	c #DF4F56",
"5 	c #8A1E2B",
"6 	c #911F2B",
"7 	c #8E1D2A",
"8 	c #741321",
"9 	c #651923",
"0 	c #9B7E80",
"a 	c #DAC2C3",
"b 	c #E1A5A7",
"c 	c #BE4B4F",
"d 	c #8C5C5E",
"e 	c #C4C5C5",
"f 	c #F4F5F5",
"g 	c #7A1A28",
"h 	c #490D1C",
"i 	c #201920",
"j 	c #8C8D8F",
"k 	c #DFD8D9",
"l 	c #E1B7B8",
"m 	c #AE484D",
"n 	c #805E60",
"o 	c #C4C4C6",
"p 	c #F3F4F4",
"q 	c #480D1D",
"r 	c #19141E",
"s 	c #7A7C7E",
"t 	c #C5BEBE",
"u 	c #D1A0A1",
"v 	c #AB4045",
"w 	c #795355",
"x 	c #ACADAF",
"y 	c #D9DADA",
"z 	c #7C1A28",
"A 	c #531020",
"B 	c #320E1D",
"C 	c #52474C",
"D 	c #846F72",
"E 	c #AC5F63",
"F 	c #A92B34",
"G 	c #773137",
"H 	c #776669",
"I 	c #908082",
"J 	c #CC2F39",
"K 	c #E0444D",
"L 	c #EF5058",
"M 	c #831D2A",
"N 	c #731927",
"O 	c #6A1725",
"P 	c #681826",
"Q 	c #761C29",
"R 	c #B5212E",
"S 	c #A11D2A",
"T 	c #961E2A",
"U 	c #A1212C",
"V 	c #B9232F",
"W 	c #C82935",
"X 	c #D43842",
"Y 	c #E3464E",
"Z 	c #F05159",
"` 	c #871E2B",
" .	c #861D2A",
"..	c #851D2A",
"+.	c #8B1C2A",
"@.	c #A21F2C",
"#.	c #B4222E",
"$.	c #B9212E",
"%.	c #C1222E",
"&.	c #C1232F",
"*.	c #B7222E",
"=.	c #AF222E",
"-.	c #B2232E",
";.	c #C02833",
">.	c #CD3841",
",.	c #D5454D",
"'.	c #911F2C",
").	c #961F2C",
"!.	c #9D202C",
"~.	c #B1222E",
"{.	c #BF2430",
"].	c #BA232F",
"^.	c #9B212C",
"/.	c #801E2A",
"(.	c #8A1F2A",
"_.	c #AD222E",
":.	c #B22833",
"<.	c #A52D37",
"[.	c #B32A34",
"}.	c #881E2B",
"|.	c #9B202C",
"1.	c #A6202D",
"2.	c #A2202D",
"3.	c #8B1F2B",
"4.	c #761D29",
"5.	c #841E2A",
"6.	c #AB212D",
"7.	c #A9212D",
"8.	c #8F1E2B",
"9.	c #A7212D",
"0.	c #B9222F",
"a.	c #C0232F",
"b.	c #941F2C",
"c.	c #A8212D",
"d.	c #BC232F",
"e.	c #951F2C",
"f.	c #A8212E",
"g.	c #BB232F",
"h.	c #B4222F",
"i.	c #9A1F2C",
"j.	c #9E202C",
"k.	c #921E2B",
"l.	c #7B1D2A",
"m.	c #781D29",
"n.	c #851E2B",
"o.	c #791D2A",
"p.	c #661D28",
"q.	c #5E1C27",
"r.	c #5F1C27",
"s.	c #851E2A",
"t.	c #771D29",
"u.	c #5A1C27",
"v.	c #551C27",
"w.	c #841E2B",
"x.	c #661C28",
"y.	c #591C27",
"z.	c #571C27",
"A.	c #7F1E2A",
"B.	c #671D28",
"C.	c #7B1E2A",
"D.	c #621D27",
"E.	c #791E29",
"F.	c #751E29",
"G.	c #6D1D29",
"H.	c #5C1C27",
"I.	c #5B1C27",
"J.	c #581C27",
"K.	c #621C27",
"L.	c #561C27",
"M.	c #7E1E2A",
"N.	c #5D1C27",
"O.	c #6B1D29",
"P.	c #801E2B",
"Q.	c #751D29",
"R.	c #741D29",
"S.	c #7D1E2A",
"T.	c #6C1D28",
"U.	c #881F2A",
"V.	c #821E2A",
"W.	c #7C1D2A",
"X.	c #791D29",
"Y.	c #9C202D",
"Z.	c #AF222D",
"`.	c #7C1E29",
" +	c #731D28",
".+	c #AA212E",
"++	c #B5232F",
"@+	c #9F202C",
"#+	c #5F1D28",
"$+	c #721D29",
"%+	c #771E2A",
"&+	c #771E29",
"*+	c #861E2B",
"=+	c #831E2B",
"-+	c #BE242F",
";+	c #801E29",
">+	c #601D27",
",+	c #781E29",
"'+	c #5F1C28",
")+	c #691C28",
"!+	c #761D2A",
"~+	c #7E1D2A",
"{+	c #BE232F",
"]+	c #BD242F",
"^+	c #A5212D",
"/+	c #741E29",
"(+	c #601D28",
"_+	c #651D28",
":+	c #691D28",
"<+	c #831E2A",
"[+	c #751D2A",
"}+	c #641C28",
"|+	c #641C27",
"1+	c #971F2C",
"2+	c #AA212D",
"3+	c #BD2430",
"4+	c #AE222E",
"5+	c #7A1E29",
"6+	c #621C28",
"7+	c #771D2A",
"8+	c #781D2A",
"9+	c #731D29",
"0+	c #641D28",
"a+	c #631C27",
"b+	c #7D1D2A",
"c+	c #AC222E",
"d+	c #AD212E",
"e+	c #611C27",
"f+	c #AF212E",
"g+	c #AB222D",
"h+	c #681C28",
"i+	c #7A1E2A",
"j+	c #9F202D",
"k+	c #711D28",
"l+	c #671C28",
"m+	c #8E1F2C",
"n+	c #601C28",
"o+	c #6D1C29",
"p+	c #811E2A",
"q+	c #6C1C28",
"r+	c #821E2B",
"s+	c #6D1C28",
"t+	c #6F1D28",
"u+	c #6E1D28",
"v+	c #B0222E",
"w+	c #B8232F",
"x+	c #6E1D29",
"y+	c #9B202D",
"z+	c #5E1C28",
"A+	c #6F1D29",
"B+	c #5D1C28",
"C+	c #601C27",
"D+	c #951F2B",
"                                                                                                                                ",
"                                                                                                                                ",
"                                                                                                                                ",
"                                                                                                                                ",
"                                                                                                                                ",
"                                                                          . + @ # $ $ $ $ %                                     ",
"                                                                    & & * = - + ; > $ $ $ , '                                   ",
"                                                                  & & & & ) ! ~ { ] @ $ $ ^ / (                                 ",
"                                                                  & & & & & ) _ : < [ } | 1 2 3 4                               ",
"                                                                  & & & & & & & 5 6 7 8 9 0 a b c d e f                         ",
"                                                                  & & & & & & & & & g h i j k l m n o p                         ",
"                                                                & & & & & & & & & & g q r s t u v w x y                         ",
"                                                              & & & & & & & & & & & z A B C D E F G H I       J K L             ",
"                                                              & & & & & & & & & & & M N O P Q < R S T U V # $ W X Y Z           ",
"                                                              & & & & & & & & & & & & `  ...+.@.[ #.$.%.&.*.=.-.;.>.,.          ",
"                                                            & & & & & & & & & & & & & & 5 & ) '.).!.~.{.].^./.(._.:.<.[.        ",
"                                                            & & & & & & & & & & & & & & & & & & }.* |.1.2.3.4.5.6.#.7.] @       ",
"                                                            & & & & & & & & & & & & & & & & & & & & ) * * & ` 8.9.0.a.@ $       ",
"                                                            & & & & & & & & & & & & & & & & & & & & & }.}.& & ) b.c.d.@ $       ",
"                                                            & & & & & & & & & & & & & & & & & & & & & & & & & & 5 e.f.g.$       ",
"                                                          & & & & & & & & & & & & & & & & & & & & & & & & & & & & & ).h.@       ",
"                                                        & & & & & & & & & & & & & & & & & & & & & & & & & & & & & ) i.#.@       ",
"                                                        & & & & & & & & & & & & & & & & & & & & & & & & & & & & 5 = - V         ",
"                                                        & & & & & & & & & & & & & & & & & & & & & & & & & & & & ) j.V           ",
"                                                      & & & & & & & & & & & & & & & & & & & & & & & & & & & & & 5 k.            ",
"                                                      & & & & & & & & & & & & & & & & & & }.}.}.}.                              ",
"                                                    & & & & & & & & & & & & & & & & & & & 5.l.m.m.                              ",
"                                                  & & & & & & & & & & & & & & & & & & & n.o.p.q.r.                              ",
"                                                  & & & & & & & & & & & & & & & & & }.s.t.p.u.v.                                ",
"                                                & & & & & & & & & & & & & & & & & & w.m.x.y.z.                                  ",
"                                                & & & & & & & & & & & & & & & & & & A.B.u.z.z.                                  ",
"                                                & & & & & & & & & & & & & & & }.` ` C.D.z.z.z.                                  ",
"                                              & & & & & & & & & & & & & & & & 5.E.F.G.q.z.z.z.                                  ",
"                                            & & & & & & & & & & & & & & & & & A.B.H.I.J.z.z.                                    ",
"                                          & & & & & & & & & & & & & & & & & ` C.K.L.L.z.z.z.                                    ",
"                                        & & & & & & & & & & & & & & & & & ` M.G.N.z.z.z.z.z.                                    ",
"          & &                         & & & & & & & & & & & 5 5 & & & 5 ` M.G.H.J.z.z.z.z.z.                                    ",
"          & & &                     & & & & & & & & & & & ` n.n.` & & }.M.O.N.J.z.z.z.z.z.                                      ",
"          & & & & &           & & & & & & & & & & & & & }.P.Q.R.M.` ` S.T.N.z.z.z.z.z.z.                                        ",
"          & & & & & &       & & & & & & & & & & & & & & & 5 (.U.V.W.X.T.H.z.z.z.z.z.z.z.                                        ",
"          & & & & & & & & & & & & & & & & & & & & & & & * Y.Z.~.|.`. +x.J.L.z.z.z.z.z.J.                                        ",
"            ` ` }.& & & & & & & & & & & & & & & }.& & & 5 )..+].++9.@+5.#+z.z.z.z.z.z.H.$+                                      ",
"            %+&+S.*+& & & & & & & & & & & & & =+A.n.& & & ) e.{ g.> -+~ ;+K.z.z.z.z.z.>+,+`                                     ",
"            '+r.)+l.V.w.}.& & & & & & & & }.w.!+G.~+}.& & & ) e.{ {+@ ]+^+/+z.z.z.z.z.(+E.}.                                    ",
"              L.H._+:+R.<+}.` ` ` ` }.}.}.=+[+}+|+W.}.& & & & 5 1+2+3+@ 4+E.z.z.z.z.z.(+5+}.&                                   ",
"              z.z.z.J.6+$+7+7+7+7+7+7+8+8+9+0+J.a+b+}.& & & & & 5 ).c+g.d+X.z.z.z.z.z.(+5+}.&                                   ",
"                z.z.z.y.N.q.q.q.q.q.q.r.'+N.u.z.e+m.n.}.& & & & & ) ).f+g+E.z.z.z.z.z.'+4.s.}.                                  ",
"                    z.z.z.z.z.z.z.z.z.z.z.z.z.z.u.h+i+*+& & & & & }.8.2+7.,+z.z.z.z.z.u.x.m.s.                                  ",
"                      z.z.z.z.z.z.z.z.z.z.z.z.z.z.N.m.*+& & & & & }._ j+|.k+z.z.z.z.z.z.y.l+4.                                  ",
"                          z.z.z.z.z.z.z.z.z.z.z.L.  w.& & & & & & & 5 m+s.x.z.z.z.z.z.z.z.I.n+                                  ",
"                                                    & & & & & & & & & }.    z.z.z.z.z.z.J.J.                                    ",
"                                                    & & & & & & & & &       z.z.z.z.z.I.x.o+                                    ",
"                                                  & & & & & & & & & &       z.z.z.z.I.p.t.V.                                    ",
"                                                  & & & & & & & & &         z.z.z.J.x.t.p+                                      ",
"                                                & & & & & & & & &           z.z.z.y.q+r+                                        ",
"                                                p+*+& & & & & &           z.z.z.z.y.s+r+                                        ",
"                                                t+A.}.& & & )           z.z.z.z.z.y.s+r+                                        ",
"                                                r.u+M.` & & b.v+      z.z.z.z.z.z.y.s+=+&                                       ",
"                                                J.N.t+A.` 5 Y.w+$       z.z.z.z.z.J.)+M.` &                                     ",
"                                                  J.q.x+A.}.y+] > $       z.z.z.z.J.z+T.M.` &                                   ",
"                                                    z.q.A+/.'.9.V @         z.z.z.z.z.B+x+b+`                                   ",
"                                                      z.C+t.}.D+=.;             z.z.z.z.N.$+s.                                  ",
"                                                                                                                                ",
"                                                                                                                                "};
