/* XPM */
static char * character_xpm[] = {
"64 64 255 2",
"  	c #FFFFFF",
". 	c #CBDBFC",
"+ 	c #9BADB7",
"@ 	c #B3222E",
"# 	c #BD232F",
"$ 	c #C32430",
"% 	c #C52430",
"& 	c #C42430",
"* 	c #C82A35",
"= 	c #891E2B",
"- 	c #8C1E2B",
"; 	c #991F2C",
"> 	c #AC212E",
", 	c #C12430",
"' 	c #C22430",
") 	c #CE303B",
"! 	c #E4464E",
"~ 	c #8B1E2B",
"{ 	c #98202C",
"] 	c #A6212D",
"^ 	c #AB212E",
"/ 	c #B7232F",
"( 	c #CB2D38",
"_ 	c #DA3D46",
": 	c #E74952",
"< 	c #8D1E2B",
"[ 	c #901E2B",
"} 	c #A3202D",
"| 	c #B2222E",
"1 	c #B01F2C",
"2 	c #AD1F2C",
"3 	c #B94F55",
"4 	c #D1797C",
"5 	c #E17075",
"6 	c #DF4F56",
"7 	c #8A1E2B",
"8 	c #911F2B",
"9 	c #8E1D2A",
"0 	c #741321",
"a 	c #651923",
"b 	c #9B7E80",
"c 	c #DAC2C3",
"d 	c #E1A5A7",
"e 	c #BE4B4F",
"f 	c #8C5C5E",
"g 	c #C4C5C5",
"h 	c #F4F5F5",
"i 	c #7A1A28",
"j 	c #490D1C",
"k 	c #201920",
"l 	c #8C8D8F",
"m 	c #DFD8D9",
"n 	c #E1B7B8",
"o 	c #AE484D",
"p 	c #805E60",
"q 	c #C4C4C6",
"r 	c #F3F4F4",
"s 	c #480D1D",
"t 	c #19141E",
"u 	c #7A7C7E",
"v 	c #C5BEBE",
"w 	c #D1A0A1",
"x 	c #AB4045",
"y 	c #795355",
"z 	c #ACADAF",
"A 	c #D9DADA",
"B 	c #7C1A28",
"C 	c #531020",
"D 	c #320E1D",
"E 	c #52474C",
"F 	c #846F72",
"G 	c #AC5F63",
"H 	c #A92B34",
"I 	c #773137",
"J 	c #776669",
"K 	c #908082",
"L 	c #CC2F39",
"M 	c #E0444D",
"N 	c #EF5058",
"O 	c #831D2A",
"P 	c #731927",
"Q 	c #6A1725",
"R 	c #681826",
"S 	c #761C29",
"T 	c #B5212E",
"U 	c #A11D2A",
"V 	c #961E2A",
"W 	c #A1212C",
"X 	c #B9232F",
"Y 	c #C82935",
"Z 	c #D43842",
"` 	c #E3464E",
" .	c #F05159",
"..	c #871E2B",
"+.	c #861D2A",
"@.	c #851D2A",
"#.	c #8B1C2A",
"$.	c #A21F2C",
"%.	c #B4222E",
"&.	c #B9212E",
"*.	c #C1222E",
"=.	c #C1232F",
"-.	c #B7222E",
";.	c #AF222E",
">.	c #B2232E",
",.	c #C02833",
"'.	c #CD3841",
").	c #D5454D",
"!.	c #911F2C",
"~.	c #961F2C",
"{.	c #9D202C",
"].	c #B1222E",
"^.	c #BF2430",
"/.	c #BA232F",
"(.	c #9B212C",
"_.	c #801E2A",
":.	c #8A1F2A",
"<.	c #AD222E",
"[.	c #B22833",
"}.	c #A52D37",
"|.	c #B32A34",
"1.	c #881E2B",
"2.	c #9B202C",
"3.	c #A6202D",
"4.	c #A2202D",
"5.	c #8B1F2B",
"6.	c #761D29",
"7.	c #841E2A",
"8.	c #AB212D",
"9.	c #A9212D",
"0.	c #8F1E2B",
"a.	c #A7212D",
"b.	c #B9222F",
"c.	c #C0232F",
"d.	c #941F2C",
"e.	c #A8212D",
"f.	c #BC232F",
"g.	c #951F2C",
"h.	c #A8212E",
"i.	c #BB232F",
"j.	c #B4222F",
"k.	c #9A1F2C",
"l.	c #9E202C",
"m.	c #921E2B",
"n.	c #7B1D2A",
"o.	c #781D29",
"p.	c #851E2B",
"q.	c #791D2A",
"r.	c #661D28",
"s.	c #5E1C27",
"t.	c #5F1C27",
"u.	c #851E2A",
"v.	c #771D29",
"w.	c #5A1C27",
"x.	c #551C27",
"y.	c #841E2B",
"z.	c #661C28",
"A.	c #591C27",
"B.	c #571C27",
"C.	c #7F1E2A",
"D.	c #671D28",
"E.	c #7B1E2A",
"F.	c #621D27",
"G.	c #791E29",
"H.	c #751E29",
"I.	c #6D1D29",
"J.	c #5C1C27",
"K.	c #5B1C27",
"L.	c #581C27",
"M.	c #621C27",
"N.	c #561C27",
"O.	c #7E1E2A",
"P.	c #5D1C27",
"Q.	c #6B1D29",
"R.	c #801E2B",
"S.	c #751D29",
"T.	c #741D29",
"U.	c #7D1E2A",
"V.	c #6C1D28",
"W.	c #881F2A",
"X.	c #821E2A",
"Y.	c #7C1D2A",
"Z.	c #791D29",
"`.	c #9C202D",
" +	c #AF222D",
".+	c #7C1E29",
"++	c #731D28",
"@+	c #AA212E",
"#+	c #B5232F",
"$+	c #9F202C",
"%+	c #5F1D28",
"&+	c #721D29",
"*+	c #771E2A",
"=+	c #771E29",
"-+	c #861E2B",
";+	c #831E2B",
">+	c #BE242F",
",+	c #801E29",
"'+	c #601D27",
")+	c #781E29",
"!+	c #5F1C28",
"~+	c #691C28",
"{+	c #761D2A",
"]+	c #7E1D2A",
"^+	c #BE232F",
"/+	c #BD242F",
"(+	c #A5212D",
"_+	c #741E29",
":+	c #601D28",
"<+	c #651D28",
"[+	c #691D28",
"}+	c #831E2A",
"|+	c #751D2A",
"1+	c #641C28",
"2+	c #641C27",
"3+	c #971F2C",
"4+	c #AA212D",
"5+	c #BD2430",
"6+	c #AE222E",
"7+	c #7A1E29",
"8+	c #621C28",
"9+	c #771D2A",
"0+	c #781D2A",
"a+	c #731D29",
"b+	c #641D28",
"c+	c #631C27",
"d+	c #7D1D2A",
"e+	c #AC222E",
"f+	c #AD212E",
"g+	c #611C27",
"h+	c #AF212E",
"i+	c #AB222D",
"j+	c #681C28",
"k+	c #7A1E2A",
"l+	c #9F202D",
"m+	c #711D28",
"n+	c #671C28",
"o+	c #8E1F2C",
"p+	c #601C28",
"q+	c #6D1C29",
"r+	c #811E2A",
"s+	c #6C1C28",
"t+	c #821E2B",
"u+	c #6D1C28",
"v+	c #6F1D28",
"w+	c #6E1D28",
"x+	c #B0222E",
"y+	c #B8232F",
"z+	c #6E1D29",
"A+	c #9B202D",
"B+	c #5E1C28",
"C+	c #6F1D29",
"D+	c #5D1C28",
"E+	c #601C27",
"F+	c #951F2B",
"                  .             .                       .                         .             .                       .       ",
"                                                                                                                                ",
"                                                                                                                                ",
".                                               .                                                               .               ",
"                                            .   .                     + +                                   .   .               ",
"                                            .   .                   + . . @ # $ % & & & & *                 .   .               ",
"                                            .                       = = - ; > # , ' & & & ) !               .                   ",
"      . . .                                 .                     = = = = ~ { ] ^ / $ & & ( _ :             .                   ",
"                                                                  = = = = = ~ < [ } | 1 2 3 4 5 6                               ",
"        . . . .                                                   = = = = = = = 7 8 9 0 a b c d e f g h                       . ",
"                                                                  = = = = = = = = = i j k l m n o p q r                         ",
"                                                                = = = = = = = = = = i s t u v w x y z A                         ",
"                                                              = = = = = = = = = = = B C D E F G H I J K       L M N             ",
"                                                              = = = = = = = = = = = O P Q R S } T U V W X % & Y Z `  .          ",
"                                                              = = = = = = = = = = = = ..+.@.#.$.| %.&.*.=.-.;.>.,.'.).          ",
".                                                           = = = = = = = = = = = = = = 7 = ~ !.~.{.].^./.(._.:.<.[.}.|.        ",
"                                                            = = = = = = = = = = = = = = = = = = 1.- 2.3.4.5.6.7.8.%.9./ $     . ",
"                                                            = = = = = = = = = = = = = = = = = = = = ~ - - = ..0.a.b.c.$ &       ",
"                                                            = = = = = = = = = = = = = = = = = = = = = 1.1.= = ~ d.e.f.$ &       ",
"                                                            = = = = = = = = = = = = = = = = = = = = = = = = = = 7 g.h.i.&       ",
"                                                          = = = = = = = = = = = = = = = = = = = = = = = = = = = = = ~.j.$       ",
"                                                        = = = = = = = = = = = = = = = = = = = = = = = = = = = = = ~ k.%.$       ",
".                                                       = = = = = = = = = = = = = = = = = = = = = = = = = = = = 7 ; > X         ",
"                                                        = = = = = = = = = = = = = = = = = = = = = = = = = = = = ~ l.X           ",
"                          +                 .         = = = = = = = = = = = = = = = = = = = = = = = = = = = = = 7 m.. . .       ",
"                        +   +               .         = = = = = = = = = = = = = = = = = = 1.1.1.1.                              ",
"          + . .           +                 .   .   = = = = = = = = = = = = = = = = = = = 7.n.o.o.                              ",
"        + . .                               .   . = = = = = = = = = = = = = = = = = = = p.q.r.s.t.                              ",
"        + . +                                   . = = = = = = = = = = = = = = = = = 1.u.v.r.w.x.                              . ",
"          + . . .                               = = = = = = = = = = = = = = = = = = y.o.z.A.B.                                  ",
"              . . .                             = = = = = = = = = = = = = = = = = = C.D.w.B.B.                                  ",
"                                .               = = = = = = = = = = = = = = = 1.....E.F.B.B.B.                                  ",
"                                  .           = = = = = = = = = = = = = = = = 7.G.H.I.s.B.B.B..                                 ",
"                                .           = = = = = = = = = = = = = = = = = C.D.J.K.L.B.B.                . . .               ",
"                                          = = = = = = = = = = = = = = = = = ..E.M.N.N.B.B.B.                  . . . +           ",
".                                       = = = = = = = = = = = = = = = = = ..O.I.P.B.B.B.B.B.                      + . +         ",
"          = =                         = = = = = = = = = = = 7 7 = = = 7 ..O.I.J.L.B.B.B.B.B.                      . . +         ",
"          = = =                     = = = = = = = = = = = ..p.p...= = 1.O.Q.P.L.B.B.B.B.B.          +           . . +           ",
"          = = = = =           = = = = = = = = = = = = = 1.R.S.T.O.....U.V.P.B.B.B.B.B.B.          +   +                         ",
"      . . = = = = = =       = = = = = = = = = = = = = = = 7 :.W.X.Y.Z.V.J.B.B.B.B.B.B.B.            +                           ",
"          = = = = = = = = = = = = = = = = = = = = = = = - `. +].2..+++z.L.N.B.B.B.B.B.L.                                        ",
"        . . ....1.= = = = = = = = = = = = = = = 1.= = = 7 ~.@+/.#+a.$+7.%+B.B.B.B.B.B.J.&+                                    . ",
"            *+=+U.-+= = = = = = = = = = = = = ;+C.p.= = = ~ g.^ i.' >+] ,+M.B.B.B.B.B.'+)+..                                    ",
"            !+t.~+n.X.y.1.= = = = = = = = 1.y.{+I.]+1.= = = ~ g.^ ^+$ /+(+_+B.B.B.B.B.:+G.1.                                    ",
"              N.J.<+[+T.}+1.........1.1.1.;+|+1+2+Y.1.= = = = 7 3+4+5+$ 6+G.B.B.B.B.B.:+7+1.=                                   ",
"              B.B.B.L.8+&+9+9+9+9+9+9+0+0+a+b+L.c+d+1.= = = = = 7 ~.e+i.f+Z.B.B.B.B.B.:+7+1.=                                   ",
"                B.B.B.A.P.s.s.s.s.s.s.t.!+P.w.B.g+o.p.1.= = = = = ~ ~.h+i+G.B.B.B.B.B.!+6.u.1.                                  ",
".                   B.B.B.B.B.B.B.B.B.B.B.B.B.B.w.j+k+-+= = = = = 1.0.4+9.)+B.B.B.B.B.w.z.o.u.                                  ",
"                      B.B.B.B.B.B.B.B.B.B.B.B.B.B.P.o.-+= = = = = 1.< l+2.m+B.B.B.B.B.B.A.n+6.                                . ",
"                          B.B.B.B.B.B.B.B.B.B.B.N.+ y.= = = = = = = 7 o+u.z.B.B.B.B.B.B.B.K.p+                                  ",
"                                                +   = = = = = = = = = 1.    B.B.B.B.B.B.L.L.                                    ",
"                                                  + = = = = = = = = =       B.B.B.B.B.K.z.q+                                    ",
"                                                  = = = = = = = = = =       B.B.B.B.K.r.v.X.                                    ",
"                                                  = = = = = = = = =         B.B.B.L.z.v.r+                                      ",
".                                               = = = = = = = = =           B.B.B.A.s+t+                        . . . .         ",
"                                                r+-+= = = = = =           B.B.B.B.A.u+t+                                        ",
"                  .                             v+C.1.= = = ~           B.B.B.B.B.A.u+t+                            . . .       ",
"                  .                             t.w+O...= = d.x+      B.B.B.B.B.B.A.u+;+=                                       ",
"          +   .   .                             L.P.v+C...7 `.y+&       B.B.B.B.B.L.~+O...=                         +           ",
"        +     .   .                               L.s.z+C.1.A+/ ' &       B.B.B.B.L.B+V.O...=                         +         ",
"              .                                     B.s.C+_.!.a.X $         B.B.B.B.B.D+z+d+..                                . ",
"                                                      B.E+v.1.F+;.,             B.B.B.B.P.&+u.                                  ",
"                                                                                                                                ",
"      .                       .             .                         .                       .             .                   "};
