/* XPM */
static char * character_xpm[] = {
"64 64 564 2",
"  	c #FFFFFF",
". 	c #CBDBFC",
"+ 	c #CDD9FB",
"@ 	c #FEF3FB",
"# 	c #FDECF8",
"$ 	c #FDE7F7",
"% 	c #FCDAF3",
"& 	c #FCDEF4",
"* 	c #FEF6FC",
"= 	c #FEEDF9",
"- 	c #FEF1FA",
"; 	c #FDE2F5",
"> 	c #FBCEEF",
", 	c #FABEEA",
"' 	c #FAB7E8",
") 	c #F9B0E6",
"! 	c #F9AAE5",
"~ 	c #FAB4E8",
"{ 	c #FDE3F5",
"] 	c #FABBE9",
"^ 	c #FAB6E8",
"/ 	c #FBCCEE",
"( 	c #FCD9F2",
"_ 	c #FDE5F6",
": 	c #FFFAFD",
"< 	c #FDEBF8",
"[ 	c #FCD4F0",
"} 	c #F9AFE6",
"| 	c #FAB3E7",
"1 	c #F9ADE6",
"2 	c #FBD2F0",
"3 	c #F9ACE5",
"4 	c #F9B2E7",
"5 	c #F9B1E7",
"6 	c #FBC8ED",
"7 	c #FCE0F4",
"8 	c #F9B3E7",
"9 	c #F9ABE5",
"0 	c #FAB5E8",
"a 	c #FDE6F6",
"b 	c #FFFCFE",
"c 	c #FDE8F7",
"d 	c #FCD3F0",
"e 	c #F9ACE6",
"f 	c #FEF8FD",
"g 	c #FCD6F1",
"h 	c #BCACC6",
"i 	c #FBC0E9",
"j 	c #FAACE4",
"k 	c #F9A9E3",
"l 	c #FCD3EF",
"m 	c #F9AEE6",
"n 	c #FBC4EC",
"o 	c #FCDBF3",
"p 	c #F5AFE7",
"q 	c #EDB2E9",
"r 	c #F08CD7",
"s 	c #F887DB",
"t 	c #F88DDC",
"u 	c #F9ACE4",
"v 	c #F7AAE4",
"w 	c #F0A4E3",
"x 	c #F797DF",
"y 	c #F9CDEB",
"z 	c #F9B6E7",
"A 	c #FBC7ED",
"B 	c #FEEFF9",
"C 	c #FAB8E9",
"D 	c #F7AAE2",
"E 	c #F399D7",
"F 	c #F78BDB",
"G 	c #F586D7",
"H 	c #E69BBE",
"I 	c #F8ADE6",
"J 	c #FCDFF4",
"K 	c #F8AAE4",
"L 	c #F8AAE5",
"M 	c #F6A8E1",
"N 	c #F4A1DB",
"O 	c #F189D0",
"P 	c #F785D9",
"Q 	c #F786DA",
"R 	c #F684D8",
"S 	c #E871B8",
"T 	c #DE78A3",
"U 	c #F8AAE3",
"V 	c #FBCFEF",
"W 	c #FAC0EB",
"X 	c #EF9FD6",
"Y 	c #D36A98",
"Z 	c #CF558B",
"` 	c #D14E7F",
" .	c #D0456E",
"..	c #C52430",
"+.	c #D35978",
"@.	c #EF8FBF",
"#.	c #F7A8DE",
"$.	c #F9ADE5",
"%.	c #FABDEA",
"&.	c #FDE9F7",
"*.	c #FAB8E8",
"=.	c #F5A7E1",
"-.	c #D082B0",
";.	c #A04661",
">.	c #931F2C",
",.	c #B4222E",
"'.	c #BE232F",
").	c #BB212D",
"!.	c #BC2B35",
"~.	c #C9565A",
"{.	c #E26D80",
"].	c #F5A0BF",
"^.	c #F8AEE5",
"/.	c #F7A9E3",
"(.	c #D98CBD",
"_.	c #C0729B",
":.	c #A85575",
"<.	c #881E2B",
"[.	c #8A1E2B",
"}.	c #951F2C",
"|.	c #841A27",
"1.	c #640017",
"2.	c #78454A",
"3.	c #D6C4C5",
"4.	c #E7B2B3",
"5.	c #D06A84",
"6.	c #D39CC1",
"7.	c #F4B5E4",
"8.	c #F9B0E7",
"9.	c #FAB9E9",
"0.	c #FEF9FD",
"a.	c #F8B0E5",
"b.	c #F3A7DE",
"c.	c #EFA2DA",
"d.	c #E395CA",
"e.	c #AE5D7F",
"f.	c #891E2B",
"g.	c #621524",
"h.	c #000003",
"i.	c #494E52",
"j.	c #DEE0E0",
"k.	c #ECCACB",
"l.	c #AE212D",
"m.	c #835B6F",
"n.	c #E3CDDD",
"o.	c #FCD7F1",
"p.	c #FEF7FC",
"q.	c #F8D5EE",
"r.	c #EBC3DC",
"s.	c #CA8BAC",
"t.	c #B16184",
"u.	c #A34F6D",
"v.	c #913246",
"w.	c #641524",
"x.	c #00000D",
"y.	c #414247",
"z.	c #BFBFC0",
"A.	c #D6ADAE",
"B.	c #AF222E",
"C.	c #5A3C42",
"D.	c #B9BCBC",
"E.	c #F0E9EF",
"F.	c #FCDCF3",
"G.	c #F7D3E8",
"H.	c #F5DEDF",
"I.	c #FDE7E7",
"J.	c #FFFCFC",
"K.	c #E4DBDB",
"L.	c #9E666A",
"M.	c #8B2B35",
"N.	c #691625",
"O.	c #2C081C",
"P.	c #311724",
"Q.	c #50464A",
"R.	c #9A4248",
"S.	c #B0202D",
"T.	c #5F1926",
"U.	c #594449",
"V.	c #BAB1B2",
"W.	c #F9F4F4",
"X.	c #F9F1F1",
"Y.	c #DCA5A7",
"Z.	c #DA565C",
"`.	c #F39295",
" +	c #FDE8E8",
".+	c #FFFDFD",
"++	c #E1D6D7",
"@+	c #92454B",
"#+	c #811C29",
"$+	c #771A28",
"%+	c #771827",
"&+	c #74081E",
"*+	c #A01526",
"=+	c #AE1F2B",
"-+	c #A91224",
";+	c #BE6265",
">+	c #D58E90",
",+	c #D58C8F",
"'+	c #CA585D",
")+	c #CA2C36",
"!+	c #D94F55",
"~+	c #F39799",
"{+	c #FDE1E2",
"]+	c #FEFEFE",
"^+	c #E6DEDE",
"/+	c #BC9FA0",
"(+	c #8E3840",
"_+	c #A44B70",
":+	c #BB6494",
"<+	c #C26C9F",
"[+	c #AB527A",
"}+	c #9B3E5D",
"|+	c #9A202C",
"1+	c #AA212E",
"2+	c #AE222E",
"3+	c #BF2430",
"4+	c #C72430",
"5+	c #A2212C",
"6+	c #99202C",
"7+	c #AC202C",
"8+	c #C12934",
"9+	c #BE3D45",
"0+	c #D69B9D",
"a+	c #EFDBDB",
"b+	c #FEFDFD",
"c+	c #FDFDFD",
"d+	c #C6AFB1",
"e+	c #AA527A",
"f+	c #D780BB",
"g+	c #DD86C3",
"h+	c #D881BD",
"i+	c #D079B2",
"j+	c #8D1E2B",
"k+	c #AB212E",
"l+	c #BA232F",
"m+	c #AC222E",
"n+	c #761D29",
"o+	c #631C28",
"p+	c #97202C",
"q+	c #B9232F",
"r+	c #8F202B",
"s+	c #AD222E",
"t+	c #DDA6A8",
"u+	c #FDFBFB",
"v+	c #C6AFB0",
"w+	c #C973A9",
"x+	c #D37DB7",
"y+	c #8E1E2B",
"z+	c #901F2C",
"A+	c #871E2B",
"B+	c #841E2B",
"C+	c #A0202D",
"D+	c #BF232F",
"E+	c #C12430",
"F+	c #DCA6A8",
"G+	c #902E44",
"H+	c #973955",
"I+	c #A54D72",
"J+	c #AE5781",
"K+	c #911F2C",
"L+	c #A4212D",
"M+	c #C02330",
"N+	c #C7B0B1",
"O+	c #8F1E2B",
"P+	c #A8212D",
"Q+	c #BC232F",
"R+	c #FDFCFC",
"S+	c #EEE8E8",
"T+	c #BA9C9D",
"U+	c #8C1E2B",
"V+	c #B1222E",
"W+	c #DDA5A6",
"X+	c #F4F1F1",
"Y+	c #B49294",
"Z+	c #8F3B42",
"`+	c #90242F",
" @	c #B4353D",
".@	c #C795AC",
"+@	c #CBD8F8",
"@@	c #F3F0F0",
"#@	c #A7797C",
"$@	c #921F2C",
"%@	c #B1323A",
"&@	c #DBAFB0",
"*@	c #F5E9E9",
"=@	c #9BADB7",
"-@	c #F2EEEE",
";@	c #D0BEBF",
">@	c #9B6064",
",@	c #7A1D2A",
"'@	c #771D29",
")@	c #9A4A4F",
"!@	c #D7A8A9",
"~@	c #F6E9E9",
"{@	c #DFD4D5",
"]@	c #944B51",
"^@	c #7F1E2A",
"/@	c #651C28",
"(@	c #591C27",
"_@	c #571C27",
":@	c #7C1D2A",
"<@	c #914349",
"[@	c #A67779",
"}@	c #AA7E81",
"|@	c #A97D80",
"1@	c #BC9EA0",
"2@	c #F4EFEF",
"3@	c #CADAFB",
"4@	c #DBCFCF",
"5@	c #904047",
"6@	c #561C27",
"7@	c #5A1C27",
"8@	c #A77C7F",
"9@	c #EAE3E4",
"0@	c #F3EFEF",
"a@	c #F6F2F3",
"b@	c #B5B0CC",
"c@	c #AB8284",
"d@	c #8C2F38",
"e@	c #681D28",
"f@	c #621C28",
"g@	c #751D29",
"h@	c #6B1D28",
"i@	c #A48E90",
"j@	c #F8F7F7",
"k@	c #A791A8",
"l@	c #5D1C27",
"m@	c #741D29",
"n@	c #781D29",
"o@	c #611C28",
"p@	c #A89E9F",
"q@	c #F4F3F3",
"r@	c #F0EBEC",
"s@	c #5B1C27",
"t@	c #7C6467",
"u@	c #F9F9F9",
"v@	c #B69597",
"w@	c #A79C9D",
"x@	c #A37174",
"y@	c #D1CCCD",
"z@	c #D4C3C4",
"A@	c #9B5F63",
"B@	c #791D2A",
"C@	c #806B6E",
"D@	c #F2F1F1",
"E@	c #C8D7F7",
"F@	c #F1EFEF",
"G@	c #EBE9E9",
"H@	c #F0EEEE",
"I@	c #FAFAFA",
"J@	c #F8F6F6",
"K@	c #D3C2C3",
"L@	c #93494F",
"M@	c #8A232F",
"N@	c #6E1D29",
"O@	c #623A40",
"P@	c #715458",
"Q@	c #6B4B4F",
"R@	c #643F45",
"S@	c #786063",
"T@	c #BCB5B6",
"U@	c #CDC7C8",
"V@	c #D0CCCC",
"W@	c #B1B9D6",
"X@	c #FAF9F9",
"Y@	c #CBB7B8",
"Z@	c #995C60",
"`@	c #5F1C28",
" #	c #7D6668",
".#	c #877476",
"+#	c #E3D9D9",
"@#	c #D6C6C7",
"##	c #FCFBFB",
"$#	c #F7F4F4",
"%#	c #CCB8B9",
"&#	c #801E2A",
"*#	c #847073",
"=#	c #C9C3C4",
"-#	c #A37275",
";#	c #DDD0D1",
">#	c #F9F7F7",
",#	c #F5F2F2",
"'#	c #D4C4C5",
")#	c #98575B",
"!#	c #7E1D2A",
"~#	c #691D28",
"{#	c #60373D",
"]#	c #73585B",
"^#	c #C5BEBF",
"/#	c #CFBCBD",
"(#	c #DED2D3",
"_#	c #F6F3F4",
":#	c #D2C1C2",
"<#	c #861E2B",
"[#	c #831E2A",
"}#	c #811E2A",
"|#	c #661C28",
"1#	c #705256",
"2#	c #E5E3E3",
"3#	c #CCC6C7",
"4#	c #A49899",
"5#	c #9A8C8E",
"6#	c #998A8C",
"7#	c #8C7B7D",
"8#	c #775E61",
"9#	c #5B2A32",
"0#	c #6D4F53",
"a#	c #A16D70",
"b#	c #A87B7E",
"c#	c #C1A7A9",
"d#	c #EFEAEA",
"e#	c #B79697",
"f#	c #9D6367",
"g#	c #651D28",
"h#	c #821E2A",
"i#	c #60343B",
"j#	c #B9B1B2",
"k#	c #E1DEDF",
"l#	c #A79B9D",
"m#	c #6C4D51",
"n#	c #5D3A42",
"o#	c #918082",
"p#	c #B0A6A8",
"q#	c #ADA0B9",
"r#	c #98585D",
"s#	c #C2A8A9",
"t#	c #C8B2B3",
"u#	c #C9B3B4",
"v#	c #BDA0A1",
"w#	c #8F3E44",
"x#	c #98202C",
"y#	c #9B202C",
"z#	c #7A1E29",
"A#	c #6C1D29",
"B#	c #671C28",
"C#	c #581C27",
"D#	c #887476",
"E#	c #E4E1E1",
"F#	c #EDECEC",
"G#	c #CCC7C7",
"H#	c #858A93",
"I#	c #F5F4F4",
"J#	c #F6F5F5",
"K#	c #E0D5D6",
"L#	c #AF888A",
"M#	c #8F3840",
"N#	c #96202B",
"O#	c #851F2A",
"P#	c #791E29",
"Q#	c #765D60",
"R#	c #ECEAEB",
"S#	c #B9BBD8",
"T#	c #8D4B5A",
"U#	c #851E2B",
"V#	c #C02430",
"W#	c #AC222D",
"X#	c #711D29",
"Y#	c #795D60",
"Z#	c #FBFAFA",
"`#	c #E5E1E2",
" $	c #805D60",
".$	c #841E2A",
"+$	c #6D1D29",
"@$	c #9E202D",
"#$	c #946D6F",
"$$	c #F3F2F2",
"%$	c #C8C3C3",
"&$	c #826E70",
"*$	c #641C28",
"=$	c #731D29",
"-$	c #A2202D",
";$	c #C62430",
">$	c #996D6F",
",$	c #F7F7F7",
"'$	c #9E9092",
")$	c #7D1D2A",
"!$	c #701D29",
"~$	c #A3202D",
"{$	c #BB232F",
"]$	c #B59C9E",
"^$	c #ABA0A1",
"/$	c #5C2A32",
"($	c #5C1C27",
"_$	c #8B1E2B",
":$	c #B09495",
"<$	c #ECEAEA",
"[$	c #E5E2E3",
"}$	c #CEC9CA",
"|$	c #725659",
"1$	c #601C28",
"2$	c #BFABAC",
"3$	c #C4BDBE",
"4$	c #9E9192",
"5$	c #A4999A",
"6$	c #B39E9F",
"7$	c #8C323B",
"8$	c #941F2C",
"9$	c #A1202D",
"0$	c #AD9698",
"a$	c #DAD6D7",
"b$	c #9B8D8F",
"c$	c #A09394",
"d$	c #E1DFDF",
"e$	c #975559",
"f$	c #AE8A8C",
"g$	c #D4CDCD",
"h$	c #FBFBFB",
"i$	c #F9F7F8",
"j$	c #948A93",
"k$	c #B39092",
"l$	c #948790",
"m$	c #A47477",
"n$	c #892430",
"o$	c #B79698",
"p$	c #B08A8C",
"q$	c #DDD1D2",
"r$	c #ECE5E5",
"s$	c #8D323B",
"t$	c #A97C7F",
"u$	c #AF8C8E",
"v$	c #8C353D",
"w$	c #8A2732",
"x$	c #A47376",
"y$	c #E6DDDE",
"z$	c #FCFCFC",
"A$	c #EFECEC",
"B$	c #907073",
"C$	c #AE8688",
"D$	c #BABCD9",
"E$	c #EBE9EA",
"F$	c #846F71",
"G$	c #6A1D28",
"H$	c #A1687A",
"I$	c #C7AFCA",
"J$	c #FCF7F7",
"K$	c #E0DDDE",
"L$	c #A99E9F",
"M$	c #6D4D51",
"N$	c #C25565",
"O$	c #ECD0D1",
"P$	c #FDF8F8",
"Q$	c #E7E5E5",
"R$	c #DDD9D9",
"S$	c #B0A6A7",
"T$	c #62343B",
"U$	c #66202C",
"V$	c #C02F39",
"W$	c #CB6266",
"X$	c #EBCECF",
"Y$	c #EEECEC",
"Z$	c #B8AFB0",
"`$	c #5B242E",
" %	c #BD232F",
".%	c #E7C3C4",
"+%	c #EFEDED",
"@%	c #EAE8E8",
"#%	c #BBB3B4",
"$%	c #79757E",
"%%	c #87767E",
"&%	c #C5AEAF",
"*%	c #C8AEAF",
"=%	c #DAB0B1",
"-%	c #F2E0E0",
";%	c #FFFEFE",
"                  .             .                       + @ # $ % & & @ *         .     * = = * .                       .       ",
"                                                      - ; > , ' ) ! ~ , =               { ] ^ / ( _ # :                         ",
"                                                    < [ } } | 1 ! ! ! | =             * 2 3 ! ! 4 5 6 -                         ",
".                                               .   7 ! 3 ! 8 9 9 9 ! 0 a         b c d 4 e 1 ! ! 9 | & f       .               ",
"                                            .   .   g ) 4 ! 3 e 3 9 ! ! h i j k l a / ! 9 ! 9 9 ! ! m n c   .   .               ",
"                                            .   .   o 5 } 1 ! ! ! ! ! p q r s s t u 8 1 3 ! ! ! ! ! 4 4 c   .   .               ",
"                                            .       _ | 5 9 ! ! ! ! ! v w s s s s x y z ! ! ! ! ! ! A { B   .                   ",
"      . . .                                 .       - ( C ! ! ! ! ! ! D E F s s s G H I ! ! ! ! ! ! 6 b     .                   ",
"                                                    * J ! 9 ! ! ! K L M N O P Q R S T U ! ! ! ! ! ! V :                         ",
"        . . . .                                     B W 0 } 9 ! ! L ! K X Y Z `  ...+.@.#.$.e ! ! 9 %.&.*                     . ",
"                                                    # W *.e ! ! ! L ! =.-.;.>.,.'.).!.~.{.].^.9 m 9 4 n B                       ",
"                                                    - / } m L L ! /.(._.:.<.[.}.|.1.2.3.4.5.6.7.8.! m 9.B                       ",
"                                                    0.g 4 ) a.b.c.d.e.f.f.f.f.<.g.h.i.j.k.l.m.n.o.C ! V p.                      ",
"                                                    b = ; q.r.s.t.u.v.f.f.f.f.f.w.x.y.z.A.B.C.D.E.F.F.G.H.I.J.                  ",
"                                                          K.L.M.f.f.f.f.f.f.f.f.N.O.P.Q.R.S.T.U.V.W.X.Y.Z.`. +.+                ",
".                                                         ++@+f.f.f.f.f.f.f.f.f.#+$+%+&+*+'.=+-+;+>+,+'+)+!+~+{+                ",
"                                                      ]+^+/+(+f.f.f.f.f.f._+:+<+:+[+}+[.|+1+2+3+4+'.5+6+7+8+9+0+a+b+          . ",
"                                                      c+d+f.f.f.f.f.f.f.f.e+f+g+h+i+e+f.f.f.j+k+l+m+n+o+p+q+r+s+t+u+            ",
"                                                      c+v+f.f.f.f.f.f.f.f.e+w+x+h+i+e+f.f.f.f.y+z+y+A+B+C+D+'.E+F+u+            ",
"                                                      c+v+f.f.f.f.f.f.f.f.G+H+I+J+e+}+f.f.f.f.<.<.<.f.f.K+L+M+..F+u+            ",
"                                                        N+f.f.f.f.f.f.f.f.f.f.f.f.f.f.f.f.f.f.f.f.f.f.f.<.O+P+Q+t+u+            ",
"                                                    R+S+T+f.f.f.f.f.f.f.f.f.f.f.f.f.f.f.f.f.f.f.f.f.f.f.f.f.U+V+W+u+            ",
".                                                   X+Y+Z+f.f.f.f.f.f.f.f.f.f.f.f.f.f.f.f.f.f.f.f.f.f.f.f.f.`+ @.@+@. .         ",
"                                                    @@#@f.f.f.f.f.f.f.f.f.f.f.f.f.f.f.f.f.f.f.f.f.f.f.f.<.$@%@&@*@]+            ",
"                          =@                .     -@;@>@f.f.f.f.f.f.B+,@'@,@B+f.f.f.f.f.f.f.f.f.f.f.f.f.<.)@!@~@    . . .       ",
"                        =@  =@              .     {@]@f.f.f.f.f.^@/@(@_@_@(@o+:@f.f.f.f.f.<@[@}@|@|@|@|@#@1@2@                  ",
"          =@. .           =@                .   3@4@5@f.f.f.f.^@6@6@6@6@6@6@6@7@^@f.f.<.A+8@9@X+@@@@@@@@0@a@c+                  ",
"        =@. .                               . c+b@c@d@f.f.f.f.e@6@6@6@6@6@6@6@6@f@A+<.g@h@i@j@                                  ",
"        =@. =@                                b+k@f.f.f.f.f.f.l@6@6@6@6@6@6@6@6@6@m@n@o@p@q@                                  . ",
"          =@. . .                           R+r@T+f.f.f.f.f.f.s@6@6@6@6@6@6@6@6@6@_@_@t@u@                                      ",
"              . . .                         0@v@<@f.f.f.f.f.f.s@6@6@6@6@6@6@6@6@6@6@6@6@w@                                      ",
"                                .           -@x@f.f.f.f.f.f.f.o@6@6@6@6@6@6@6@6@6@6@6@6@6@y@                                    ",
"                                  .       X+z@A@f.f.f.f.f.f.f.B@6@6@6@6@6@6@6@6@6@6@6@6@6@C@D@E@F@G@H@I@                        ",
"                                .       J@K@L@M@f.f.f.f.f.f.f.f.N@6@6@6@6@6@6@6@6@6@6@6@6@6@O@P@Q@R@S@T@U@V@W@. .               ",
"          ]+c+                        X@Y@Z@M@f.f.f.f.f.f.f.f.f.f.,@`@6@6@6@6@6@6@6@6@6@6@6@6@6@6@6@6@6@ #.#V@. . . =@          ",
".         +#@###                    $#%#L.f.f.f.f.f.f.f.f.f.f.f.f.f.f.&#f@6@6@6@6@6@6@6@6@6@6@6@6@6@6@6@6@*#=#    =@. =@        ",
"          %#-#;#>#                ,#'#)#f.f.f.f.f.f.f.f.f.[.[.f.f.f.<.!#~#6@6@{#6@6@6@6@6@6@6@6@6@6@6@6@6@]#^#    . . =@        ",
"          /#M@>@(#,#_#]+    R+,#X+:#]@M@f.f.f.f.f.f.f.f.<#[#B+<.f.<.}#|#_@_@1#2#3#4#5#6#7#8#9#6@6@6@6@6@6@0#=#  . . =@          ",
"          /#f.M.a#b#c#$#]+  d#e#b#f#f.f.f.f.f.f.f.f.f.<.n+g#h@h#[.^@/@(@_@i#j#c+            k#l#m#6@6@n#o#p#V@                  ",
"      . . q#f.f.f.f.r#s#t#u#v#w#f.f.f.f.f.f.f.f.f.f.f.[.x#5+y#z#A#B#C#6@_@D#E#                  F#G#H#F@I#I#J#                  ",
"          K#L#M#[.f.f.f.f.f.f.f.f.f.f.f.f.f.f.f.f.f.f.[.L+Q+'.N#O#P#(@Q#R#q@]+    .                                             ",
"        . 3@S#T#U#A+f.f.f.f.f.f.f.f.f.f.f.f.<.U#A+f.f.f.[.C+Q+V#E+W#X#Y#Z#    .   .                                           . ",
"            `# $/@'@<.f.f.f.f.f.f.f.f.f.f.f..$+$:@f.f.f.<.j+@$Q+..V#2+#$]+    .   .                                             ",
"            $$%$&$*$X#=$[#[.[.[.[.[.[.[.[.h#N@l@n@[.f.f.f.<.U+-$q+;$'.>$      .                                                 ",
"              ,$'$_@6@7@=$!#)$)$)$)$)$)$!#!$C#(@B@[.f.f.f.f.f.f.~${${$]$                                                        ",
"              j@^$P@1#/$7@($($($($($($($($7@_@(@n+A+f.f.f.f.f.f._$-$q+:$                                                        ",
"              c+<$[$}$|$_@6@6@6@6@6@6@6@6@_@_@C#1$m@<.f.f.f.f.f.A+@$q+2$                                                        ",
".                   I#3#3$4$_@_@_@_@_@_@_@_@_@_@5$6$7$f.f.f.f.f.<.8$9$0$                                                        ",
"                          a$'$b$b$b$b$b$b$b$b$c$d$K#<@f.f.f.f.f.f.e$f$g$                                                      . ",
"                          h$J#J#J#J#J#J#J#J#J#J#i$j$5@f.f.f.f.f.f.k$-@I@                                                        ",
"                                              ]+l$m$n$f.f.f.f.f.f.o$X@                                                          ",
"                                              ]+s#f.f.f.f.f.f.f.p$q$R+                                                          ",
"                                            ##r$e#f.f.f.f.f.s$t${@  ]+                                                          ",
"                                            -@u$v$f.f.f.f.w$x$y$R+]+z$                                                          ",
".                                           A$B$!#[.f.f.f.C$D$Z#  E$D@                                          . . . .         ",
"                                            F#F$G$!#f.f.<.H$I$J$  K$R#                                                          ",
"                  .                         D@L$M$e@&#<.<.C+N$O$P$Q$R$            .                                 . . .       ",
"                  .                         c+D@S$T$U$}#A+@$V$W$X$c+Y$c+          .                                             ",
"          =@  .   .                             E$Z$`$e@)$z+~$ %.%  c++%      .   .                                 =@          ",
"        =@    .   .                               @%#%$%%%&%*%=%-%            .   .                                   =@        ",
"              .                                   ]+c+R+c+c+c+b+;%            .                                               . ",
"                                                                                                                                ",
"                                                                                                                                ",
"      .                       .             .                         .                       .             .                   "};
