/* XPM */
static char * coins_xpm[] = {
"64 64 282 2",
"  	c #FFFFFF",
". 	c #CBDBFC",
"+ 	c #9BADB7",
"@ 	c #FBFBFB",
"# 	c #F3F3F3",
"$ 	c #EEEEEE",
"% 	c #EDEDED",
"& 	c #90A1AA",
"* 	c #C8C8C8",
"= 	c #ABABAB",
"- 	c #AAAAAA",
"; 	c #657278",
"> 	c #CACACA",
", 	c #F0F0F0",
"' 	c #FCFCFC",
") 	c #F6F6F6",
"! 	c #DADADA",
"~ 	c #959494",
"{ 	c #474240",
"] 	c #403B38",
"^ 	c #423D3B",
"/ 	c #989797",
"( 	c #DCDBDB",
"_ 	c #A6A3A3",
": 	c #93827B",
"< 	c #926F5F",
"[ 	c #926E5D",
"} 	c #926F5E",
"| 	c #93827C",
"1 	c #A6A4A3",
"2 	c #CBCBCB",
"3 	c #F8F8F8",
"4 	c #D9D9D9",
"5 	c #908E8E",
"6 	c #64524C",
"7 	c #B68771",
"8 	c #EFB193",
"9 	c #F2B495",
"0 	c #F1B394",
"a 	c #B58871",
"b 	c #62524C",
"c 	c #949393",
"d 	c #CDCDCD",
"e 	c #A8A4A4",
"f 	c #866867",
"g 	c #964739",
"h 	c #D5805D",
"i 	c #FCA375",
"j 	c #FEA576",
"k 	c #FDA576",
"l 	c #D7906A",
"m 	c #9E715A",
"n 	c #908079",
"o 	c #AAA8A7",
"p 	c #CECECE",
"q 	c #FDFDFD",
"r 	c #F9F9F9",
"s 	c #D7D6D6",
"t 	c #8D8C8C",
"u 	c #674C4B",
"v 	c #A94341",
"w 	c #DB5841",
"x 	c #F07949",
"y 	c #FC8D4E",
"z 	c #FD8F50",
"A 	c #FD9052",
"B 	c #FD8E4F",
"C 	c #F69763",
"D 	c #EDA682",
"E 	c #B78B76",
"F 	c #6D5F58",
"G 	c #919191",
"H 	c #D7D7D7",
"I 	c #D0D0D0",
"J 	c #ABA6A6",
"K 	c #806362",
"L 	c #8F3529",
"M 	c #CE563B",
"N 	c #F16D44",
"O 	c #F87D45",
"P 	c #FD8C4D",
"Q 	c #FD9961",
"R 	c #FDA16F",
"S 	c #FD9860",
"T 	c #FD8C4C",
"U 	c #FD9256",
"V 	c #D9926C",
"W 	c #9A6D57",
"X 	c #8A7B74",
"Y 	c #ADABAA",
"Z 	c #D1D1D1",
"` 	c #D8D8D8",
" .	c #8D8D8D",
"..	c #6D5554",
"+.	c #AA4541",
"@.	c #D7533E",
"#.	c #ED7142",
"$.	c #FA8145",
"%.	c #FA8445",
"&.	c #FB8F55",
"*.	c #FCA77A",
"=.	c #FEB893",
"-.	c #FEB995",
";.	c #FEB894",
">.	c #FDA87A",
",.	c #FD8C4B",
"'.	c #FD8E50",
").	c #F59662",
"!.	c #E8A380",
"~.	c #B98F7C",
"{.	c #726661",
"].	c #8F8F8F",
"^.	c #FEFEFE",
"/.	c #D2D2D2",
"(.	c #727272",
"_.	c #511A17",
":.	c #B93C36",
"<.	c #EA5B43",
"[.	c #F67944",
"}.	c #F58045",
"|.	c #E77346",
"1.	c #E47752",
"2.	c #F2956C",
"3.	c #FDAA7F",
"4.	c #FEAC80",
"5.	c #FEAB7F",
"6.	c #FDA677",
"7.	c #FDA06D",
"8.	c #FD975F",
"9.	c #FD8D4E",
"0.	c #FD985F",
"a.	c #FDB28B",
"b.	c #C99880",
"c.	c #594338",
"d.	c #757575",
"e.	c #ED7846",
"f.	c #CC5948",
"g.	c #C6544B",
"h.	c #E57750",
"i.	c #FC9054",
"j.	c #FD9154",
"k.	c #FD9F6C",
"l.	c #FEB28A",
"m.	c #FEA97D",
"n.	c #FD9357",
"o.	c #EA7546",
"p.	c #C35048",
"q.	c #BB4849",
"r.	c #E06C47",
"s.	c #FB8645",
"t.	c #FD8845",
"u.	c #FD8947",
"v.	c #FD9D68",
"w.	c #FEB794",
"x.	c #FEAF86",
"y.	c #FD955B",
"z.	c #C45048",
"A.	c #FB8745",
"B.	c #A7B4D0",
"C.	c #A7B4CF",
"D.	c #EC7746",
"E.	c #C95548",
"F.	c #C04C48",
"G.	c #DE6A47",
"H.	c #F47F46",
"I.	c #F58145",
"J.	c #F58247",
"K.	c #F89665",
"L.	c #FCB28D",
"M.	c #FD9359",
"N.	c #F47F45",
"O.	c #E26E46",
"P.	c #D66247",
"Q.	c #D35E47",
"R.	c #D15D47",
"S.	c #D25F48",
"T.	c #E17757",
"U.	c #F6976B",
"V.	c #FD9A64",
"W.	c #D6D6D6",
"X.	c #838383",
"Y.	c #624342",
"Z.	c #B0433E",
"`.	c #DE5740",
" +	c #F17443",
".+	c #FA8345",
"++	c #F98345",
"@+	c #CD5947",
"#+	c #B74348",
"$+	c #B54148",
"%+	c #D05D49",
"&+	c #F2804B",
"*+	c #F89761",
"=+	c #F0A984",
"-+	c #BF937D",
";+	c #685A53",
">+	c #858585",
",+	c #E9E9E9",
"'+	c #C6C6C6",
")+	c #A29C9C",
"!+	c #855F5E",
"~+	c #9B3B2D",
"{+	c #D35B3C",
"]+	c #F37144",
"^+	c #F97F45",
"/+	c #E16D46",
"(+	c #D35F47",
"_+	c #D25F47",
":+	c #F68146",
"<+	c #FD9E69",
"[+	c #DE926A",
"}+	c #A8775E",
"|+	c #907D74",
"1+	c #A4A19F",
"2+	c #C7C7C7",
"3+	c #F5F5F5",
"4+	c #858383",
"5+	c #643E3C",
"6+	c #B0443C",
"7+	c #E25A41",
"8+	c #F27543",
"9+	c #F78045",
"0+	c #F57E46",
"a+	c #F47D46",
"b+	c #F47E46",
"c+	c #FB8445",
"d+	c #F9935E",
"e+	c #F4A882",
"f+	c #BE8D75",
"g+	c #6B574F",
"h+	c #8A8888",
"i+	c #D2D2D1",
"j+	c #EAEAEA",
"k+	c #C3C3C3",
"l+	c #9D9898",
"m+	c #8B6261",
"n+	c #A03E31",
"o+	c #D25B3C",
"p+	c #F06D44",
"q+	c #F26E44",
"r+	c #D56F4D",
"s+	c #AA715A",
"t+	c #958178",
"u+	c #A09D9C",
"v+	c #C4C4C4",
"w+	c #F4F4F4",
"x+	c #D3D2D2",
"y+	c #898686",
"z+	c #5D3532",
"A+	c #AC4238",
"B+	c #DF5041",
"C+	c #E15142",
"D+	c #AB453B",
"E+	c #5D3B35",
"F+	c #8E8C8B",
"G+	c #D4D4D4",
"H+	c #EBEBEB",
"I+	c #C0C0C0",
"J+	c #999393",
"K+	c #8E6564",
"L+	c #93322F",
"M+	c #93302B",
"N+	c #932F2B",
"O+	c #8E6665",
"P+	c #9A9595",
"Q+	c #C2C2C2",
"R+	c #ECECEC",
"S+	c #FAFAFA",
"T+	c #F1F1F1",
"U+	c #908C8C",
"V+	c #3E2B2A",
"W+	c #371D1C",
"X+	c #35191C",
"Y+	c #3A2222",
"Z+	c #918E8E",
"`+	c #D5D4D4",
" @	c #9C9C9C",
".@	c #9A9A9A",
"+@	c #9B9B9B",
"@@	c #C1C1C1",
"#@	c #8B9BA4",
"$@	c #E5E5E5",
"                  .             .                       .                         .             .                       .       ",
"                                                                                                                                ",
"                                                                                                                                ",
".                                               .                                                               .               ",
"                                            .   .                     + +                                   .   .               ",
"                                            .   .                   + . . +                                 .   .               ",
"                                            .                       . + . .                                 .                   ",
"      . . .                                 .                     . .     .                                 .                   ",
"                                                                  . .                                                           ",
"        . . . .                                                   .                                                           . ",
"                                                                                                                                ",
"                                                                                                                                ",
"                                                                            +                                                   ",
"                                                                          +   +                                                 ",
"                                                                            +                                                   ",
".                                                                                                                               ",
"                                                                                                                              . ",
"                                                                            +                                                   ",
"                                              @ # $ % % % % % % % % % % % & % & # @                                             ",
"                                              $ * = - - - - - - - - - - - - ; - > ,                                             ",
"                                          ' ) ! ~ { ] ] ] ] ] ] ] ] ] ] ] ] ] ^ / ( ) '                                         ",
"                                          $ > _ : < [ [ [ [ [ [ [ [ [ [ [ [ [ } | 1 2 $                                         ",
".                                     ' 3 4 5 6 7 8 9 9 9 9 9 9 9 9 9 9 9 9 9 0 a b c ! 3 '                     . . . .         ",
"                                      % d e f g h i j j j j j j j j j j j j j k l m n o p %                                     ",
"                          +       q r s t u v w x y z A A A A A A A A A A A z B C D E F G H r q                     . . .       ",
"                        +   +     % I J K L M N O P Q R R R R R R R R R R R S T U R V W X Y Z %                                 ",
"          + . .           +       `  ...+.@.#.$.%.&.*.=.-.-.-.-.-.-.-.-.-.;.>.U ,.'.).!.~.{.].` ^.                              ",
"        + . .                     /.(._.:.<.[.}.|.1.2.3.4.4.4.4.4.4.4.4.4.5.6.7.8.9.0.a.b.c.d./.^.                              ",
"        + . +                     /.(._.:.<.[.e.f.g.h.i.j.j.j.j.j.j.j.j.j.U k.l.m.n.0.a.b.c.d./.^.                            . ",
"          + . . .                 /.(._.:.<.[.o.p.q.r.s.t.t.t.t.t.t.t.t.t.u.v.w.x.y.0.a.b.c.d./.^.                              ",
"              . . .               /.(._.:.<.[.o.z.q.r.A.t.t.t.t.t.t.t.t.t.u.v.w.x.y.0.a.b.c.d./.^.                              ",
"                                . /.(._.:.<.[.o.z.q.r.A.t.t.t.t.t.t.t.t.t.u.v.w.x.y.0.a.b.c.d./.^.                              ",
"                                  B.(._.:.<.[.o.z.q.r.A.t.t.t.t.t.t.t.t.t.u.v.w.x.y.0.a.b.c.d.C.^.                              ",
"                                . /.(._.:.<.[.o.z.q.r.A.t.t.t.t.t.t.t.t.t.u.v.w.x.y.0.a.b.c.d./.^.          . . .               ",
"                                  /.(._.:.<.[.o.z.q.r.A.t.t.t.t.t.t.t.t.t.u.v.w.x.y.0.a.b.c.d./.^.            . . . +           ",
".                                 /.(._.:.<.[.o.z.q.r.A.t.t.t.t.t.t.t.t.t.u.v.w.x.y.0.a.b.c.d./.^.                + . +         ",
"                                  /.(._.:.<.[.o.z.q.r.A.t.t.t.t.t.t.t.t.t.u.v.w.x.y.0.a.b.c.d./.^.                . . +         ",
"                                  /.(._.:.<.[.o.z.q.r.A.t.t.t.t.t.t.t.t.t.u.v.w.x.y.0.a.b.c.d./.^.  +           . . +           ",
"                                  /.(._.:.<.[.o.z.q.r.A.t.t.t.t.t.t.t.t.t.u.v.w.x.y.0.a.b.c.d./.^.+   +                         ",
"      . . .                       /.(._.:.<.[.D.E.F.G.H.I.I.I.I.I.I.I.I.I.J.K.L.4.M.0.a.b.c.d./.^.  +                           ",
"                                  /.(._.:.<.[.N.O.P.Q.R.R.R.R.R.R.R.R.R.R.S.T.U.V.B 0.a.b.c.d./.^.                              ",
"        . . . .                   W.X.Y.Z.`. +.+++D.@+#+$+$+$+$+$+$+$+$+$+#+%+&+T P *+=+-+;+>+W.^.                            . ",
"                                  ,+'+)+!+~+{+]+^+}./+(+_+_+_+_+_+_+_+_+_+(+O.:+j.<+[+}+|+1+2+,+                                ",
"                                  @ 3+Z 4+5+6+7+8+.+9+0+a+a+a+a+a+a+a+a+a+b+9+c+d+e+f+g+h+i+3+@                                 ",
"                                    ^.j+k+l+m+n+o+p+q+q+q+q+q+q+q+q+q+q+q+q+q+q+r+s+t+u+v+j+                                    ",
"                                      @ w+x+y+z+A+B+C+C+C+C+C+C+C+C+C+C+C+C+C+C+D+E+F+G+w+@                                     ",
"                                          H+I+J+K+L+M+M+M+M+M+M+M+M+M+M+M+M+M+N+O+P+Q+R+                                        ",
".                                         S+T+x+U+V+W+W+W+X+W+W+W+W+W+W+W+W+W+Y+Z+`+T+S+                                        ",
"                                              % I+ @.@.@.@.@.@.@.@.@.@.@.@.@.@+@@@$                                           . ",
"                                              r $ #@$@$@$@$@$@$@$@$@$@$@$@$@$@$@$ S+                                            ",
"                                                +   +                                                                           ",
"                                                  +                                                                             ",
"                                                                                                                                ",
"                                                                                                                                ",
".                                                           .                                                   . . . .         ",
"                                                          . .                                                                   ",
"                  .                                 .     . .                     .                                 . . .       ",
"                  .                                 . . + .                       .                                             ",
"          +   .   .                                 + . . +                   .   .                                 +           ",
"        +     .   .                                   + +                     .   .                                   +         ",
"              .                                                               .                                               . ",
"                                                                                                                                ",
"                                                                                                                                ",
"      .                       .             .                         .                       .             .                   "};
