/* XPM */
static char * coins_xpm[] = {
"64 64 418 2",
"  	c None",
". 	c #000000",
"+ 	c #080605",
"@ 	c #070505",
"# 	c #302520",
"$ 	c #3A2D26",
"% 	c #41312A",
"& 	c #43332B",
"* 	c #3F2F28",
"= 	c #382A24",
"- 	c #241B18",
"; 	c #4A382F",
"> 	c #634C3F",
", 	c #775A4D",
"' 	c #7F6051",
") 	c #705548",
"! 	c #59453A",
"~ 	c #3D2E26",
"{ 	c #110D0B",
"] 	c #281F1A",
"^ 	c #5A453A",
"/ 	c #836455",
"( 	c #A9816C",
"_ 	c #BB8E78",
": 	c #9B7664",
"< 	c #74594A",
"[ 	c #47362D",
"} 	c #130F0C",
"| 	c #2A201C",
"1 	c #664E41",
"2 	c #A07966",
"3 	c #D9A58C",
"4 	c #F6BB9E",
"5 	c #C3947D",
"6 	c #896857",
"7 	c #4F3B32",
"8 	c #130E0C",
"9 	c #250C0B",
"0 	c #2C0F0D",
"a 	c #2E0F0E",
"b 	c #522B24",
"c 	c #835343",
"d 	c #B37A61",
"e 	c #E5A180",
"f 	c #FEB590",
"g 	c #D39778",
"h 	c #A3755E",
"i 	c #735444",
"j 	c #44322A",
"k 	c #332620",
"l 	c #2F231D",
"m 	c #270C0C",
"n 	c #421514",
"o 	c #541C19",
"p 	c #611F1D",
"q 	c #7E372D",
"r 	c #A25843",
"s 	c #C67758",
"t 	c #EB976E",
"u 	c #FEA87A",
"v 	c #DF966F",
"w 	c #BD8263",
"x 	c #9C6F57",
"y 	c #7B5B4C",
"z 	c #674E42",
"A 	c #564237",
"B 	c #403028",
"C 	c #1B1512",
"D 	c #2D0F0D",
"E 	c #551C1A",
"F 	c #772722",
"G 	c #92302B",
"H 	c #AA4436",
"I 	c #C25C43",
"J 	c #D97550",
"K 	c #F18E5D",
"L 	c #FD9A63",
"M 	c #EC9566",
"N 	c #D89068",
"O 	c #C58A6B",
"P 	c #B2846D",
"Q 	c #977361",
"R 	c #765A4C",
"S 	c #4E3B32",
"T 	c #1F1814",
"U 	c #31100F",
"V 	c #63211D",
"W 	c #94302B",
"X 	c #C33F39",
"Y 	c #D65040",
"Z 	c #E16144",
"` 	c #EC7348",
" .	c #F7844B",
"..	c #FD8D4D",
"+.	c #F8955D",
"@.	c #F39D6E",
"#.	c #EEA57E",
"$.	c #E9AD8F",
"%.	c #C4957E",
"&.	c #906E5C",
"*.	c #594439",
"=.	c #211915",
"-.	c #1D0A09",
";.	c #200A09",
">.	c #210B0A",
",.	c #4E1B17",
"'.	c #7C2C24",
").	c #AB3D32",
"!.	c #DA4E3F",
"~.	c #EB5C44",
"{.	c #F06944",
"].	c #F57544",
"^.	c #FA8245",
"/.	c #FD8947",
"(.	c #FD8B4A",
"_.	c #FD8F50",
":.	c #FD9053",
"<.	c #FD8E4F",
"[.	c #FD8C4C",
"}.	c #FD8A49",
"|.	c #FD8845",
"1.	c #FD9256",
"2.	c #FD9E69",
"3.	c #FEA97C",
"4.	c #FEB58F",
"5.	c #DA9F81",
"6.	c #A87A63",
"7.	c #745546",
"8.	c #423128",
"9.	c #261D18",
"0.	c #231B17",
"a.	c #201814",
"b.	c #2B0E0D",
"c.	c #3F1413",
"d.	c #4D1916",
"e.	c #571C19",
"f.	c #782C23",
"g.	c #9B3C2D",
"h.	c #BF4D37",
"i.	c #E35D41",
"j.	c #F06844",
"k.	c #F37144",
"l.	c #F77A45",
"m.	c #FB8345",
"n.	c #FD8B49",
"o.	c #FD9052",
"p.	c #FD955A",
"q.	c #FD9D68",
"r.	c #FD985F",
"s.	c #FD9357",
"t.	c #FD8E4E",
"u.	c #FD8846",
"v.	c #FD9051",
"w.	c #FDA06D",
"x.	c #FEA97B",
"y.	c #E49B74",
"z.	c #BF8465",
"A.	c #9A6D56",
"B.	c #755647",
"C.	c #5D473C",
"D.	c #503D34",
"E.	c #403029",
"F.	c #080303",
"G.	c #35110F",
"H.	c #591C1A",
"I.	c #742622",
"J.	c #8B2D29",
"K.	c #A33C2F",
"L.	c #BB4C36",
"M.	c #D45C3C",
"N.	c #EC6C42",
"O.	c #F57444",
"P.	c #F97F45",
"Q.	c #FC8545",
"R.	c #FD9459",
"S.	c #FD9D67",
"T.	c #FEA575",
"U.	c #FEAB7F",
"V.	c #FEAA7D",
"W.	c #FDA26F",
"X.	c #FD9962",
"Y.	c #FD9154",
"Z.	c #FD8946",
"`.	c #FD9255",
" +	c #FD975E",
".+	c #FD9C66",
"++	c #EE9768",
"@+	c #D78E67",
"#+	c #C08566",
"$+	c #A97C65",
"%+	c #926F5E",
"&+	c #554036",
"*+	c #291F1A",
"=+	c #090202",
"-+	c #3C1312",
";+	c #6B221F",
">+	c #96312D",
",+	c #BF3E38",
"'+	c #CE4D3C",
")+	c #DB5C3E",
"!+	c #E86B41",
"~+	c #F57B44",
"{+	c #FA8045",
"]+	c #FD8745",
"^+	c #FD9961",
"/+	c #FDA574",
"(+	c #FEB087",
"_+	c #FEB995",
":+	c #FEB793",
"<+	c #FDA06C",
"[+	c #FD8A48",
"}+	c #FD8C4B",
"|+	c #F7945C",
"1+	c #EE9869",
"2+	c #E69D77",
"3+	c #DDA284",
"4+	c #C4947E",
"5+	c #957160",
"6+	c #624C3F",
"7+	c #2C221C",
"8+	c #090303",
"9+	c #3E1412",
"0+	c #AA3732",
"a+	c #DF4942",
"b+	c #E95843",
"c+	c #EF6644",
"d+	c #FB8445",
"e+	c #FC8745",
"f+	c #FA8545",
"g+	c #F88345",
"h+	c #F68245",
"i+	c #F7884F",
"j+	c #F89563",
"k+	c #FAA478",
"l+	c #FCB18C",
"m+	c #FEBC9B",
"n+	c #FEBA98",
"o+	c #FEAF86",
"p+	c #FDA473",
"q+	c #FD9F6A",
"r+	c #FEAC81",
"s+	c #FEBA97",
"t+	c #E2AC91",
"u+	c #A67E6A",
"v+	c #6A5144",
"w+	c #2E231D",
"x+	c #F88445",
"y+	c #F27D46",
"z+	c #EC7746",
"A+	c #E57146",
"B+	c #E5754E",
"C+	c #EC845C",
"D+	c #F2946B",
"E+	c #F9A37A",
"F+	c #FEAF85",
"G+	c #FEAE83",
"H+	c #FDA474",
"I+	c #FD9B64",
"J+	c #FD975D",
"K+	c #F58045",
"L+	c #EA7546",
"M+	c #DF6B46",
"N+	c #D46047",
"O+	c #D4634C",
"P+	c #DF7355",
"Q+	c #EA845E",
"R+	c #F59568",
"S+	c #FDA16E",
"T+	c #FDA16F",
"U+	c #FDA371",
"V+	c #FEA677",
"W+	c #FEA879",
"X+	c #E26E46",
"Y+	c #D35E47",
"Z+	c #C34F48",
"`+	c #C3504A",
" @	c #D2624E",
".@	c #E27452",
"+@	c #F28656",
"@@	c #FD9458",
"#@	c #FEAD81",
"$@	c #FEB58E",
"%@	c #FEAB80",
"&@	c #FD965C",
"*@	c #FD8B4B",
"=@	c #EF7A46",
"-@	c #DB6747",
";@	c #C85348",
">@	c #B44049",
",@	c #C75348",
"'@	c #DB6647",
")@	c #EE7A46",
"!@	c #FEB28B",
"~@	c #FEC0A1",
"{@	c #FEA778",
"]@	c #FD9A62",
"^@	c #C14D48",
"/@	c #CC5847",
"(@	c #D86347",
"_@	c #E36F46",
":@	c #EC7948",
"<@	c #F1885A",
"[@	c #F5976B",
"}@	c #F9A57D",
"|@	c #FDB48E",
"1@	c #D05B47",
"2@	c #D25E47",
"3@	c #D76247",
"4@	c #D86447",
"5@	c #DA6648",
"6@	c #E27654",
"7@	c #EB8661",
"8@	c #F4966C",
"9@	c #FDA779",
"0@	c #DF6A46",
"a@	c #D15C47",
"b@	c #CA5647",
"c@	c #C55148",
"d@	c #C75349",
"e@	c #D4654F",
"f@	c #E27656",
"g@	c #EF875C",
"h@	c #FC9963",
"i@	c #EE7946",
"j@	c #DE6947",
"k@	c #CD5947",
"l@	c #BD4948",
"m@	c #B13D49",
"n@	c #C6534A",
"o@	c #D8664B",
"p@	c #EA794C",
"q@	c #FC8C4D",
"r@	c #E46F46",
"s@	c #D35F47",
"t@	c #C34E48",
"u@	c #B64248",
"v@	c #B94448",
"w@	c #C95547",
"x@	c #DA6647",
"y@	c #EB7646",
"z@	c #F78245",
"A@	c #CA5547",
"B@	c #CB5747",
"C@	c #F07B46",
"D@	c #F98445",
"E@	c #E36E46",
"F@	c #DD6947",
"G@	c #DE6A46",
"H@	c #E67146",
"I@	c #ED7946",
"J@	c #F68145",
"K@	c #F37E45",
"L@	c #F17C46",
"M@	c #F47F45",
"N@	c #D64E3E",
"O@	c #E15D40",
"P@	c #EB6C42",
"Q@	c #FB8245",
"R@	c #F68C56",
"S@	c #F29769",
"T@	c #EDA27C",
"U@	c #E9AC8E",
"V@	c #A93D31",
"W@	c #BE4D37",
"X@	c #EA6C42",
"Y@	c #E5774D",
"Z@	c #D47A57",
"`@	c #C27E61",
" #	c #B1816B",
".#	c #7B2C24",
"+#	c #9C3D2D",
"@#	c #BD4D36",
"##	c #DE5D3F",
"$#	c #EE6544",
"%#	c #D36245",
"&#	c #B55E46",
"*#	c #985A47",
"=#	c #795648",
"-#	c #7A2C24",
";#	c #A63D30",
">#	c #D24E3D",
",#	c #E85743",
"'#	c #C24D3C",
")#	c #974234",
"!#	c #6D372C",
"~#	c #422B24",
"{#	c #260C0B",
"]#	c #5B1E1B",
"^#	c #8F2F2B",
"/#	c #C23F39",
"(#	c #DC4841",
"_#	c #AE3833",
":#	c #7A2824",
"<#	c #461614",
"[#	c #100505",
"}#	c #240C0A",
"|#	c #511A18",
"1#	c #762723",
"2#	c #98322C",
"3#	c #A73631",
"4#	c #8B2E29",
"5#	c #68221F",
"6#	c #401512",
"7#	c #210A0A",
"8#	c #591D1A",
"9#	c #6A231F",
"0#	c #712521",
"a#	c #64201D",
"b#	c #501A17",
"c#	c #35120F",
"d#	c #0F0604",
"e#	c #2B0E0C",
"f#	c #3A1312",
"g#	c #3C1412",
"h#	c #381211",
"i#	c #32110F",
"j#	c #080202",
"k#	c #070202",
"                                                                                                                                ",
"                                                                                                                                ",
"                                . . . . . . . . . . . . . . . . . . . . . . . . . . . . . .                                     ",
"                            . . . . . . . . . . . . . . . . . . . . . . . . . . . . . . . . .                                   ",
"                            + + + + + + + + + + + + + + + + + + + + + + + + + + + + + + + + + @                                 ",
"                          # $ % & & & & & & & & & & & & & & & & & & & & & & & & & & & & & & * =                                 ",
"                        - ; > , ' ' ' ' ' ' ' ' ' ' ' ' ' ' ' ' ' ' ' ' ' ' ' ' ' ' ' ' ' ' ) ! ~ {                             ",
"                    . . ] ^ / ( _ _ _ _ _ _ _ _ _ _ _ _ _ _ _ _ _ _ _ _ _ _ _ _ _ _ _ _ _ _ : < [ } .                           ",
"                    . . | 1 2 3 4 4 4 4 4 4 4 4 4 4 4 4 4 4 4 4 4 4 4 4 4 4 4 4 4 4 4 4 4 4 5 6 7 8 . .                         ",
"                  9 0 a b c d e f f f f f f f f f f f f f f f f f f f f f f f f f f f f f f g h i j k l                         ",
"                m n o p q r s t u u u u u u u u u u u u u u u u u u u u u u u u u u u u u u v w x y z A B C                     ",
"            . . D E F G H I J K L L L L L L L L L L L L L L L L L L L L L L L L L L L L L L M N O P Q R S T .                   ",
"            . . U V W X Y Z `  .............................................................+.@.#.$.%.&.*.=.. .                 ",
"          -.;.>.,.'.).!.~.{.].^./.(..._.:.:.:.:.:.:.:.:.:.:.:.:.:.:.:.:.:.:.:.:.:.:.<.[.}.|.1.2.3.4.5.6.7.8.9.0.a.              ",
"        b.c.d.e.f.g.h.i.j.k.l.m.n.o.p.L 2.2.2.2.2.2.2.2.2.2.2.2.2.2.2.2.2.2.2.2.2.q.r.s.t.u.v.r.w.x.y.z.A.B.C.D.E.              ",
"      F.G.H.I.J.K.L.M.N.O.l.P.Q.[.R.S.T.U.U.U.U.U.U.U.U.U.U.U.U.U.U.U.U.U.U.U.U.U.V.W.X.Y.Z...`. +.+++@+#+$+%+R &+*+.           ",
"    . =+-+;+>+,+'+)+!+~+{+m.Q.]+t.^+/+(+_+_+_+_+_+_+_+_+_+_+_+_+_+_+_+_+_+_+_+_+_+:+U.<+p./.[+}+<.o.|+1+2+3+4+5+6+7+. .         ",
"  . . 8+9+I.0+a+b+c+].d+e+f+g+h+i+j+k+l+m+m+m+m+m+m+m+m+m+m+m+m+m+m+m+m+m+m+m+m+m+n+o+p+^+<.[.(.[+u.Y.q+r+s+t+u+v+w+. .         ",
"  . . 8+9+I.0+a+b+c+].d+x+y+z+A+B+C+D+E+F+F+F+F+F+F+F+F+F+F+F+F+F+F+F+F+F+F+F+F+F+G+3.H+<+I+J+1.<./.Y.q+r+s+t+u+v+w+. .         ",
"  . . 8+9+I.0+a+b+c+].d+K+L+M+N+O+P+Q+R+S+S+S+S+S+S+S+S+S+S+S+S+S+S+S+S+S+S+S+S+S+T+U+/+V+W+S+X.`.}.Y.q+r+s+t+u+v+w+. .         ",
"  . . 8+9+I.0+a+b+c+].d+y+X+Y+Z+`+ @.@+@@@@@@@@@@@@@@@@@@@@@@@@@@@@@@@@@@@@@@@@@@@p.S./+#@$@%@S+&@*@Y.q+r+s+t+u+v+w+. .         ",
"  . . 8+9+I.0+a+b+c+].d+=@-@;@>@>@,@'@)@|.|.|.|.|.|.|.|.|.|.|.|.|.|.|.|.|.|.|.|.|.[+ +T.!@~@4.{@]@[.Y.q+r+s+t+u+v+w+. .         ",
"  . . 8+9+I.0+a+b+c+].d+=@-@;@>@>@,@'@)@|.|.|.|.|.|.|.|.|.|.|.|.|.|.|.|.|.|.|.|.|.[+ +T.!@~@4.{@]@[.Y.q+r+s+t+u+v+w+. .         ",
"  . . 8+9+I.0+a+b+c+].d+=@-@;@>@>@,@'@)@|.|.|.|.|.|.|.|.|.|.|.|.|.|.|.|.|.|.|.|.|.[+ +T.!@~@4.{@]@[.Y.q+r+s+t+u+v+w+. .         ",
"  . . 8+9+I.0+a+b+c+].d+=@-@;@>@>@,@'@)@|.|.|.|.|.|.|.|.|.|.|.|.|.|.|.|.|.|.|.|.|.[+ +T.!@~@4.{@]@[.Y.q+r+s+t+u+v+w+. .         ",
"  . . 8+9+I.0+a+b+c+].d+=@-@;@>@>@,@'@)@|.|.|.|.|.|.|.|.|.|.|.|.|.|.|.|.|.|.|.|.|.[+ +T.!@~@4.{@]@[.Y.q+r+s+t+u+v+w+. .         ",
"  . . 8+9+I.0+a+b+c+].d+=@-@;@>@>@,@'@)@|.|.|.|.|.|.|.|.|.|.|.|.|.|.|.|.|.|.|.|.|.[+ +T.!@~@4.{@]@[.Y.q+r+s+t+u+v+w+. .         ",
"  . . 8+9+I.0+a+b+c+].d+=@-@;@>@>@,@'@)@|.|.|.|.|.|.|.|.|.|.|.|.|.|.|.|.|.|.|.|.|.[+ +T.!@~@4.{@]@[.Y.q+r+s+t+u+v+w+. .         ",
"  . . 8+9+I.0+a+b+c+].d+=@-@;@>@>@,@'@)@|.|.|.|.|.|.|.|.|.|.|.|.|.|.|.|.|.|.|.|.|.[+ +T.!@~@4.{@]@[.Y.q+r+s+t+u+v+w+. .         ",
"  . . 8+9+I.0+a+b+c+].d+=@-@;@>@>@,@'@)@|.|.|.|.|.|.|.|.|.|.|.|.|.|.|.|.|.|.|.|.|.[+ +T.!@~@4.{@]@[.Y.q+r+s+t+u+v+w+. .         ",
"  . . 8+9+I.0+a+b+c+].d+=@-@;@>@>@,@'@)@|.|.|.|.|.|.|.|.|.|.|.|.|.|.|.|.|.|.|.|.|.[+ +T.!@~@4.{@]@[.Y.q+r+s+t+u+v+w+. .         ",
"  . . 8+9+I.0+a+b+c+].d+=@-@;@>@>@,@'@)@|.|.|.|.|.|.|.|.|.|.|.|.|.|.|.|.|.|.|.|.|.[+ +T.!@~@4.{@]@[.Y.q+r+s+t+u+v+w+. .         ",
"  . . 8+9+I.0+a+b+c+].d+=@-@;@>@>@,@'@)@|.|.|.|.|.|.|.|.|.|.|.|.|.|.|.|.|.|.|.|.|.[+ +T.!@~@4.{@]@[.Y.q+r+s+t+u+v+w+. .         ",
"  . . 8+9+I.0+a+b+c+].d+=@-@;@>@>@,@'@)@|.|.|.|.|.|.|.|.|.|.|.|.|.|.|.|.|.|.|.|.|.[+ +T.!@~@4.{@]@[.Y.q+r+s+t+u+v+w+. .         ",
"  . . 8+9+I.0+a+b+c+].d+=@-@;@>@>@,@'@)@|.|.|.|.|.|.|.|.|.|.|.|.|.|.|.|.|.|.|.|.|.[+ +T.!@~@4.{@]@[.Y.q+r+s+t+u+v+w+. .         ",
"  . . 8+9+I.0+a+b+c+].d+=@-@;@>@>@,@'@)@|.|.|.|.|.|.|.|.|.|.|.|.|.|.|.|.|.|.|.|.|.[+ +T.!@~@4.{@]@[.Y.q+r+s+t+u+v+w+. .         ",
"  . . 8+9+I.0+a+b+c+].d+=@-@;@>@>@,@'@)@|.|.|.|.|.|.|.|.|.|.|.|.|.|.|.|.|.|.|.|.|.[+ +T.!@~@4.{@]@[.Y.q+r+s+t+u+v+w+. .         ",
"  . . 8+9+I.0+a+b+c+].d+=@-@;@>@>@,@'@)@|.|.|.|.|.|.|.|.|.|.|.|.|.|.|.|.|.|.|.|.|.[+ +T.!@~@4.{@]@[.Y.q+r+s+t+u+v+w+. .         ",
"  . . 8+9+I.0+a+b+c+].d+=@-@;@>@>@,@'@)@|.|.|.|.|.|.|.|.|.|.|.|.|.|.|.|.|.|.|.|.|.[+ +T.!@~@4.{@]@[.Y.q+r+s+t+u+v+w+. .         ",
"  . . 8+9+I.0+a+b+c+].d+=@-@;@>@>@,@'@)@|.|.|.|.|.|.|.|.|.|.|.|.|.|.|.|.|.|.|.|.|.[+ +T.!@~@4.{@]@[.Y.q+r+s+t+u+v+w+. .         ",
"  . . 8+9+I.0+a+b+c+].d+=@-@;@>@>@,@'@)@|.|.|.|.|.|.|.|.|.|.|.|.|.|.|.|.|.|.|.|.|.[+ +T.!@~@4.{@]@[.Y.q+r+s+t+u+v+w+. .         ",
"  . . 8+9+I.0+a+b+c+].d+=@-@;@>@>@,@'@)@|.|.|.|.|.|.|.|.|.|.|.|.|.|.|.|.|.|.|.|.|.[+ +T.!@~@4.{@]@[.Y.q+r+s+t+u+v+w+. .         ",
"  . . 8+9+I.0+a+b+c+].d+=@-@;@>@>@,@'@)@|.|.|.|.|.|.|.|.|.|.|.|.|.|.|.|.|.|.|.|.|.[+ +T.!@~@4.{@]@[.Y.q+r+s+t+u+v+w+. .         ",
"  . . 8+9+I.0+a+b+c+].d+y+X+Y+Z+^@/@(@_@z+z+z+z+z+z+z+z+z+z+z+z+z+z+z+z+z+z+z+z+z+:@<@[@}@|@%@S+&@*@Y.q+r+s+t+u+v+w+. .         ",
"  . . 8+9+I.0+a+b+c+].d+K+L+M+N+1@2@N+3@4@4@4@4@4@4@4@4@4@4@4@4@4@4@4@4@4@4@4@4@4@5@6@7@8@9@S+X.`.}.Y.q+r+s+t+u+v+w+. .         ",
"  . . 8+9+I.0+a+b+c+].d+x+y+z+A+0@(@a@b@c@c@c@c@c@c@c@c@c@c@c@c@c@c@c@c@c@c@c@c@c@d@e@f@g@h@J+1.<./.Y.q+r+s+t+u+v+w+. .         ",
"  . . 8+9+I.0+a+b+c+].d+e+f+g+h+i@j@k@l@m@m@m@m@m@m@m@m@m@m@m@m@m@m@m@m@m@m@m@m@m@>@n@o@p@q@[.(.[+u.Y.q+r+s+t+u+v+w+. .         ",
"    . =+-+;+>+,+'+)+!+~+{+m.Q.]+K+r@s@t@u@u@u@u@u@u@u@u@u@u@u@u@u@u@u@u@u@u@u@u@u@v@w@x@y@e+[+}+<.o.|+1+2+3+4+5+6+7+. .         ",
"      F.G.H.I.J.K.L.M.N.O.l.P.Q.z@y@0@Y+A@A@A@A@A@A@A@A@A@A@A@A@A@A@A@A@A@A@A@A@A@B@(@r@C@e+..`. +.+++@+#+$+%+R &+*+.           ",
"        b.c.d.e.f.g.h.i.j.k.l.m.D@y+L+E@F@F@F@F@F@F@F@F@F@F@F@F@F@F@F@F@F@F@F@F@F@G@H@I@K+e+v.r.w.x.y.z.A.B.C.D.E.              ",
"          -.;.>.,.'.).!.~.{.].^.e+D@J@K@L@L@L@L@L@L@L@L@L@L@L@L@L@L@L@L@L@L@L@L@L@L@M@z@f+|.1.2.3.4.5.6.7.8.9.0.a.              ",
"            . . U V W X N@O@P@~+Q@Q@Q@Q@Q@Q@Q@Q@Q@Q@Q@Q@Q@Q@Q@Q@Q@Q@Q@Q@Q@Q@Q@Q@Q@Q@Q@Q@Q@Q@R@S@T@U@%.&.*.=.. .                 ",
"            . . D E F G V@W@M.X@O.O.O.O.O.O.O.O.O.O.O.O.O.O.O.O.O.O.O.O.O.O.O.O.O.O.O.O.O.O.Y@Z@`@ #Q R S T .                   ",
"                m n o p .#+#@###$#$#$#$#$#$#$#$#$#$#$#$#$#$#$#$#$#$#$#$#$#$#$#$#$#$#$#$#$#$#%#&#*#=#z A B C                     ",
"                  9 0 a ,.-#;#>#,#,#,#,#,#,#,#,#,#,#,#,#,#,#,#,#,#,#,#,#,#,#,#,#,#,#,#,#,#,#'#)#!#~#k l                         ",
"                    . . {#]#^#/#(#(#(#(#(#(#(#(#(#(#(#(#(#(#(#(#(#(#(#(#(#(#(#(#(#(#(#(#(#(#_#:#<#[#. .                         ",
"                    . . }#|#1#2#3#3#3#3#3#3#3#3#3#3#3#3#3#3#3#3#3#3#3#3#3#3#3#3#3#3#3#3#3#3#4#5#6#[#.                           ",
"                        7#n 8#9#0#0#0#0#0#0#0#0#0#0#0#0#0#0#0#0#0#0#0#0#0#0#0#0#0#0#0#0#0#0#a#b#c#d#                            ",
"                          e#c#f#g#g#g#g#g#g#g#g#g#g#g#g#g#g#g#g#g#g#g#g#g#g#g#g#g#g#g#g#g#g#h#i#                                ",
"                            j#k#k#k#k#k#k#k#k#k#k#k#k#k#k#k#k#k#k#k#k#k#k#k#k#k#k#k#k#k#k#k#F.k#                                ",
"                            . . . . . . . . . . . . . . . . . . . . . . . . . . . . . . . . .                                   ",
"                                . . . . . . . . . . . . . . . . . . . . . . . . . . . . . .                                     ",
"                                                                                                                                ",
"                                                                                                                                "};
