/* XPM */
static char * portal_xpm[] = {
"64 64 194 2",
"  	c None",
". 	c #2079CC",
"+ 	c #217ED4",
"@ 	c #2371C8",
"# 	c #207ACD",
"$ 	c #2371BB",
"% 	c #217DD2",
"& 	c #217ED3",
"* 	c #6932F7",
"= 	c #6B2FF9",
"- 	c #603AF3",
"; 	c #6931F8",
"> 	c #6C2EF9",
", 	c #6139F4",
"' 	c #1D71BC",
") 	c #2568C1",
"! 	c #6437F5",
"~ 	c #1A3089",
"{ 	c #173084",
"] 	c #233096",
"^ 	c #2967C4",
"/ 	c #1D70BD",
"( 	c #2976D8",
"_ 	c #0F3079",
": 	c #0C3075",
"< 	c #1A3088",
"[ 	c #2C73D9",
"} 	c #6B2EF8",
"| 	c #292F9C",
"1 	c #282F9C",
"2 	c #0D3076",
"3 	c #10307A",
"4 	c #2A2F9E",
"5 	c #6A2EF7",
"6 	c #0E3078",
"7 	c #6A2EF6",
"8 	c #2C72D9",
"9 	c #1C3F7F",
"0 	c #415CE4",
"a 	c #4157E0",
"b 	c #432FC1",
"c 	c #422FC0",
"d 	c #0E3077",
"e 	c #422FBF",
"f 	c #4156DE",
"g 	c #254797",
"h 	c #3569DE",
"i 	c #622EEC",
"j 	c #5E2EE6",
"k 	c #425BE4",
"l 	c #185D9E",
"m 	c #1B407B",
"n 	c #2D71DA",
"o 	c #3A5FDC",
"p 	c #5C2EE3",
"q 	c #542FD8",
"r 	c #502FD3",
"s 	c #4254DE",
"t 	c #2E71DA",
"u 	c #2458AA",
"v 	c #1D69A5",
"w 	c #4558E6",
"x 	c #532FD7",
"y 	c #5843EF",
"z 	c #1F75C6",
"A 	c #1D62A3",
"B 	c #5942F0",
"C 	c #1D5FA3",
"D 	c #5942EF",
"E 	c #1D63A0",
"F 	c #532FD6",
"G 	c #5943EF",
"H 	c #1F77C6",
"I 	c #1D66A1",
"J 	c #5943F0",
"K 	c #1F76C6",
"L 	c #1D609C",
"M 	c #1D65A1",
"N 	c #2263A0",
"O 	c #1D69A4",
"P 	c #1D5FA4",
"Q 	c #1F76C5",
"R 	c #1D629E",
"S 	c #193088",
"T 	c #642EED",
"U 	c #642EEE",
"V 	c #213092",
"W 	c #233095",
"X 	c #1D62A0",
"Y 	c #2C2FA1",
"Z 	c #4D34D2",
"` 	c #2D54BC",
" .	c #2D54BB",
"..	c #4938D0",
"+.	c #382FB1",
"@.	c #5F36ED",
"#.	c #1761A6",
"$.	c #583AE5",
"%.	c #372FB0",
"&.	c #1D60A3",
"*.	c #2F2FA6",
"=.	c #3A2FB4",
"-.	c #3E3AC1",
";.	c #4346D1",
">.	c #3D4ACB",
",.	c #115088",
"'.	c #1660A3",
").	c #384DC7",
"!.	c #562EDB",
"~.	c #4545D3",
"{.	c #1760A5",
"].	c #0A3E67",
"^.	c #165EA1",
"/.	c #4645D4",
"(.	c #4D2FCF",
"_.	c #0C3372",
":.	c #0A275E",
"<.	c #0A265E",
"[.	c #562CD6",
"}.	c #1760A4",
"|.	c #145A99",
"1.	c #145998",
"2.	c #135795",
"3.	c #165FA3",
"4.	c #4C2CC7",
"5.	c #0A265D",
"6.	c #0A2860",
"7.	c #000204",
"8.	c #000000",
"9.	c #5323C0",
"0.	c #155C9D",
"a.	c #145997",
"b.	c #491FA9",
"c.	c #01090F",
"d.	c #155C9C",
"e.	c #0A3B63",
"f.	c #4A1FAA",
"g.	c #0A3D65",
"h.	c #010305",
"i.	c #000305",
"j.	c #09395E",
"k.	c #5324C0",
"l.	c #000001",
"m.	c #000203",
"n.	c #0A3D66",
"o.	c #4E29BD",
"p.	c #6635F6",
"q.	c #424AD3",
"r.	c #1863AA",
"s.	c #165FA1",
"t.	c #0C4370",
"u.	c #0C426E",
"v.	c #030B12",
"w.	c #0B3E67",
"x.	c #434AD4",
"y.	c #4524A8",
"z.	c #1A61A3",
"A.	c #175691",
"B.	c #1961A3",
"C.	c #165590",
"D.	c #02090F",
"E.	c #0C3176",
"F.	c #0E387F",
"G.	c #2079CE",
"H.	c #207CD1",
"I.	c #0F3B82",
"J.	c #1D69A6",
"K.	c #0F3B83",
"L.	c #5539E0",
"M.	c #14569B",
"N.	c #15579D",
"O.	c #1968B0",
"P.	c #1968B1",
"Q.	c #15589E",
"R.	c #15569B",
"S.	c #463FCF",
"T.	c #563BE3",
"U.	c #4744D4",
"V.	c #573FEA",
"W.	c #1C70BE",
"X.	c #494BDF",
"Y.	c #4B51E9",
"Z.	c #5D3EF2",
"`.	c #336BDD",
" +	c #5349ED",
".+	c #435AE5",
"++	c #6733F7",
"@+	c #6833F7",
"#+	c #5546EE",
"$+	c #1D629D",
"%+	c #227DD5",
"&+	c #237BD5",
"*+	c #237CD5",
"=+	c #217ED5",
"                                                                                                                                ",
"                                                                                                                                ",
"                                          . + + + + + + + + + + + + + + + + + + @                                               ",
"                                          # + + + + + + + + + + + + + + + + + + $                                               ",
"                                  % & & & * = = = = = = = = = = = = = = = = = = - % % & &                                       ",
"                                  + + + + ; > > > > > > > > > > > > > > > > > > , + + + +                                       ",
"                              ' ) ! ! ! ! ~ { { { { { { { { { { { { { { { { { { ] ! ! ! ! ^ /                                   ",
"                              + ( > > > > _ : : : : : : : : : : : : : : : : : : < > > > > [ +                                   ",
"                              + ( > } | 1 2 : : : : : : : : : : : : : : : : : : 3 1 4 5 > [ +                                   ",
"                              + ( > } : : : : : : : : : : : : : : : : : : : : : : : 6 7 > 8 +                                   ",
"                            9 0 a b c : : : : : : : : : : : : : : : : : : : : : : : d e b f 0 g                                 ",
"                          + h > i : : : : : : : : : : : : : : : : : : : : : : : : : : : : j > k + l                             ",
"                        m n o p q : : : : : : : : : : : : : : : : : : : : : : : : : : : : r p s t u                             ",
"                    v + w > x : : : : : : : : : : : : : : : : : : : : : : : : : : : : : : : : e > y + z                         ",
"                    A + w > x : : : : : : : : : : : : : : : : : : : : : : : : : : : : : : : : e > B + z                         ",
"                    C + w > x : : : : : : : : : : : : : : : : : : : : : : : : : : : : : : : : e > D + z                         ",
"                    E + w > F : : : : : : : : : : : : : : : : : : : : : : : : : : : : : : : : e > G + H                         ",
"                    I + w > F : : : : : : : : : : : : : : : : : : : : : : : : : : : : : : : : e > J + K                         ",
"                    L + w > x : : : : : : : : : : : : : : : : : : : : : : : : : : : : : : : : e > B + z                         ",
"                    L + w > x : : : : : : : : : : : : : : : : : : : : : : : : : : : : : : : : e > B + z                         ",
"                    M + w > x : : : : : : : : : : : : : : : : : : : : : : : : : : : : : : : : e > G + K                         ",
"                    N + w > F : : : : : : : : : : : : : : : : : : : : : : : : : : : : : : : : e > G + H                         ",
"                    O + w > x : : : : : : : : : : : : : : : : : : : : : : : : : : : : : : : : e > G + K                         ",
"                    A + w > x : : : : : : : : : : : : : : : : : : : : : : : : : : : : : : : : e > B + z                         ",
"                    P + w > x : : : : : : : : : : : : : : : : : : : : : : : : : : : : : : : : e > D + Q                         ",
"                    R + w > F : : : : : : : : : : : : : : : : : : : : : : : : : : : : : : : : e > G + H                         ",
"                    I + w > x : : : : : : : : : : : : : : : : : : : : : : : : : : : : : : : : e > J + K                         ",
"                    L + w > x : : : : : : : : : : : : : : : : : : : : : : : : : : : : : : : : e > B + z                         ",
"                    L + w > x : : : : : : : : : : : : S T U T T T T V : : : : : : : : : : : : e > B + z                         ",
"                    I + w > x : : : : : : : : : : : : < > > > > > > W : : : : : : : : : : : : e > J + K                         ",
"                    X + w > F : : : : : : : : : : Y x Z ` ` `  . .` ..x Y : : : : : : : : : : e > G + H                         ",
"                    P + w > x : : : : : : : : : : +.> @.#.#.#.#.#.#.$.> %.: : : : : : : : : : e > D + K                         ",
"                    &.+ w > x : : : : : : : : *.=.-.;.>.#.#.,.,.'.#.).;.-.=.Y : : : : : : : : e > J + z                         ",
"                    P + w > x : : : : : : : : !.> ~.#.#.#.{.].].^.#.#.#./.> (.: : : : : : : : e > D + K                         ",
"                    X + w > F : : : : _._.:.<.[.> ~.#.}.|.1.].].2.|.3.#./.> 4.5.6._._.: : : : e > G + H                         ",
"                    I + w > x : : : : ].].7.8.9.> ~.#.0.].].].].].].a.#./.> b.8.c.].].: : : : e > J + K                         ",
"                    L + w > x : : : : ].].7.8.9.> ~.#.d.].].e.e.].].a.#./.> f.8.c.].].: : : : e > B + z                         ",
"                    L + w > x : : : : ].].7.8.9.> ~.#.0.].g.h.i.j.].a.#./.> f.8.c.].].: : : : e > B + z                         ",
"                    I + w > x : : : : ].].7.8.k.> ~.#.0.].g.l.8.j.].a.#./.> b.8.c.].].: : : : e > J + K                         ",
"                    R + w > F : : : : ].].m.8.k.> ~.#.0.].g.l.8.j.].a.#./.> b.8.c.].].: : : : e > G + H                         ",
"                    P + w > x : : : : ].].7.8.9.> ~.#.0.].g.l.8.j.].a.#./.> f.8.c.].].: : : : e > D + Q                         ",
"                    A + w > x : : : : ].].7.8.k.> ~.#.0.].g.l.8.j.].a.#./.> f.8.c.].].: : : : e > B + z                         ",
"                    O + w > x : : : : ].].7.8.9.> ~.#.0.].n.l.8.j.].a.#./.> f.8.c.].].: : : : e > G + K                         ",
"                    N + w > F : : : : ].].m.8.k.> ~.#.0.].g.l.8.j.].a.#./.> b.8.c.].].: : : : e > G + H                         ",
"                    M + w > x : : : : ].].7.8.9.> ~.#.0.].g.l.8.j.].a.#./.> b.8.c.].].: : : : e > G + K                         ",
"                    L + w > x : : : : ].].7.8.o.p.q.r.s.t.u.v.v.w.t.d.r.x.p.y.8.c.].].: : : : e > B + z                         ",
"                    L + w > x : : : : ].].7.8.z.+ + + + + + + + + + + + + + A.8.c.].].: : : : e > B + z                         ",
"                    I + w > F : : : : ].].7.8.B.+ + + + + + + + + + + + + + C.l.D.].].: : : : e > J + K                         ",
"                    E + w > F : : : E.#.#.#.#.#.#.#.#.#.#.#.#.#.#.#.#.#.#.#.#.#.#.#.{.E.: : : e > G + H                         ",
"                    C + w > x : : : E.#.#.#.#.#.#.#.#.#.#.#.#.#.#.#.#.#.#.#.#.#.#.#.{.E.: : : e > D + z                         ",
"                    A + w > x : F.G.G.H.H.H.H.H.H.H.H.H.H.H.H.H.H.H.H.H.H.H.H.H.H.H.H.G.G.I.: e > B + z                         ",
"                    J.+ w > x : F.+ + + + + + + + + + + + + + + + + + + + + + + + + + + + K.: e > G + K                         ",
"                    N + w > L.M.N.O.O.P.P.O.O.O.P.O.O.O.O.P.O.O.O.O.P.O.O.O.O.P.O.O.O.P.P.Q.R.S.> G + H                         ",
"                    M + w > T.#.#.#.#.#.#.#.#.#.#.#.#.#.#.#.#.#.#.#.#.#.#.#.#.#.#.#.#.#.#.#.#.U.> G + K                         ",
"                    L + w > V.W.W.W.W.W.W.W.W.W.W.W.W.W.W.W.W.W.W.W.W.W.W.W.W.W.W.W.W.W.W.W.W.X.> B + z                         ",
"                    L + w > G + + + + + + + + + + + + + + + + + + + + + + + + + + + + + + + + Y.> B + z                         ",
"                    E + w > Z.`.`.`.`.`.`.`.`.`.`.`.`.`.`.`.`.`.`.`.`.`.`.`.`.`.`.`.`.`.`.`.`. +> J + H                         ",
"                    E + w > > > > > > > > > > > > > > > > > > > > > > > > > > > > > > > > > > > > J + H                         ",
"                    L + .+++++++++@+++++++++++++++++++++++++++++++++++++++++++++++++++++++++@+++++#++ z                         ",
"                    $++ %+&+&+&+&+&+&+*+&+&+&+&+*+&+&+&+&+*+&+&+&+&+*+&+&+&+&+*+&+&+&+&+*+&+&+&+&+*++ z                         ",
"                    v + + + + =++ + + + =++ + + =+=++ + =+=+=++ + =+=+=++ + =+=++ + + =++ + + + =++ + z                         ",
"                                                                                                                                ",
"                                                                                                                                ",
"                                                                                                                                "};
