/* XPM */
static char * portal_xpm[] = {
"64 64 113 2",
"  	c #FFFFFF",
". 	c #CBDBFC",
"+ 	c #9BADB7",
"@ 	c #E5E5E5",
"# 	c #9BA7BD",
"$ 	c #E2E3E3",
"% 	c #D3D4D6",
"& 	c #B8BDC5",
"* 	c #9DA4C1",
"= 	c #4854E7",
"- 	c #9AA1C1",
"; 	c #7E8F9B",
"> 	c #DADADC",
", 	c #848FC6",
"' 	c #3C61E1",
") 	c #4151DA",
"! 	c #492FC9",
"~ 	c #414FD9",
"{ 	c #808CC7",
"] 	c #83949F",
"^ 	c #7993C0",
"/ 	c #5348ED",
"( 	c #612EEB",
"_ 	c #3F2FBA",
": 	c #0C3075",
"< 	c #3C2FB7",
"[ 	c #612EE9",
"} 	c #5646EE",
"| 	c #7190C2",
"1 	c #F3F3F3",
"2 	c #758DC5",
"3 	c #4F46E4",
"4 	c #372FB0",
"5 	c #342FAC",
"6 	c #5044E4",
"7 	c #6E89C5",
"8 	c #F2F2F2",
"9 	c #FAFAFA",
"0 	c #5583CC",
"a 	c #5B3CEE",
"b 	c #2A2F9F",
"c 	c #282F9B",
"d 	c #5D3AEE",
"e 	c #4D82CE",
"f 	c #3480D1",
"g 	c #6634F6",
"h 	c #1D308D",
"i 	c #1B308A",
"j 	c #6733F7",
"k 	c #2E7FD2",
"l 	c #0D3077",
"m 	c #502FD3",
"n 	c #0E3078",
"o 	c #10307A",
"p 	c #412FBE",
"q 	c #3D4ACB",
"r 	c #4130BE",
"s 	c #11307B",
"t 	c #12307E",
"u 	c #3430AD",
"v 	c #4A43D7",
"w 	c #1761A6",
"x 	c #12538D",
"y 	c #4943D7",
"z 	c #3431AD",
"A 	c #13307F",
"B 	c #0C3273",
"C 	c #0B2F6A",
"D 	c #1A2674",
"E 	c #6632F3",
"F 	c #145896",
"G 	c #0A3E67",
"H 	c #6532F2",
"I 	c #1D2678",
"J 	c #0B2E69",
"K 	c #0B376E",
"L 	c #072A46",
"M 	c #13082B",
"N 	c #1760A5",
"O 	c #09365A",
"P 	c #1760A4",
"Q 	c #150931",
"R 	c #062843",
"S 	c #000000",
"T 	c #061625",
"U 	c #217ED4",
"V 	c #07192A",
"W 	c #11488D",
"X 	c #1761A7",
"Y 	c #124A8E",
"Z 	c #1961B1",
"` 	c #207BD0",
" .	c #207CD1",
"..	c #1A63B4",
"+.	c #297ED2",
"@.	c #2552AF",
"#.	c #1862A8",
"$.	c #1865AD",
"%.	c #1862A9",
"&.	c #2353AD",
"*.	c #2C69D1",
"=.	c #1E76C8",
"-.	c #2A6BCF",
";.	c #5249EC",
">.	c #4D4FEA",
",.	c #524AEC",
"'.	c #4954E8",
").	c #4C50E9",
"!.	c #4953E8",
"~.	c #94A2BE",
"{.	c #91A0BD",
"].	c #738EBC",
"^.	c #93A2BE",
"                  .             .                       .                         .             .                       .       ",
"                                                                                                                                ",
"                                                                                                                                ",
".                                               .                                                               .               ",
"                                            .   .                     + +                                   .   .               ",
"                                            .   .                   + . . +                                 .   .               ",
"                                            .                       . + . .                                 .                   ",
"      . . .                                 .                     . .     .                                 .                   ",
"                                                                  . .                                                           ",
"        . . . .                                                   .                                                           . ",
"                                                                                                                                ",
"                                                                                                                                ",
"                                                                            +                                                   ",
"                                                                          +   +                                                 ",
"                                                                            +                                                   ",
".                                                                                                                               ",
"                                                    @ # # # # # # # # # $                                                     . ",
"                                                % & * = = = = = = = = = - & ;                                                   ",
"                                              > , ' ) ! ! ! ! ! ! ! ! ! ~ ' { ]                                                 ",
"                                              ^ / ( _ : : : : : : : : : < [ } |                                                 ",
"                                            1 2 3 4 : : : : : : : : : : : 5 6 7 8                                               ",
"                                          9 0 a b : : : : : : : : : : : : : c d e 9                                             ",
".                                         f g h : : : : : : : : : : : : : : : i j k                             . . . .         ",
"                                          f g h : : : : : : : : : : : : : : : i j k                                             ",
"                          +               f g h : : : : : : : : : : : : : : : i j k                                 . . .       ",
"                        +   +             f g h : : : : : : : : : : : : : : : i j k                                             ",
"          + . .           +               f g h : : : : : : : : : : : : : : : i j k                                             ",
"        + . .                             f g h : : : : : : : : : : : : : : : i j k                                             ",
"        + . +                             f g h : : : : : : : : : : : : : : : i j k                                           . ",
"          + . . .                         f g h : : : : : l m m m n : : : : : i j k                                             ",
"              . . .                       f g h : : : : o p q q q r s : : : : i j k                                             ",
"                                .         f g h : : : t u v w x w y z A : : : i j k                                             ",
"                                  .       f g h : B C D E w F G F w H I J B : i j k           .                                 ",
"                                .         f g h : K L M E N G O G P H Q R K : i j k                         . . .               ",
"                                          f g h : K L M E N G S G P H Q R K : i j k                           . . . +           ",
".                                         f g h : K L M E N G S G P H Q R K : i j k                               + . +         ",
"                                          f g h : K L M E N G S G P H Q R K : i j k                               . . +         ",
"                                          f g h : K L M E N G S G P H Q R K : i j k                 +           . . +           ",
"                                          f g h : K L T U U U U U U U V R K : i j k               +   +                         ",
"      . . .                               f g h : W N P X X X X X X X P N Y : i j k                 +                           ",
"                                          f g h Z `  . . . . . . . . . . .` ..i j +.                                            ",
"        . . . .                           f g @.#.$.$.$.$.$.$.$.$.$.$.$.$.$.%.&.j +.                                          . ",
"                                          f g *.=.=.=.=.=.=.=.=.=.=.=.=.=.=.=.-.j +.                                            ",
"                                          f g ;.>.>.>.>.>.>.>.>.>.>.>.>.>.>.>.,.j k                                             ",
"                                          f '.).).).).).).).).).).).).).).).).).!.k                                             ",
"                                          ~.{.{.{.{.{.{.{.].{.{.{.{.{.{.{.{.{.{.{.^.                                            ",
"                                                        .   .                                                                   ",
".                                                         .                                                                     ",
"                                                                                                                              . ",
"                                                  +                                                                             ",
"                                                +   +                                                                           ",
"                                                  +                                                                             ",
"                                                                                                                                ",
"                                                                                                                                ",
".                                                           .                                                   . . . .         ",
"                                                          . .                                                                   ",
"                  .                                 .     . .                     .                                 . . .       ",
"                  .                                 . . + .                       .                                             ",
"          +   .   .                                 + . . +                   .   .                                 +           ",
"        +     .   .                                   + +                     .   .                                   +         ",
"              .                                                               .                                               . ",
"                                                                                                                                ",
"                                                                                                                                ",
"      .                       .             .                         .                       .             .                   "};
