/* XPM */
static char * portal_xpm[] = {
"64 64 50 1",
" 	c #FFFFFF",
".	c #CBDBFC",
"+	c #E7E7E7",
"@	c #000000",
"#	c #737373",
"$	c #D7D7D7",
"%	c #7D7D7D",
"&	c #FBFBFB",
"*	c #ECECEC",
"=	c #959595",
"-	c #DCDCDC",
";	c #C9C9C9",
">	c #A3A3A3",
",	c #9BADB7",
"'	c #9A9A9A",
")	c #626A7B",
"!	c #DCDCDD",
"~	c #D6D8DA",
"{	c #C5C8CB",
"]	c #616D73",
"^	c #495258",
"/	c #D1D1D1",
"(	c #686868",
"_	c #707070",
":	c #010002",
"<	c #070009",
"[	c #050007",
"}	c #1A021F",
"|	c #16021B",
"1	c #0C0110",
"2	c #19021E",
"3	c #130117",
"4	c #17021C",
"5	c #140118",
"6	c #B7C6E4",
"7	c #82919A",
"8	c #383838",
"9	c #818BA1",
"0	c #C7D7F8",
"a	c #41494E",
"b	c #313031",
"c	c #6C6B6C",
"d	c #6E6D6E",
"e	c #727272",
"f	c #616061",
"g	c #D6D6D6",
"h	c #979797",
"i	c #EEEEEE",
"j	c #9E9E9E",
"k	c #E0E0E0",
"         .      .    +@#    .        $@% .      .           .   ",
"                                                                ",
"                     +@#             $@%                        ",
".                &+* *%=$-          $;%> &+*            .       ",
"                 +@%  .+@#         ,@%   +@%          . .       ",
"                 *%'+*.*)=$!      ~{)] &+$%>          . .       ",
"                   +@%.  +@#      @^.. +@%            .         ",
"   ...       &+++* *%>.  +@#     .@% . *%> &+++*      .         ",
"             +@@@%               ..        +@@@%                ",
"    ....   &+$%%%>     &+/@(     .@_+*     *%%%'+*             .",
"           +@%         +@@@@@@@@@@@@@%         +@%              ",
"           +@%     &+++/@@@@@@@@@@@@@_+++*     +@%              ",
"           +@%     +@@@@@@@@@@@@@@@@@@@@@%     +@%              ",
"       &+* *%>   &+/@@@@@@@@@@@@@@@@@:<[@_+*   *%> &+*          ",
"       +@%       +@@@@@@@@@@@@@@@@@@@<}|@@@%       +@%          ",
".    &+$%>     &+/@@@@@:<<<[@@@:<<<<<1}|@@@_+*     *%'+*        ",
"     +@%       +@@@@@@@<}}}|@@@<}}}}}}}|@@@@@%       +@%       .",
"     +@%     &+/@@@@@@@<}}}|@@@<}2|||||3@@@@@_+*     +@%        ",
"     +@%     +@@@@@@@@@<}}}|@@@<}|@@@@@@@@@@@@@%     +@%        ",
"     *%>   &+/@@@@@@@@@<}}}|@@@[|3@@@@@@@@@@@@@_+*   *%>        ",
"           +@@@@@@@@@@@<}}}|@@@@@@@@@@@@@@@@@@@@@%              ",
"           +@:<[@@@@@@@<}}}|@@@@@@@@@:<<<[@@@@@@@%              ",
".          +@<}|@@@@@@@<}}}|@@@@@@@@@<}}}|@@@@@@@%      ....    ",
"   &+*   &+/@<}4<[@@@@@[|||3@@@@@@@@@<}}}|@@@@@@@_+*   &+*      ",
"   +@%   +@@@<}}}|@@@@@@@@@@@@@@@@@@@<}}}|@@@@@@@@@%   +@%...   ",
" &+$%>   +@@@[|4}4<[@@@@@@@@@@@@@@@@@[|||5<<<[@@@@@%   *%'+*    ",
" +@% ,.. +@@@@@<}}}|@@@@@@@@@@@@@@@@@@@@@<}}}|@@@@@%     +@%    ",
" +@%,..  +@@@@@<}}}|@@@@@@@@@@@@@@@@@@@@@<}}}|@@@@@%     +@%    ",
" +@%,.,  +@@@@@<}}}|@@@@@@@@@@@@@@@@@@@@@<}}}|@@@@@%     +@%   .",
" +@% ,...+@@@@@[|||3@@@@@@@@@@@@@@@@@@@@@<}}}|@@@@@%     +@%    ",
" +@%   ..6@@@@@@@@@@@@@@@@@@@@@@@@@@@@@@@<}}}|@@@@@%     +@%    ",
" +@%     +@@@@@@@@@@@@@@@@@@@@@@@@@@@@@@@<}}}|@@@@@%     +@%    ",
" +@%     +@@@@@@@@@@@@@@@@@@@@@@@@@@@@@@@<}}}|@@@@@%     +@%    ",
" +@%     +@@@@@:<<<[@@@:<<<[@@@@@@@@@@@@@[|4}|@@@@@%  ...+@%    ",
" +@%     +@@@@@<}}}|@@@<}}}|@@@@@@@@@@@@@@@<}|@@@@@%   ..6@%    ",
".*%'+*   +@@@@@<}}}|@@@<}}}|@@@@@@@@@@@@@@@<}|@@@@@%   &+7)]    ",
"   +@%   +@@@@@<}}}|@@@<}}}|@@@@@@@@@@@@@@@<}|@@@@@%   +@).,    ",
"   *%>   *%_@@@[|||3@@@[|||3@@@@@@@:<<<[@@@[|3@@@8^>   *)9,     ",
"           +@@@@@@@@@@@@@@@@@@@@@@@<}}}|@@@@@@@@@^ ,            ",
"   ..0+*   +@@@@@@@:<<<[@@@@@@@@@@@[|4}|@@@@@@@@@%,  &+*        ",
"     +@%   +@@@@@@@<}}}|@@@@@@@@@@@@@<}|@@@@@@@@@%   +@%        ",
"    .6@)   *%_@@@@@[|4}|@@@@@@@@@@@@@[|3@@@@@@@8%>   +@%       .",
"     +@%     +@@@@@@@<}|@@@@@@@@@@@@@@@@@@@@@@@%     +@%        ",
"     *%'+*   *%_@@@@@[|3@:<<<[@@@:<<<[@@@@@@@8%>   &+$%>        ",
"       +@%     +@@@@@@@@@<}}}|@@@<}}}|@@@@@@@%     +@%          ",
"       *%>     *%_@@@@@@@<}}}|@@@<}}}|@@@@@8%>     *%>          ",
"                 +@@@@@@@<}}}|@@@<}}}|@@@@@%                    ",
".        &+*     *%_@@@@@[|||3@@@[|||3@@@8%>     &+*            ",
"         +@%       +@@@@@@@@@@@@@@@@@@@@@%       +@%           .",
"         +@_+*     *%%%_@@@@@@@@@@@@@8%%%>     &+/@%            ",
"         +@@@%         +@@@@@@@@@@@@@%         +@@@%            ",
"         *%%%'+* &+*   *%a@bcd#ecf@8%>   &+* &+$%%%>            ",
"             +@% +@%     +@c      @%     +@% +@%                ",
"             *%> *%'+*                 &+$%> *%>                ",
".                  +@%   +@#  .   @%   +@%              ....    ",
"                   *%> &+g#h ..   #=+* *%>                      ",
"         .             +@#.  ..     @%   .                ...   ",
"         .           &+g#h..,.      #=+* .                      ",
"     , . .           +@#  ,..,      i$@) .                ,     ",
"    ,  . .           +@#   ,,        $@) .                 ,    ",
"       .                               .                       .",
"                     +@#             $@%                        ",
"                     +@#             $@%                        ",
"   .           .     *)j           . k%>       .      .         "};
