/* XPM */
static char *result[] = {
/* columns rows colors chars-per-pixel */
"64 64 152 2 ",
"   c #CFA85B",
".  c #DEB461",
"X  c #E6BA64",
"o  c #E2B763",
"O  c #DBB261",
"+  c #DAB160",
"@  c #D0A95C",
"#  c #D7AE5E",
"$  c #E5B964",
"%  c #DCB361",
"&  c #DFB562",
"*  c #D7AE5F",
"=  c #DEB460",
"-  c #E7BA64",
";  c #D9B160",
":  c #CEA75B",
">  c #DBB260",
",  c #E7BB64",
"<  c #E6BA63",
"1  c #D3AC5D",
"2  c #DAB369",
"3  c #DEB870",
"4  c #DEB76E",
"5  c #DEB463",
"6  c #DDB461",
"7  c #D5AD5E",
"8  c #D3AB5D",
"9  c #DEB563",
"0  c #D8B36C",
"q  c #D7B26E",
"w  c #D7B168",
"e  c #DFB462",
"r  c #DEB462",
"t  c #D8B060",
"y  c #D9B060",
"u  c #D9B268",
"i  c #DEB86F",
"p  c #D3B377",
"a  c #CFB385",
"s  c #CFB27F",
"d  c #CFA960",
"f  c #D2AA5C",
"g  c #E3B863",
"h  c #E3B968",
"j  c #D2B480",
"k  c #CFAF75",
"l  c #CFB384",
"z  c #D3B378",
"x  c #D9B05F",
"c  c #DBB46A",
"v  c #D7B26C",
"b  c #D7AF61",
"n  c #D8AF5F",
"m  c #E1B662",
"M  c #D2AF6D",
"N  c #CFAF76",
"B  c #D1B073",
"V  c #DDB464",
"C  c #E4B965",
"Z  c #D9B36C",
"A  c #D8B269",
"S  c #D6B068",
"D  c #DAB05F",
"F  c #D9B369",
"G  c #D7B26D",
"H  c #CEA85B",
"J  c #D1AA5C",
"K  c #CFB386",
"L  c #D0B381",
"P  c #D9B265",
"I  c #DDB361",
"U  c #D4AC5E",
"Y  c #E1B763",
"T  c #D4B375",
"R  c #D2B37C",
"E  c #DAB265",
"W  c #DAB161",
"Q  c #E4B863",
"!  c #DAB264",
"~  c #DBB262",
"^  c #D7AF60",
"/  c #D6AE5F",
"(  c #D7AF5F",
")  c #E0B662",
"_  c #E0B562",
"`  c #D7B579",
"'  c #DBB160",
"]  c #DCB261",
"[  c #D0B380",
"{  c #D1A95C",
"}  c #DAB262",
"|  c #DAB261",
" . c #CFA85A",
".. c #CFA75A",
"X. c #CFAC6A",
"o. c #D4AF66",
"O. c #D7B36E",
"+. c #D4AF67",
"@. c #D6AD5E",
"#. c #DDB462",
"$. c #D8B05F",
"%. c #D0A95B",
"&. c #DFB564",
"*. c #E4B964",
"=. c #D4AC5D",
"-. c #E5B963",
";. c #DDB76E",
":. c #DBB363",
">. c #DDB360",
",. c #D6B26B",
"<. c #D4AC5F",
"1. c #DDB66A",
"2. c #D1B380",
"3. c #D0AF73",
"4. c #D6AE61",
"5. c #CFB280",
"6. c #CEA75A",
"7. c #D0B27B",
"8. c #D0AA60",
"9. c #DAB263",
"0. c #DBB365",
"q. c #D7B064",
"w. c #E3B763",
"e. c #D4B06C",
"r. c #D5AD5F",
"t. c #DDB66D",
"y. c #E4B862",
"u. c #D6AE5E",
"i. c #DCB56A",
"p. c #D6B26E",
"a. c #E4B963",
"s. c #D0AC68",
"d. c #D3AC5F",
"f. c #D4AD5E",
"g. c #DAB162",
"h. c #D1B27B",
"j. c #D2AB60",
"k. c #D0AD69",
"l. c #CEB386",
"z. c #D3B06E",
"x. c #D6B270",
"c. c #D3B274",
"v. c #D3AC60",
"b. c #DEB76F",
"n. c #DFB667",
"m. c #DEB566",
"M. c #D1AB60",
"N. c #E1B663",
"B. c #CFB17B",
"V. c #D1AA5D",
"C. c #DCB66D",
"Z. c white",
/* pixels */
"          . X X X X o O O O O + @   # X X X X $ % O O O O O O O O O O O O O O + @   # X X & O O O O *     . X $ % O *     . X X ",
"          = - X X - o O O O O ; @ : # X X X X $ % O O O O O O O > > O O O O O ; @ : # X X & O O O O *     . , $ % O *     = - < ",
"1 1 1 1 1 2 3 4 5 . . & & & & 6 7 8 # . . . . . & & % * * % & 9 0 q w * * % & 6 7 8 # . . e & r O O t 1 1 + . . & & y     u 3 i ",
"O O O O O p a s d   # X X X X $ % O *         f g - .     . - h j a k     . X $ % O *     . X $ % O O O O 1   f g - .     k a l ",
"O O O O O z a s d   # X X X X $ % O *         f g - .     . - h j a k     . X $ % O *     . X $ % O O O O 1   f g X .     k a l ",
"1 8 x o o c q v b * + & & + # n m o . * * M N B V & y     . - C Z q w * * # # n m o . * * % & r O O A p p S # * # # D . . F q G ",
"  H # X X & > > O O O O O 8 : J g - o O O z K L P O *     . X $ I > O O O 8 : J g - o O O O O O O > q a a q O + @ : # X - & > > ",
"    # X X & O O % % % O O U @ 8 o $ Y O O T L R E O *     . X $ % O O O O 1   f g X o O O W + + + + v j j Z I O f @ # g g & % % ",
"    # X X & O % Q $ Y O O W + + % % % O O ! E E ~ O *     . X $ % O O O O 1   f g X o O O U @ @ @ @ ^ h h C $ g O + * f f . $ $ ",
"    # X X & O I $ , o O O O O O O O O O O O O O O O *     . , $ % O O O O 8 H f g - o O O 8 H     : # X - - - $ % O / H   . , X ",
"    # X X % / n I . . & & + * n r & r O O t * n r & > 1 1 + . . & & & & & ( 8 7 ) o _ O O / 8 1 1 8 # . . . . . & & % # # . o o ",
"    # X X #         # X X # H f g X o O O 1   f g X o O O 1   f g X X X X & O O O O O O O O O O O O *         f g X X X X & O O ",
"    # X X #         # X X # H f g X o O O 1   f g X o O O 1   f g X X X X & O O O O O O O O O O O O *         f g X X X X & O O ",
"    # X X % / * * # w ` ` w # * # # ' o o > * * # # ' o o > / n r & % # # . o Y % O O O O / 8 7 ) o . * * * * n r & & & & % O O ",
"    # X X & O O O > q a a q ] + @ : # X X & O + @ : # X X & O O O O /     . , $ % O O O O 8 : f Q , o O O O O O O O O O O O O O ",
"    # X X & O O O > v [ [ v O + @   # X X & O + @   # X X & O O O O ( @ { I $ Q % O O O O U @ 8 m g m % % O O O + ; O % % O O O ",
"    # X X & O O O O } E E } O + @   # X X & O + @   # X X & O O O O | + + O % % O O O O O W + y 8 J n $ $ r O + f @ n $ $ r O O ",
" ...# X X & O O O O O O O O O + @ : # X X & O + @ : # X X & O O O O O > > O O O O O O O O O O + @ : # X X & O + @ H # X X & O O ",
"X.X.o.. . e & r O O O O O t * * # # ' o o r O W U 8 # . . e & r O O P G G P O | ( * + & & % O W U 8 x o o r O + @   # X X & O O ",
"l a k     . X $ % O O O O 1   f g X o O O O O O O O *     . X $ % > G l l G > + @   # X X & O O O O O O O O O + @   # X X & O O ",
"l a k     . X $ % O O O O 1   f g X o O O O O O O O *     . X $ % > G l l G > + @   # X X & O O O O O O O O O + @   # X X & O O ",
"G O.+.    . - Q @.8 x o o > * * # # ' o o o o Y % O *     . X $ % O P G G P O | ( * * # # . o ) 7 8 x o o r O + @   # X X & O O ",
"> > #     . - g f : # X X & O + @ : # X X X X $ % O *     . - $ % O O > > O O O O O *     . , g f : # X X & O ; @ H # X X & O O ",
"O O *     . - g 8 @ n X X & O + f @ # g g g g o #.% $.@ { I $ g O ; O % % % % % O O *     . - g 8 @ # g g & % O f %.^ h h &.% % ",
"O O *     . X *.O ; r X X & O O + + * f f f f =.o $ m + + O % O f @ n $ $ $ $ Q % O *     . X *.O + * f f . $ g O + v j j 4 -.$ ",
"O O *     = , -.% O & X X & O O O O *       H J Q , o O O O > + @ : # X X X - $ % O /     . , $ % O *     . , $ % > q a a 3 - X ",
"O O t 1 1 2 3 ;.:.O % . . e & r O O t 1 1 1 8 7 >.. I O O A q ,.<.8 # . . . . . & & % # # > . . & & > 1 1 + . . & & c z z 1.o o ",
"O O O O O p a 2.E O *     . X $ % O O O O O O + {   1 O O p a [ E O *         f g X X X X #   f g X o O O 1   f g X o O O O O O ",
"O O O O O p a 2.E O *     . X $ % O O O O O O + {   1 O O p a [ E O *         f g X X X X # H f g X o O O 1   f g X o O O O O O ",
"O O t 1 1 2 3 ;.:.O ; * * % & r O O O O O / 8 7 >.. I O O A q v } O ; * * * * * # # # # # M N 3.4.# ' o o > / n r & > 1 1 I o o ",
"O O *     = , -.% O O O O O O O O O O O O 8 : f Q , o O O O > O O O O O O O O + @ H       N K 5.d 6.# X X & O O O O *     . - X ",
"O O *     . X $ % O } E E } O O + ; O % % 7 @ 8 m g m % % O ; + % % % O O O O + f @ @ @ @ 3.L 7.8.%.# g g & % % O O *     . X X ",
"O O *     . X $ % > v [ [ v O + f @ n $ $ 6 ; y 8 J n $ $ n @ 8 o $ Y O O O O O + + + + + 9.E E W + * f f . $ Q % O *     . X X ",
"O O *     . , $ % > q a a q > ; @ : # X X & O ; @ : # X X # : f Q , o > > O O O O O O O O O O O O O *     . , $ % O *     = - < ",
"O O t 1 1 + . . & & F k k F & 6 7 8 # . . e & 6 7 8 x o o x 8 7 >.. 0.G G q.* n r & & & & % O O O O t 1 1 + . . & & y     u 3 i ",
"O O O O O 1   f g - .     . X $ % O *     . X $ % O O O O O O + {  .X.l l X. .f g X X X X & O O O O O O O 1   f g - .     k a l ",
"O O O O O 1   f g - .     . X $ % O *     . X $ % O O O O O O + @  .X.l l X. .f g X X X X & O O O O O O O 1   f g - .     k a l ",
"O O O O O 1   f g X m ( * # # n m w.>     . X $ % O t 1 1 I o m $.# e.l l e.# * # # # # # + O W U 8 x o o > / n r & y     u 3 i ",
"O O O O O 8 H f g X o O O 8 : J g , .     . , $ % O *     . , $ I > q l l q ] + @     H H * O + @ : # X X & O O O O *     = , - ",
"O O } E E r.J =.o $ Y O O 1   f g - . { { >.Q o #.% $.@ { . X $ % > v [ [ v O + @   %.f f n O + f @ # g g & % % O O ( @ { >.Q g ",
"O > v [ 2.t.y.o #.% % O O 1   f g X o + + 7 J =.o $ m + + o X $ % O } E E } O + @   u.g g r O O + + * f f . $ Q % O | + + 7 f f ",
"O > q a a 3 , $ % O O O O 8 H f Q , o O O 8 H f g X o O O o , $ % O O O O O O + @   # X X & > > O O *     = , -.% O O O O 8     ",
"O O A p p 2 = . & & r O O / 8 7 >.. . & & 7   f g X o O O I . . & & r O O O O + @   # X X i.p.v } O *     u 3 ;.:.O O O O 1     ",
"O O O O O 1   f g X o O O O O + {   # X X # H f g X o O O 1   f g X o O O O O + @   # X X ` a [ E O *     k a 2.E O O O O 1     ",
"O O O O O 1   f g X o O O O O + @   # X X # H f g X o O O 1   f g X o O O O O + @   # X X ` a [ E O *     k a [ E O O O O 1     ",
"O O O O O 1   f g X o O O O O | ( * + & & + * n r & r O O t * x a.X o O O O O + @   # X X w X.s.d.8 f.* * w q v } O O O O t * * ",
"O O O O O 8   f g X o O O O O O O O O O O O O O O O O O O O O I $ X o O O O O + @ H # X X # 6. .  H 8 O O O > > O O O O O O O O ",
"+ + O % % 7 @ 8 o $ Y O O W + + % % % O O ! E E ~ O O O O ! P 0.o g m % % O O + f @ # g g n J f { @ U O O O O O + + g.E E } O O ",
"@ @ n $ $ 6 ; + % % % O O U @ 8 o $ Y O O T L R E O O O O T L h.j.J n $ $ r O O + + * f f >.Q o O ; W O O O O + f %.k.[ [ v > O ",
"  : # X X & O O O O O O O 8   f g X o O O z K L P O O O O z l.5.d 6.# < < & O O O O *     . , $ % O O O O O O + @ 6.X.a a q > O ",
"1 8 # . . e & r O O O O O 1   f g X o O O z.N B V & r O O x.z c.v.8 q.b.i n.& r O O *     . X $ % O O O O t * * # # o.k k F & & ",
"O O *     . X $ % O O O O 1   f g X o O O 1   f g X o O O O O O O > G l l i < $ % O *     . X $ % O O O O 1   f g X .     . X X ",
"O O *     . X $ % O O O O 1   f g X o O O 1   f g X o O O O O O O > G l l i < $ % O *     . X $ % O O O O 1   f g - .     . X X ",
"O O ; * * # # n m o _ O O t * * # # ' o o > / x a.X o O O O O O O O q.X.X.m.X $ % O ; * * # # n m o _ O O 1   f g - .     . X X ",
"O O O O O 8 : J g - o O O O O + @ : # X X & O I $ X o O O O O O O O *  . .. - $ % O O O O 8 6.J Q , o O O 1   f g - .     . X X ",
"O O } E E <.%.8 o $ o % % O O + @   # X X & O % o g m % % O O O + + * f f . $ Q % O O O O v.d M.N.Q ) O O 1   f g - . { { I $ $ ",
"O > v [ [ ,.+ + % % & $ $ r O + @   # X X & O + 8 J n $ $ r O + f @ # g g & % % O O O O O c.5.B.M.f 7 O O 1   f g X o + + O % % ",
"O > q a a O.] O O O & X X & O + @ : # X X & O ; @ : # X X & O + @ : # X - & O O O O O O O z K 5.d 6.8 O O 1   f y.- o O O O O O ",
"O O w k k +.# n r & ) o o r O W U 8 # . . e & 6 7 8 + X X & O W U 8 # . . y * n r & r O O x.z c.v.8 / O O 1   V.C.3 1.O O O O O ",
"O O *         f g X o O O O O O O O *     . X $ % O & X X & O O O O *         f g X o O O O O O O O O O O 1   d s a z O O O O O ",
"O O *         f g X o O O O O O O O *     . X $ % O & X X & O O O O *         f g X o O O O O O O O O O O 1   d s a z O O O O O ",
"O O ; * * * * * # # ' o o o o Y % O ; * * % & r O O % & & % O O O O ; * * * * * # # ' o o r O O O O O O O 1   V.C.3 1.O O O O O ",
"O O O O O O O + @ : # X X X X $ % O O O O O O O O O O O O O O O O O O O O O O + @ : # X X & O O O O O O O 1   f y.- o O O O O O ",
"O O O O O O O + @   # X X X X $ % O O O O O O O O O O O O O O O O O O O O O O + @   # X X & O O O O O O O 1   f g X o O O O O O "
};