/* XPM */
static char *result[] = {
/* columns rows colors chars-per-pixel */
"64 64 142 2 ",
"   c #3D653F",
".  c #3C6C3E",
"X  c #357E36",
"o  c #37743A",
"O  c #3A733B",
"+  c #367A39",
"@  c #3B7B3B",
"#  c #406D3F",
"$  c #42743F",
"%  c #447D3F",
"&  c #473F4D",
"*  c #483E4C",
"=  c #3F5C43",
"-  c #3F564E",
";  c #3E5B4A",
":  c #3E5556",
">  c #3E5A55",
",  c #3C5C59",
"<  c #3D6342",
"1  c #3C6B41",
"2  c #3C654B",
"3  c #3B7340",
"4  c #3C6355",
"5  c #3A6C56",
"6  c #37675D",
"7  c #39645B",
"8  c #366B5E",
"9  c #396C59",
"0  c #397257",
"q  c #36745C",
"w  c #397259",
"e  c #347C5D",
"r  c #356E60",
"t  c #337362",
"y  c #327B61",
"u  c #434D47",
"i  c #46434C",
"p  c #48434B",
"a  c #444B4B",
"s  c #494B4A",
"d  c #425345",
"f  c #435B44",
"g  c #485C46",
"h  c #43534B",
"j  c #4C524A",
"k  c #405A4A",
"l  c #444650",
"z  c #434C51",
"x  c #415252",
"c  c #405952",
"v  c #416442",
"b  c #426B42",
"n  c #41604B",
"m  c #40684A",
"M  c #4B6A4B",
"N  c #447343",
"B  c #4B7643",
"V  c #4B7B42",
"C  c #4A7249",
"Z  c #2D962E",
"A  c #2E9B2D",
"S  c #31962F",
"D  c #319C2F",
"F  c #2F8635",
"G  c #2E8D32",
"H  c #348335",
"J  c #388437",
"K  c #328B34",
"L  c #3C8C37",
"P  c #368339",
"I  c #3B8339",
"U  c #378D38",
"Y  c #3B8B39",
"T  c #2F9431",
"R  c #329432",
"E  c #3A9535",
"W  c #349C32",
"Q  c #3C9D34",
"!  c #3D963A",
"~  c #3E983A",
"^  c #32A12E",
"/  c #36A232",
"(  c #3CA534",
")  c #3BAA34",
"_  c #3EA139",
"`  c #41833C",
"'  c #48833F",
"]  c #428B3D",
"[  c #488B3E",
"{  c #44933B",
"}  c #429C3A",
"|  c #4B9E3D",
" . c #41A536",
".. c #42AC34",
"X. c #4AAF37",
"o. c #42A33B",
"O. c #4AA73C",
"+. c #45AC39",
"@. c #4DAC39",
"#. c #53AE3D",
"$. c #43B135",
"%. c #4CB137",
"&. c #44B038",
"*. c #4CB339",
"=. c #4DBB38",
"-. c #52B43B",
";. c #53B93A",
":. c #5AB83E",
">. c #54C03B",
",. c #5CC23D",
"<. c #2C964F",
"1. c #2B9E4E",
"2. c #2E8F57",
"3. c #2F8659",
"4. c #2F8D59",
"5. c #328755",
"6. c #32845E",
"7. c #318C5D",
"8. c #2E9555",
"9. c #2D9A52",
"0. c #2F9259",
"q. c #349757",
"w. c #339B54",
"e. c #31915A",
"r. c #2BA747",
"t. c #2DA947",
"y. c #2AA34A",
"u. c #2DA848",
"i. c #32AE46",
"p. c #31A54C",
"a. c #39AC4C",
"s. c #36B245",
"d. c #3AB545",
"f. c #3DBA43",
"g. c #3CB149",
"h. c #38A252",
"j. c #328160",
"k. c #428441",
"l. c #4F8343",
"z. c #4B8D40",
"x. c #508F40",
"c. c #41BE42",
/* pixels */
"D -...A Z A D D A A A Z ^ Z A A Z -...Z A A D / ( Z ^ D A W ;./ Z *.&.A A A A W A A A A A A A A A *...A A A A ^ ( Z ^ D A D ;.^ ",
"*.*...D Z / ;.) A ^ A A A Z A A @.@.&.A Z / ;.) W Z ) ( T ( &.^ %.*.) W A W ;.) ^ ^ A A D S A A ..%.$.D Z Q ;.) W Z ) ( Z ( *.D ",
"( +.W R W ) o.R ^ ^ A A A A A A / c.W R D ( o.R ..( ^ D T / W F ( +.W R W ) o.R A ^ A A Z ^ ^ A ( +.Q R W ) o.T ..( ^ W G / W K ",
"G R E /  .W Z Z A A A A ^ A A A T R E /  .W S Z ) ) A / A S S Z G R E /  .W Z T A A A A A A A A G R W ^ ( W T Z ) ) A ^ W Z Z R ",
"*.) %.^ D -.D A ^ A A A A A ^ ^ %.) *.W D *.D A A / F D Q D ^ ( X.( -.D W *.D Z A A A A A A ^ ^ X.( *./ W *.^ A W / K A Q D ^ ) ",
"h.) } G ( %./ W A D Z A A A ^ A ~ ) Q R  .*.D K J H H X } ( ^ R ! ) Q T ( | J J H J G A A A ^ D ! ) _ K ( &./ W A A / A ..) ^ W ",
"G A  .+.( _ ;...A D Z ^ A A A D Z Z ( +.( _ #.' f d f d b ! Z Z T S  .+.E b g g d d o D A A A D T A ( +.( _ ;.+.) A / S / ) T Z ",
"Z Z S  ./ ( o.K Z A A A A A D D T T E ~ / ( } = p * * p f U K T A A R } Y k i * * a . Z A A D W S Z E ( / ( o.K S W A T A A G Z ",
"A A Z Z ^ Z Z A ^ Z ^ D A D @.L % + o o J @.E   p i x c 2 . + J S Z H o 3 2 c x p p # R Z D *./ ( W Z Z / %.W T S *.) ^ A Z ^ W ",
"^ ^ A A A Z A A W D ) ( Z ( O.# a a a a $ #.+.. p a 9 6.0 h j O S W . u k w 6.5 i p $ Q Z ) *.D R R D Z $.>.$.A &.*.) W Z / =.) ",
"A A A A Z ^ ^ A ..( ^ W G / L d p * i i # Y } v p a 9 6.0 h a < K K   * a w 6.w a a . L H / W H R #.O.R R W $.S ( +.E R W ) z.W ",
"^ A A A A A A A ( ) A ^ D Z K = p a c 5 n v v d & i x 4 4 4 4 2 .   u * i x 4 4 4 5 2 1 . K S K % V B . . @ R T T R E ^ ( W A A ",
"^ A A A A A ^ ^ D / K S ( D E v p z e 5.9 a & i & & & i > e 5.5 p p & * * & i > 6.6.5 i j + / U d p p p u O W D *.) *./ W *./ S ",
"A ^ A A A A ^ A Z S K K } E J f p z 9 e 5 x a i l l l l > y 6.9 : i a z z i i > 0 e > i s $ U + h a i & p l.:.( ! ) ~ G ( &./ / ",
"A Z Z A ^ A D D / L # = f f d a * i x x > w w 8 7 7 , 7 r 6.7.y 7 7 6 w 9 7 7 , c x a * p d f ; 0 w > i p % o./ T S ( +.( _ *.&.",
"A A A ^ A Z D S W o u * p p * * * * * p c 6.3.y t r t t y 6.7.j.t q e 7.6.y t , i p p * & & & h e 6.9 a i 1 X T A A E _ / ( o.K ",
"/ A ^ D A D *.^ Q @ u * a z x l * p a x 5 e j.j.y y j.j.3.7.7.j.y y j.j.6.y y 8 c x z z z x h > 5 w 5 f f + Z A / D Z Z D %.D S ",
"W Z ) ( Z ( *.D R % u * c e q x * z 5 6.e t y j.7.7.0.1.9.7.7.7.7.6.j.t y j.7.6.6.e q r 8 q e w k a < J K K D A S E D A X.;.$.D ",
"..) ^ W T / W K W [ j i 4 6.e c i x e 7.j.y t j.7.0.1.y.1.0.7.7.j.7.y t y 6.7.7.7.7.j.t y 6.7.q a * = K Z S D Z D :.=.A W W $.D ",
") ) Z / W Z Z R  .[ a i x 5 m c x 7 5.q.7.e 6.7.8.9.9.9.9.8.8.0.e.7.6.y 6.e.9.0.7.7.3.3.5.6.y q : * = . o O O + } *...D Z G W T ",
"^ / K A Q D ^ / W @ p * p i z , 8 e <.y.9.7.7.9.y.1.8.7.8.1.y.9.4.j.7.j.7.1.y.<.7.7.9.1.1.3.q 6 i & p p a p p d J E K ....D ^ D ",
"A A W A ..) ^ R U ` h i p * i 7 t 6.<.y.9.0.7.9.y.1.8.7.8.1.y.9.e.e.e.e.e.1.y.9.e.7.9.y.<.3.t 7 l & & i p * * u I ( ( ;.=.;.,.( ",
") W / Z / ) K O b m m 5 x i l 9 e 3.2.8.9.9.1.9.8.8.9.9.9.9.8.8.9.1.9.1.9.9.8.9.9.9.9.9.0.6.t 6 l & z 5 5 x i a @ W R W ) $. .( ",
"A T A Z A W + d i c e 6.7 i i 9 7.j.7.7.9.1.1.9.7.8.1.y.9.e.e.8.y.y.y.y.1.8.7.8.1.y.9.7.6.y t 8 l i > e 5.> i u + R T G R T J R ",
"A A A A R K + = h > 6.6.5 x x w j.7.0.0.9.1.1.9.0.0.p.u.1.e.7.q.u.u.u.u.p.9.e.8.y.9.9.0.0.6.y 8 x l c e e c l h O K U K H S @.D ",
"^ ^ A T O d k 5 q e q y q e e q y 6.9.1.9.0.0.9.1.y.s.f.a.q.7.h.d.f.f.f.d.p.1.9.8.0.9.9.9.4.j.y r r c x x , 6 , k d d g f % @.^ ",
"A ^ A G   p h 0 6.6.t t y 6.7.y t e <.y.9.e.e.9.y.u.d.c.g.q.e.h.f.c.c.c.f.i.y.1.e.7.9.y.y.8.4.3.t r , l i , r r z i p p p b U K ",
"^ Z Z T   i a 4 w 9 7 7 q j.j.y y 3.1.y.9.e.e.9.y.u.d.c.d.w.0.1.d.f.f.c.f.s.i.p.9.0.9.9.9.8.0.0.j.y 8 x x , 7 , , x z i *   K T ",
"^ A Z S   p * p i l l l , t t 6.3.0.y.y.9.0.j.9.y.t.d.c.f.u.y.r.t.i.d.c.c.f.f.d.u.1.9.0.0.9.y.1.7.6.e 8 r x l z 5 6.9 a *   W / ",
"A A Z S   a * * * p * l > 8 e 6.4.0.1.y.9.0.0.9.u.t.d.c.f.u.r.u.y.t.s.c.c.c.c.d.u.y.9.7.e.9.y.1.e.7.6.t r x l l 0 6.w x a . R D ",
"A W A A X .   u * l x : 8 y 6.e.8.9.9.8.8.8.9.u.s.s.s.s.i.r.r.t.i.s.s.s.s.s.s.u.9.9.9.9.9.9.9.0.6.e q , : , : > 4 4 2 < O Y R Z ",
"A D A Z Z G X d * z r r y 6.7.9.y.9.0.0.8.y.r.s.f.f.i.t.y.r.r.t.f.f.s.u.u.u.u.1.0.7.8.y.1.8.7.6.y t 7 l p , r 8 x i = X R R U S ",
"D %.) Z Z K I d & z 7 r y 7.4.9.y.1.0.0.9.u.u.s.f.f.i.u.u.u.u.s.f.f.i.r.y.t.t.y.7.7.8.1.1.8.0.7.y y r l l , 6 8 x a v K D D *.D ",
"*.*.$.R +   g i & l z : 6 t j.4.0.9.9.1.p.s.d.s.i.i.s.d.d.d.d.s.i.i.y.y.t.i.d.p.8.7.0.8.8.9.9.9.6.j.r r , : x x 1 o L Q Z ( *.^ ",
"( +.W U # * p * & * p i : r y j.0.0.1.y.s.f.c.s.t.u.d.c.c.c.c.s.t.y.y.y.u.d.c.a.0.7.7.7.8.9.y.1.0.7.y t r : i u [ Q D W G / Q K ",
"G E W E v * i i l z l z 7 t y 3.0.0.9.1.p.g.g.t.u.u.g.g.d.f.d.i.y.y.y.y.p.s.f.a.7.7.0.0.8.9.1.9.7.6.y y t > i a ] ) A ^ W Z Z T ",
"%.( %.E < p i , 6 r , r q j.7.8.1.1.9.0.0.w.w.w.y.y.9.w.w.u.t.p.8.e.e.e.8.p.u.1.0.7.0.1.1.8.0.7.e y y 6.j.> i u P / K Z Q D ^ ) ",
"} ) _ F v s l 6 r t r r y 7.0.9.y.1.0.7.7.7.7.9.y.y.0.7.0.1.y.9.e.7.7.7.0.y.u.9.0.7.9.y.y.8.7.6.t t y 7.6.4 i u + R W Z ..) ^ W ",
"T S ( O.@ m M 4 , , , , q y 3.0.9.0.0.7.0.0.8.9.1.9.9.8.9.9.9.9.8.8.0.9.8.1.1.0.7.7.9.y.y.2.j.j.y y y j.e 9 : c N @ L G / ) Z Z ",
"A A E Q E ! k.h l l l l , t y j.0.7.7.7.8.1.1.9.0.0.9.1.9.0.0.9.1.y.y.y.1.0.e.e.7.4.9.y.1.3.y y j.7.j.y t t 8 7 : u < G A W F Z ",
"A A Z Z W R X d * * & : : 6 y j.7.7.0.7.8.y.y.8.7.e.9.y.1.0.7.8.y.y.r.y.1.0.0.7.7.7.9.1.1.3.t t j.7.j.t t r 8 6 a a v K Z Z D D ",
"A ^ Z Z J   = a * & : : 8 y j.y j.7.0.9.9.8.8.0.7.e.1.y.1.0.7.9.y.y.1.9.9.9.9.0.0.7.0.9.0.j.t t y y y t r 7 , : C V k.R Z ^ ;...",
"A A A T   a p * * : 7 r y 3.7.y t j.8.y.9.7.7.7.7.e.9.y.1.0.7.8.y.y.8.7.0.1.y.9.7.7.7.7.7.y t t t t t t r : l u ` o.W E W ) o.R ",
"^ A A Z   i & i : : , 7 t 3.j.y t j.8.1.8.7.7.7.7.8.9.1.9.0.7.8.1.1.8.7.0.9.1.8.7.j.7.7.j.y t y t t r 8 8 : z h 1 P U W  .W Z Z ",
"^ A Z S   i i : , , : : 6 t y t t y 4.0.7.y y j.7.7.7.0.e.e.j.0.8.0.7.7.7.0.0.7.j.y y y y y j.j.t t 7 : z : 7 > n f V R D *./ Z ",
"A D Z G   p i 7 r , : * > r r t t y 7.7.j.y t j.7.7.7.7.7.j.e.7.7.7.7.7.7.7.7.j.y t t t t j.7.j.y r , l l , r r z p d H ( %.^ D ",
"A D Z D o = ; 4 : : : : : 7 6 t t y j.j.j.y y j.j.7.7.7.7.7.j.6.6.j.7.7.7.7.j.j.y y y t t y j.y r , : & * z , , l p g { ( _ ;.$.",
"D A A D G F + ; : : , , : - : t j.j.y y y j.7.y y y j.7.6.y y t y y j.7.7.y y y j.j.y t t y y r z l l & * l l l l p k Y / _ o.U ",
"/ Z ^ D Z D | g p z 8 r : l l 9 6.6.t t y j.7.y t t j.7.j.y t r t y j.j.j.y t y j.j.y t t r r 7 z & & * * * p p * p = K D *.D S ",
"W S ) ( Z ( | d & l : , , : : 4 5 8 q t y j.j.t t t y j.y t t t t t j.y j.t t t j.j.y r r 6 , : : : z & * d         O G X.;.$.D ",
"X.) A D G / Y d & p i i > 8 6 x l x 6 t t t t t t t t t t r t t t r t t t t t t y t r t r : l z , r , l p . K Z S #.%.S ^ Q $.D ",
") ) A / D A H f a p * & : 6 6 : u a 7 r r r r r t t r r r r r r r t r r r r r r t t r r r z * l , r , & a . S A ..%...D Z G D K ",
"A / K D Q D W I O f a * l x > < O 1 ; : : : : 6 r r , : : : : , r r r : : : : , r r 7 : x i * l : : z & p . D D A R U ....D Q A ",
"A D D A ..) A W R ` u * & & j @ S J d & & & i > r 6 : & * * l : r r : * * * * z r r , l p * * * * * * * p o D D / ) ( ;.=.=.,./ ",
") D ) Z / ) S Z W I d u h d k I Z J = d u d h > 6 7 - u u h u c 7 7 : u d d - - 7 6 > u h h u d a u h d d + Z D W W R W ) $...( ",
"D S A Z A D K Z D K H + @ @ o K Z R K H X X + < z - . + + + O < - - 1 + X X o 1 - a 2 o + @ O + X P X H H G Z D T W Z G R T J R ",
"A A Z A ^ A A A / Z D D D D -.D S %.) S A T R . p d I W Z W #.O i u o Z D S Z + h p . S D D *.W S %.( A Z Z D / / Z ^ D A D *.D ",
"A ^ A A A A A A D S ) ( Z ( *.D X.*.&.W Z / -.' f   E ( Z ) %.I =   X Z D S Z H < < ` / S ( *.D %.*.&.W A W ;.) W Z ) ) Z ( *.^ ",
"A ^ A A A A ^ A ..( ^ W T / W F ( +.W E A ) o.K } Q A W G / W H G S S Z A A ^ Z } ~ S W G / W F _ +.W E D ) _ R ..( ^ W T / W J ",
"^ A A A A A A A ( ) A ^ D Z Z Z G R W D o.W Z Z ) ) A / S A Z S D A Z A A A A A ) ) A / D Z R Z T T W W  .W S Z ) ) Z ^ S Z Z R ",
"A A A A A A ^ ^ ^ / K A Q D ^ ) %. .-.D W =.^ A D / K S Q D ^ / ^ A A A ^ A ^ ^ ^ / K S Q ^ / / +.( *./ W *.W A A / K S ( W ^ ( ",
"A ^ A A A A ^ A A S / A ..) D W <.) Q S ( $./ / A A / A ..) ^ W A A A A A A ^ A A S W A ..) ^ W ! ) _ G ) &./ W A A / A ..) ^ S ",
"A A A A A A S W / W / Z / ) R Z A A ) ) / ( >.) / W ) T ^ ) Z Z A S Z A A Z A A / / / T / ) T A T A _ +.) ( c.) ) W / A / ) S A ",
"A A A A A A A W A T A Z A / F Z A A ~ z./ +.x.K A T A Z A D K Z A A A ^ A A A D A S A A A W F Z A Z E o.) &.x.K S T A T A ^ F Z "
};