/* XPM */
static char * wall_xpm[] = {
"64 64 566 2",
"  	c #CBDBFC",
". 	c #CCDBFC",
"+ 	c #C0D9F9",
"@ 	c #A6D8F0",
"# 	c #D2EDF5",
"$ 	c #FCFDFF",
"% 	c #E5EDFD",
"& 	c #AAD8F1",
"* 	c #C1E5F2",
"= 	c #E0EDFB",
"- 	c #D5E1FD",
"; 	c #CADAFC",
"> 	c #AFD6F4",
", 	c #B4E0F0",
"' 	c #E9F6F9",
") 	c #F9F9FF",
"! 	c #CFE4F9",
"~ 	c #C2D9F9",
"{ 	c #A0D6EF",
"] 	c #D4EDF5",
"^ 	c #FBFDFE",
"/ 	c #A7D7F1",
"( 	c #C3E6F2",
"_ 	c #DFECFB",
": 	c #ADD5F4",
"< 	c #B3DFF0",
"[ 	c #E8F6F9",
"} 	c #F9FAFF",
"| 	c #C4DAFA",
"1 	c #9BD5EE",
"2 	c #D7EEF6",
"3 	c #E5EDFE",
"4 	c #A6D7F1",
"5 	c #CDDBFC",
"6 	c #AED5F4",
"7 	c #B2DFF0",
"8 	c #D9E4FC",
"9 	c #CCDCFC",
"0 	c #C5DAFA",
"a 	c #97D4ED",
"b 	c #D9EFF6",
"c 	c #FAFDFE",
"d 	c #E6EDFE",
"e 	c #C2E6F2",
"f 	c #E1EDFB",
"g 	c #D4E1FD",
"h 	c #CADBFC",
"i 	c #AEDEEF",
"j 	c #E4F2FA",
"k 	c #D7E4FC",
"l 	c #C6DAFB",
"m 	c #95D4ED",
"n 	c #DAEFF7",
"o 	c #A8D7F1",
"p 	c #BFE5F2",
"q 	c #E3EEFB",
"r 	c #D3E0FD",
"s 	c #B2D6F5",
"t 	c #97D7EC",
"u 	c #E5F3FA",
"v 	c #D8E4FC",
"w 	c #C7DAFB",
"x 	c #96D4ED",
"y 	c #D8EFF6",
"z 	c #E6EDFD",
"A 	c #AAD7F2",
"B 	c #BAE3F1",
"C 	c #E6F0FC",
"D 	c #D1DFFC",
"E 	c #C8DFF9",
"F 	c #E4F2F9",
"G 	c #D9E5FD",
"H 	c #CDDCFC",
"I 	c #CEDDFC",
"J 	c #98D4EE",
"K 	c #D6EEF6",
"L 	c #E6EEFD",
"M 	c #ADD8F3",
"N 	c #B5E1F0",
"O 	c #E9F1FC",
"P 	c #D0DEFC",
"Q 	c #F1F6FD",
"R 	c #C8DEF9",
"S 	c #9AD7EC",
"T 	c #E1F1F9",
"U 	c #DBE6FD",
"V 	c #E0E9FD",
"W 	c #EAF0FE",
"X 	c #9DD5EE",
"Y 	c #F9FCFE",
"Z 	c #E2EDFC",
"` 	c #B0D8F3",
" .	c #B0E0EF",
"..	c #EBF3FD",
"+.	c #CFDEFC",
"@.	c #CDDDFC",
"#.	c #EFF4FE",
"$.	c #DAE5FD",
"%.	c #A0DBEC",
"&.	c #EAF3FC",
"*.	c #C7DEF8",
"=.	c #9ED8ED",
"-.	c #DDEFF8",
";.	c #DDE7FD",
">.	c #E2EBFD",
",.	c #EAF1FD",
"'.	c #A4D7F0",
").	c #89D5E9",
"!.	c #C6E7F3",
"~.	c #B0D7F4",
"{.	c #ADDFEE",
"].	c #ECF3FD",
"^.	c #D3E0FC",
"/.	c #EDF3FD",
"(.	c #B9D8F7",
"_.	c #D5E3FC",
":.	c #BBD8F7",
"<.	c #A4DAEE",
"[.	c #D9EEF7",
"}.	c #DFE8FD",
"|.	c #BADAF6",
"1.	c #EBF1FD",
"2.	c #C1D9F9",
"3.	c #B9D7F7",
"4.	c #C8DDFA",
"5.	c #B2D8F4",
"6.	c #ACDFEE",
"7.	c #A5D9EF",
"8.	c #DCEFF8",
"9.	c #DEE7FD",
"0.	c #AADBEF",
"a.	c #BDDDF5",
"b.	c #C3D9FA",
"c.	c #ADD8F2",
"d.	c #BBE3F1",
"e.	c #A7DCEE",
"f.	c #C8DBFB",
"g.	c #A5DAEE",
"h.	c #D9EDF7",
"i.	c #E0E8FD",
"j.	c #B7D7F6",
"k.	c #9BD3EF",
"l.	c #B1D7F4",
"m.	c #ACD8F2",
"n.	c #BDE4F1",
"o.	c #E8F0FD",
"p.	c #DBE5FD",
"q.	c #E4ECFD",
"r.	c #ACD5F4",
"s.	c #97D3EE",
"t.	c #D5ECF7",
"u.	c #E1E9FE",
"v.	c #E9F0FE",
"w.	c #D6E2FD",
"x.	c #B6D7F6",
"y.	c #B7D8F6",
"z.	c #A9D7F1",
"A.	c #C1E6F2",
"B.	c #D5E2FD",
"C.	c #E7EEFE",
"D.	c #E3EBFD",
"E.	c #ADDCF0",
"F.	c #D4EBF6",
"G.	c #E2EAFE",
"H.	c #D7E3FD",
"I.	c #C6DAFA",
"J.	c #A4D6F1",
"K.	c #C5E7F3",
"L.	c #E3EDFC",
"M.	c #D1DEFC",
"N.	c #C9DAFC",
"O.	c #FCFCFF",
"P.	c #BAD8F7",
"Q.	c #AEDCF0",
"R.	c #D3EBF6",
"S.	c #F4F7FF",
"T.	c #F3F6FE",
"U.	c #A0D5F0",
"V.	c #CAE9F3",
"W.	c #E1ECFC",
"X.	c #D2DFFD",
"Y.	c #CBE0F9",
"Z.	c #DCF1F7",
"`.	c #E2EAFD",
" +	c #ADD6F3",
".+	c #9ED4F0",
"++	c #CDDBFD",
"@+	c #D5ECF6",
"#+	c #C7E5F5",
"$+	c #F0F9FB",
"%+	c #F3F6FF",
"&+	c #B0D6F4",
"*+	c #C9DBFB",
"=+	c #C8DAFB",
"-+	c #9CD4EF",
";+	c #CCEAF4",
">+	c #DFEBFC",
",+	c #A4D9EF",
"'+	c #DEF1F7",
")+	c #FBFCFF",
"!+	c #E1EAFD",
"~+	c #ADD6F4",
"{+	c #9DD4EF",
"]+	c #D7EDF7",
"^+	c #A5D4F2",
"/+	c #BDE3F2",
"(+	c #F4F6FF",
"_+	c #92D2ED",
":+	c #B2D7F5",
"<+	c #9AD4EF",
"[+	c #CDEAF4",
"}+	c #BDD8F8",
"|+	c #9FD8EE",
"1+	c #E1F2F8",
"2+	c #FBFDFF",
"3+	c #AED6F4",
"4+	c #BCD8F8",
"5+	c #A5DAEF",
"6+	c #DBEEF8",
"7+	c #F1F9FB",
"8+	c #90D2ED",
"9+	c #B3D7F5",
"0+	c #C9DBFC",
"a+	c #9AD3EF",
"b+	c #D9E7FB",
"c+	c #CBDAFC",
"d+	c #84D4E8",
"e+	c #E2F3F8",
"f+	c #DFE9FD",
"g+	c #BED9F8",
"h+	c #BBD8F8",
"i+	c #A0D8EE",
"j+	c #95D2EE",
"k+	c #AFE1EE",
"l+	c #F2FAFC",
"m+	c #A8D6F2",
"n+	c #BFD9F9",
"o+	c #7DD0E9",
"p+	c #7DD3E7",
"q+	c #E3F3F8",
"r+	c #93D2ED",
"s+	c #90D2EC",
"t+	c #A5D5F1",
"u+	c #6BCEE6",
"v+	c #ADE0EE",
"w+	c #F3FAFC",
"x+	c #A9D5F2",
"y+	c #BFD9F8",
"z+	c #7CD0E9",
"A+	c #7CD2E7",
"B+	c #8FD2EC",
"C+	c #8DD2EC",
"D+	c #A6D5F2",
"E+	c #AADFED",
"F+	c #ABD6F3",
"G+	c #7CD3E7",
"H+	c #DEE8FD",
"I+	c #84D0EA",
"J+	c #A8D5F2",
"K+	c #6CCEE6",
"L+	c #AAD6F3",
"M+	c #7ED0E9",
"N+	c #7ED3E7",
"O+	c #E0F2F8",
"P+	c #6FCEE6",
"Q+	c #7FD0E9",
"R+	c #AAD5F3",
"S+	c #8BD1EC",
"T+	c #6ECEE6",
"U+	c #81D4E7",
"V+	c #E1E9FD",
"W+	c #B4D7F5",
"X+	c #80D0E9",
"Y+	c #A7D5F2",
"Z+	c #80D0EA",
"`+	c #84D5E8",
" @	c #D4ECF6",
".@	c #81D0EA",
"+@	c #E9F1FD",
"@@	c #8ED2EC",
"#@	c #82D0EA",
"$@	c #87D6E8",
"%@	c #D1EBF6",
"&@	c #E4EBFE",
"*@	c #70CEE7",
"=@	c #83D0EA",
"-@	c #BDD9F8",
";@	c #CADDFB",
">@	c #8AD7E8",
",@	c #BEDFF4",
"'@	c #71CFE7",
")@	c #85D1EA",
"!@	c #65CDE5",
"~@	c #D9E4FD",
"{@	c #D8E4FD",
"]@	c #74CEE7",
"^@	c #73CFE7",
"/@	c #86D1EA",
"(@	c #D2E0FC",
"_@	c #E8EEFE",
":@	c #6DCEE6",
"<@	c #CAE5F6",
"[@	c #DCECF9",
"}@	c #C8E0F8",
"|@	c #84D1EA",
"1@	c #8CD1EC",
"2@	c #74CFE7",
"3@	c #86D1EB",
"4@	c #C9DDFA",
"5@	c #C9E8F3",
"6@	c #E7EFFD",
"7@	c #C4E4F4",
"8@	c #E0EEFA",
"9@	c #D7E2FD",
"0@	c #9FD4F0",
"a@	c #B9E2F1",
"b@	c #EEF8FA",
"c@	c #F6F8FF",
"d@	c #C8E1F7",
"e@	c #A7DAEF",
"f@	c #D6EDF6",
"g@	c #75CFE7",
"h@	c #A2D6F0",
"i@	c #CEEBF4",
"j@	c #E8EFFD",
"k@	c #BDE3F1",
"l@	c #DEEDFA",
"m@	c #8BD1EB",
"n@	c #A9D5F3",
"o@	c #B7E1F1",
"p@	c #EEF8FB",
"q@	c #F7F8FF",
"r@	c #C9E1F8",
"s@	c #A2D9EE",
"t@	c #DAEEF7",
"u@	c #9DD5EF",
"v@	c #D1ECF5",
"w@	c #E9EFFE",
"x@	c #ABD8F2",
"y@	c #BEE4F2",
"z@	c #C3DAFA",
"A@	c #89D1EB",
"B@	c #ABD5F3",
"C@	c #EFF9FB",
"D@	c #CBE1F9",
"E@	c #9DD7ED",
"F@	c #DDF0F8",
"G@	c #9AD4EE",
"H@	c #D3ECF5",
"I@	c #F9FDFE",
"J@	c #DFEDFA",
"K@	c #AFDFEF",
"L@	c #F7F9FF",
"M@	c #CCE0F9",
"N@	c #99D6ED",
"O@	c #E0F1F8",
"P@	c #DAE5FC",
"Q@	c #98D3EE",
"R@	c #97D4EE",
"S@	c #F9FDFD",
"T@	c #E2EFFB",
"U@	c #AADEEE",
"V@	c #F7F9FE",
"W@	c #CDE0FA",
"X@	c #96D6EC",
"Y@	c #E2F1F9",
"Z@	c #D9E5FC",
"`@	c #EAEFFE",
" #	c #AFD8F3",
".#	c #B6E1F0",
"+#	c #E5F0FB",
"@#	c #A6DCED",
"##	c #F4FAFC",
"$#	c #DBE6FC",
"%#	c #99D4EE",
"&#	c #D0EBF5",
"*#	c #B1D9F3",
"=#	c #B1E0EF",
"-#	c #A3DBED",
";#	c #98D6EC",
">#	c #DEF0F8",
",#	c #B4D9F4",
"'#	c #B8D8F6",
")#	c #A2DBED",
"!#	c #CDE1FA",
"~#	c #9CD7ED",
"{#	c #C9E9F3",
"]#	c #FCFDFE",
"^#	c #A4DCED",
"/#	c #CCE1F9",
"(#	c #C5E8F2",
"_#	c #B5D8F6",
":#	c #A8DDEE",
"<#	c #D2EBF6",
"[#	c #E3EBFE",
"}#	c #C3E7F2",
"|#	c #E7F0FD",
"1#	c #ADDEEF",
"2#	c #EFF8FB",
"3#	c #CBE2F8",
"4#	c #A8DAF0",
"5#	c #D0EAF5",
"6#	c #C2D9FA",
"7#	c #BEE4F1",
"8#	c #E5EEFC",
"9#	c #D2DFFC",
"0#	c #B1DFF0",
"a#	c #EDF8FA",
"b#	c #F8F9FF",
"c#	c #CAE2F8",
"d#	c #AADAF0",
"e#	c #CFEAF5",
"f#	c #ECF7FA",
"g#	c #E5ECFD",
"h#	c #A5D6F0",
"i#	c #E0ECFB",
"j#	c #D4E0FD",
"k#	c #B6E0F1",
"l#	c #EBF7FA",
"m#	c #CDE3F8",
"n#	c #A8D9F0",
"o#	c #DAEFF6",
"p#	c #DDE9FC",
"q#	c #A5D7F0",
"r#	c #C7E8F3",
"s#	c #ECF1FE",
"t#	c #DCE6FD",
"u#	c #D4EEF5",
"v#	c #DBEDF8",
"w#	c #CDE3F9",
"x#	c #A6D9EF",
"y#	c #D5EDF6",
"z#	c #91D3EC",
"A#	c #D4E1FC",
"B#	c #9DD3F0",
"C#	c #D1E2FB",
"D#	c #DFEFF9",
"E#	c #86D0EB",
"F#	c #BCE0F3",
"G#	c #E7EDFE",
"H#	c #BED8F8",
"I#	c #DDE8FD",
"J#	c #D6EAF8",
"K#	c #DEECFB",
"L#	c #DBE9FB",
"M#	c #B8D7F7",
"N#	c #A3DAEE",
"O#	c #9BD6ED",
"P#	c #DBEFF8",
"Q#	c #A2D5F0",
"R#	c #A3D5F1",
"S#	c #9DD9ED",
"T#	c #E5F2FA",
"U#	c #D7E3FC",
"V#	c #A4D5F1",
"W#	c #A3D4F1",
"X#	c #99D8EC",
"Y#	c #E7F3FA",
"Z#	c #D6E3FC",
"`#	c #EEF3FE",
" $	c #A2D4F1",
".$	c #E5EFFC",
"+$	c #ECF2FE",
"@$	c #98D7EC",
"#$	c #A6D5F1",
"$$	c #BBE4F1",
"%$	c #E8F0FC",
"&$	c #F0F4FE",
"*$	c #9AD8EC",
"=$	c #F4F7FE",
"-$	c #A0D4F0",
";$	c #AAD6F2",
">$	c #B6E2F0",
",$	c #EAF2FD",
"'$	c #CFDDFC",
")$	c #EBF2FD",
"!$	c #BCD9F8",
"~$	c #9ED9ED",
"{$	c #BCDAF7",
"]$	c #AFE0EE",
"^$	c #AED7F3",
"/$	c #B2E1EF",
"($	c #ECF2FD",
"_$	c #A1D7EF",
":$	c #D7EFF6",
"<$	c #F8FCFE",
"[$	c #A1D4F1",
"}$	c #A2D7EF",
"|$	c #B1D7F5",
"1$	c #96D3EE",
"2$	c #B8D7F6",
"3$	c #A9DCEF",
"4$	c #DAEDF8",
"5$	c #F8FCFD",
"6$	c #D3E1FC",
"7$	c #B0D8F4",
"8$	c #D2EDF4",
"9$	c #FDFDFF",
"0$	c #B5D7F6",
"a$	c #AEDDF0",
"b$	c #C1DFF6",
"c$	c #70CFE6",
"d$	c #B0E1EE",
"e$	c #F6FBFD",
"f$	c #F2F6FE",
"g$	c #A1D4F0",
"h$	c #AFDEEF",
"i$	c #C9DCFB",
"j$	c #7FD4E7",
"k$	c #D1EDF4",
"l$	c #ACD6F3",
"m$	c #B4D7F6",
"n$	c #6ACEE5",
"o$	c #B3E2EF",
"p$	c #F5FBFC",
"q$	c #F2F5FE",
"r$	c #8AD1EB",
"s$	c #80D4E7",
"t$	c #D1ECF4",
"u$	c #6ACEE6",
"v$	c #B6E3EF",
"w$	c #D6E3FD",
"x$	c #8AD1EC",
"y$	c #69CEE6",
"z$	c #B7E3EF",
"A$	c #70CEE6",
"B$	c #8DD1EC",
"C$	c #69CDE6",
"D$	c #B8E4EF",
"E$	c #DFEDFB",
"F$	c #91D2ED",
"G$	c #69CEE5",
"H$	c #B5E3EF",
"I$	c #E3EFFB",
"J$	c #E2F2F9",
"K$	c #87D1EB",
"L$	c #B2E2EE",
"M$	c #E2EEFB",
"N$	c #7BD1E7",
"O$	c #6DCFE6",
"P$	c #94D4ED",
"Q$	c #79CFE8",
"R$	c #E5EEFD",
"S$	c #EDF4FC",
"T$	c #D4E2FC",
"U$	c #E8F1FC",
"V$	c #DDE8FC",
"W$	c #C3D9F9",
"X$	c #A7D7F0",
"Y$	c #CBE9F4",
"Z$	c #F8FAFE",
"`$	c #C3DAF9",
" %	c #9CD9EC",
".%	c #ECF5FB",
"+%	c #9DD6EE",
"@%	c #D7EDF6",
"#%	c #E0EAFD",
"$%	c #CDEBF4",
"%%	c #E6EFFC",
"&%	c #B3D8F4",
"*%	c #BBD9F7",
"=%	c #9FDAEC",
"-%	c #F8FAFF",
";%	c #D1E3FA",
">%	c #9FD7EE",
",%	c #D2ECF5",
"                                              . + @ # $ % & * = - ;                                                 . > , ' ) ! ",
"                                                . ~ { ] ^ % / ( _ - ;                                                 . : < [ } ",
".                                                   | 1 2 ^ 3 4 ( _ - ;                                                 5 6 7 ' ",
"8 9                                                   0 a b c d 4 e f g h                                                 . > i ",
"j k 9                                                   l m n c d o p q r                                                   . s ",
"t u v 9                                                   w x y ^ z A B C D                                                     ",
"E t F G 9       H I                                         l J K ^ L M N O P         P H                                       ",
"Q R S T U     ; V W H                                         0 X # Y Z `  ...+.    @.#.$..                                     ",
"%.&.*.=.-.;.    +.>.,.H                                         | '.).!.L ~.{.].+.    ^./.U                                     ",
"(._.I :.<.[.}.; . |.B 1.H                                       . 2.3.4.g w 5.6.].+.  h 7.8.9.                                  ",
". h   . 3.0.a..   b.c.d.,.H                                         .     . w 5.e.f.    :.g.h.i.;                               ",
"        . j.k.l.. . b.m.n.o.I             ; p.q.h                             w r.s.|   . 3.0.t.u.;             H v.w.;         ",
"          . x.y..   . | z.A.L +.          h B.C.D.              . .             f.> w     . j.E.F.G.;           9 ;.W H.;       ",
"            . .       . I.J.K.L.M.h         N.9.O.D.            > P.5             .         5 x.Q.R.u.;             S.T.H.;     ",
"h                         w U.V.W.X.;         Y.Z.O.`.9          +.+P.5                       ++x.E.@+V             #+$+%+H.;   ",
"&+*+                        =+-+;+>+X.;     . P.,+'+)+!+H       . ~+{+:..                       5 j.0.]+}.        h ^+/+$+(+H.; ",
"_+:+=+                        *+<+[+>+X.      . }+|+1+2+V H       . 3+k.4+.                       . 3.5+6+;.H       . ^+/+7+(+H.",
"0 8+9+=+                        0+a+[+b+c+      . 4+d+e+^ f+@.      . &+s.g+                        . h+i+-.@.        . j+k+l+S.",
"  I.8+:+f.                        *+{+m+l       . n+o+p+q+^ V @.        9+r++                           g+s+(.*+      . t+u+v+w+",
"    0 _+&+*+                        *+.+x+.         y+z+A+q+^ V H         x.B+2.                          + C+|           D+u+E+",
"      0 8+F+h                         w =+          h n+o+G+e+^ H+;       h x.I+2.h                       h w h           h J+K+",
"        B+K+L+                                        h y+M+N+O+!+        . :.P+Q+2.                                        *+R+",
"        2.S+T+J+                                          g+Q+U+]+V+        *+W+P+X++                                         f.",
"+.      . + C+P+Y+.                                         }+Z+`+ @D.h       *+W+P+.@y+                                        ",
"+@D       . y+@@P+Y+.                                       . :.#@$@%@&@h       0+:+*@=@-@.                                     ",
"N ;@        . g+B+P+Y+              h         h               . P.=@>@,@.         h l.'@)@4+.             h       h             ",
"!@a+|         . g+B+T+J+            V+~@N.; {@G.h               . P.I+]@~+            > ^@/@:.5         (@_@H ; 9 d B.;         ",
"{+u+:..         . y+@@:@x+h         <@[@C.$.}@R.!+                5 P.|@1@            . 3+2@3@P.5       4@5@6@C.+.7@8@9@;       ",
"*+0@~             . + 1@K+F+*+      J+a@b@c@d@e@f@}.                5 (.F+              . ~+g@3@P..     b.h@i@^ j@m.k@l@H.;     ",
"                    . ~ m@u+ +w     . n@o@p@q@r@s@t@;.9                 .                 . ~+g@/@P.      0 u@v@c w@x@y@l@H.;   ",
"                        z@A@:@y+.     . B@, C@q@D@E@F@U H                                   . 3+^@r+.       w G@H@I@w@m.k@J@w.; ",
"                          | C+W+=+      . ~+K@7+L@M@N@O@P@H                                   . 3+Q@y+        =+R@] S@w@c.B T@- ",
"                            0 B+}+.         l.U@w+V@W@X@Y@Z@H                                     l.a+          =+R@H@c `@ #.#+#",
"                              w h           h W+@###V@W@X@T $#H                                   h f.            =+%#&#c W *#=#",
"                                              0+y.-###V@W@;#>#;.9                                                   w u@[+^ ,.,#",
"                                                *+'#)###V@!#~#t@}.                                                    l h@{#]#,.",
"                                                  *+y.^#w+L@/#i+f@!+                                                    0 4 (#$ ",
"+.                                                  *+_#:#7+L@D@7.<#[#;                                                 . b.& }#",
"|#P                                                   h :+1#2#L@3#4#5#&@;                                                 . 6#x@",
"7#8#9#h                                                   > 0#a#b#c#d#e#&@h                                                 . 6#",
"/ e Z r ;         ;                                       . : , f#b#c#d#5#[#          ;                                       . ",
"g#h#K.i#j#;   h B.;.;                                       . B@k#l#) m#n#<#`.      9 !+^.;                                     ",
"o#p#q#r#_ j#; ; $.s#t#                                        . B@o@u#v#w#x#y#f+9   9 z C.r ;                                   ",
"z#+#A#B#r#i#j#    C#D#$.                                        . ~+E#F#G#H#i+[.I#@.    J#K#j#;                                 ",
"h     h 0@!.L#  . M#N#Y@{@9                                                 + O#P#+.  h .+r#i#r h                 h             ",
"        h Q#R#0     P.S#T#U#9               +.^.                              ~ s+y.*+  h 0@K.Z X.                B.+.          ",
"          0+V#W#.   h -@X#Y#Z#9           ; t#`#9#                              z@@@+     h  $* .$D             9 +$V+I         ",
"            w w       h g+@$Y#U#.           9 ;.T.D             w =+              w h       *+#$$$%$+.            I &$q.H       ",
"                        h g+*$T#~@          ; Z@Y =$D         . -$D+h                         =+;$>$,$'$            )$^ g#9     ",
"z@                        h !$~$T p.        . {$]$Y =$D         | 0@V#                          w ^$/$($I           _$:$$ z 9   ",
"_+~                           P.<.-.;.;       l 5.]$<$T.(@      . z@ $[$                        . l ` =#].'$        2.}$u#$ C.  ",
"|$1$+ .                         2$3$4$}.;     . w l./$5$T.6$h     . ~ V#-$                        . l 7$=#)$+.      . n+@ 8$9$_@",
"h > a+g+.                       . 0$a$b$.       . + c$d$e$f$A#;     . ~ V#g$                        . l  #h$i$        ++k.j$k$9$",
"    l${+-@.                       . m$k.9+.       l V#n$o$p$q$B.;     . ~ W# $h                       . w J+k.|         4+r$s$t$",
"    . F+-$-@.                       5 W+W+.         *+ $u$v$##q$w$h     . z@g$D+*+                        f.R+I.        5 -@x$j$",
"      . B+1@g+.                       . .             h g$y$z$##&@N.      . g+T+D+=+                        .             5 -@r$",
"        Y+A$B$g+.                                       h -$C$D$E$w.;       z@F$G$Y+w .                                     . g+",
"9       . J+P+S+n+.                                         0@C$D$f - ;       0 B+G$J+w .                                     . ",
"Z@H         R+T+A@2.                                          -$y$H$I$g         I.@@G$J+w .                                     ",
"J$(@          l$:@K$~                                         h [$u$L$M$          w C+G$J+w                                     ",
"N$P.h         h 3+:@)@z@            +.I     H P                 h W#O$P$0           w @@G$D+=+          9 (@9     D I           ",
"Q$2@:..         *+&+K+I+z@          R$>.I H Z@)$+.                *+D+G$F$h           l 8+G$V#*+        (@S$T$P H U$V$H         ",
"}+o+(..           *+l.K+=@W$      . X$Y$Z$`@|.K@].+.                =+D+C+h             0 _+G$ $h       `$ %.%Z$v +%@%#%9       ",
"  -@w               f.|$K+|@~       ~ q#$%9$%%&%{.].+.                l 2.                | j+u$-$h     *+*%=%2#-%;%>%,%D.      "};
